%TF.GenerationSoftware,KiCad,Pcbnew,9.0.5*%
%TF.CreationDate,2026-04-19T15:40:25-07:00*%
%TF.ProjectId,Antenna_PCB_v1,416e7465-6e6e-4615-9f50-43425f76312e,rev?*%
%TF.SameCoordinates,Original*%
%TF.FileFunction,Legend,Top*%
%TF.FilePolarity,Positive*%
%FSLAX46Y46*%
G04 Gerber Fmt 4.6, Leading zero omitted, Abs format (unit mm)*
G04 Created by KiCad (PCBNEW 9.0.5) date 2026-04-19 15:40:25*
%MOMM*%
%LPD*%
G01*
G04 APERTURE LIST*
%ADD10C,0.100000*%
%ADD11C,0.150000*%
%ADD12C,0.120000*%
G04 APERTURE END LIST*
D10*
X132827693Y-102920038D02*
X132732455Y-102872419D01*
X132732455Y-102872419D02*
X132589598Y-102872419D01*
X132589598Y-102872419D02*
X132446741Y-102920038D01*
X132446741Y-102920038D02*
X132351503Y-103015276D01*
X132351503Y-103015276D02*
X132303884Y-103110514D01*
X132303884Y-103110514D02*
X132256265Y-103300990D01*
X132256265Y-103300990D02*
X132256265Y-103443847D01*
X132256265Y-103443847D02*
X132303884Y-103634323D01*
X132303884Y-103634323D02*
X132351503Y-103729561D01*
X132351503Y-103729561D02*
X132446741Y-103824800D01*
X132446741Y-103824800D02*
X132589598Y-103872419D01*
X132589598Y-103872419D02*
X132684836Y-103872419D01*
X132684836Y-103872419D02*
X132827693Y-103824800D01*
X132827693Y-103824800D02*
X132875312Y-103777180D01*
X132875312Y-103777180D02*
X132875312Y-103443847D01*
X132875312Y-103443847D02*
X132684836Y-103443847D01*
X133303884Y-103872419D02*
X133303884Y-102872419D01*
X133303884Y-102872419D02*
X133875312Y-103872419D01*
X133875312Y-103872419D02*
X133875312Y-102872419D01*
X134351503Y-103872419D02*
X134351503Y-102872419D01*
X134351503Y-102872419D02*
X134589598Y-102872419D01*
X134589598Y-102872419D02*
X134732455Y-102920038D01*
X134732455Y-102920038D02*
X134827693Y-103015276D01*
X134827693Y-103015276D02*
X134875312Y-103110514D01*
X134875312Y-103110514D02*
X134922931Y-103300990D01*
X134922931Y-103300990D02*
X134922931Y-103443847D01*
X134922931Y-103443847D02*
X134875312Y-103634323D01*
X134875312Y-103634323D02*
X134827693Y-103729561D01*
X134827693Y-103729561D02*
X134732455Y-103824800D01*
X134732455Y-103824800D02*
X134589598Y-103872419D01*
X134589598Y-103872419D02*
X134351503Y-103872419D01*
D11*
X119833333Y-103199580D02*
X119785714Y-103247200D01*
X119785714Y-103247200D02*
X119642857Y-103294819D01*
X119642857Y-103294819D02*
X119547619Y-103294819D01*
X119547619Y-103294819D02*
X119404762Y-103247200D01*
X119404762Y-103247200D02*
X119309524Y-103151961D01*
X119309524Y-103151961D02*
X119261905Y-103056723D01*
X119261905Y-103056723D02*
X119214286Y-102866247D01*
X119214286Y-102866247D02*
X119214286Y-102723390D01*
X119214286Y-102723390D02*
X119261905Y-102532914D01*
X119261905Y-102532914D02*
X119309524Y-102437676D01*
X119309524Y-102437676D02*
X119404762Y-102342438D01*
X119404762Y-102342438D02*
X119547619Y-102294819D01*
X119547619Y-102294819D02*
X119642857Y-102294819D01*
X119642857Y-102294819D02*
X119785714Y-102342438D01*
X119785714Y-102342438D02*
X119833333Y-102390057D01*
X120214286Y-102390057D02*
X120261905Y-102342438D01*
X120261905Y-102342438D02*
X120357143Y-102294819D01*
X120357143Y-102294819D02*
X120595238Y-102294819D01*
X120595238Y-102294819D02*
X120690476Y-102342438D01*
X120690476Y-102342438D02*
X120738095Y-102390057D01*
X120738095Y-102390057D02*
X120785714Y-102485295D01*
X120785714Y-102485295D02*
X120785714Y-102580533D01*
X120785714Y-102580533D02*
X120738095Y-102723390D01*
X120738095Y-102723390D02*
X120166667Y-103294819D01*
X120166667Y-103294819D02*
X120785714Y-103294819D01*
X129833333Y-103284819D02*
X129357143Y-103284819D01*
X129357143Y-103284819D02*
X129357143Y-102284819D01*
X130119048Y-102380057D02*
X130166667Y-102332438D01*
X130166667Y-102332438D02*
X130261905Y-102284819D01*
X130261905Y-102284819D02*
X130500000Y-102284819D01*
X130500000Y-102284819D02*
X130595238Y-102332438D01*
X130595238Y-102332438D02*
X130642857Y-102380057D01*
X130642857Y-102380057D02*
X130690476Y-102475295D01*
X130690476Y-102475295D02*
X130690476Y-102570533D01*
X130690476Y-102570533D02*
X130642857Y-102713390D01*
X130642857Y-102713390D02*
X130071429Y-103284819D01*
X130071429Y-103284819D02*
X130690476Y-103284819D01*
X119833333Y-95199580D02*
X119785714Y-95247200D01*
X119785714Y-95247200D02*
X119642857Y-95294819D01*
X119642857Y-95294819D02*
X119547619Y-95294819D01*
X119547619Y-95294819D02*
X119404762Y-95247200D01*
X119404762Y-95247200D02*
X119309524Y-95151961D01*
X119309524Y-95151961D02*
X119261905Y-95056723D01*
X119261905Y-95056723D02*
X119214286Y-94866247D01*
X119214286Y-94866247D02*
X119214286Y-94723390D01*
X119214286Y-94723390D02*
X119261905Y-94532914D01*
X119261905Y-94532914D02*
X119309524Y-94437676D01*
X119309524Y-94437676D02*
X119404762Y-94342438D01*
X119404762Y-94342438D02*
X119547619Y-94294819D01*
X119547619Y-94294819D02*
X119642857Y-94294819D01*
X119642857Y-94294819D02*
X119785714Y-94342438D01*
X119785714Y-94342438D02*
X119833333Y-94390057D01*
X120785714Y-95294819D02*
X120214286Y-95294819D01*
X120500000Y-95294819D02*
X120500000Y-94294819D01*
X120500000Y-94294819D02*
X120404762Y-94437676D01*
X120404762Y-94437676D02*
X120309524Y-94532914D01*
X120309524Y-94532914D02*
X120214286Y-94580533D01*
X146376666Y-92454819D02*
X146376666Y-93169104D01*
X146376666Y-93169104D02*
X146329047Y-93311961D01*
X146329047Y-93311961D02*
X146233809Y-93407200D01*
X146233809Y-93407200D02*
X146090952Y-93454819D01*
X146090952Y-93454819D02*
X145995714Y-93454819D01*
X146805238Y-92550057D02*
X146852857Y-92502438D01*
X146852857Y-92502438D02*
X146948095Y-92454819D01*
X146948095Y-92454819D02*
X147186190Y-92454819D01*
X147186190Y-92454819D02*
X147281428Y-92502438D01*
X147281428Y-92502438D02*
X147329047Y-92550057D01*
X147329047Y-92550057D02*
X147376666Y-92645295D01*
X147376666Y-92645295D02*
X147376666Y-92740533D01*
X147376666Y-92740533D02*
X147329047Y-92883390D01*
X147329047Y-92883390D02*
X146757619Y-93454819D01*
X146757619Y-93454819D02*
X147376666Y-93454819D01*
X129833333Y-95284819D02*
X129357143Y-95284819D01*
X129357143Y-95284819D02*
X129357143Y-94284819D01*
X130690476Y-95284819D02*
X130119048Y-95284819D01*
X130404762Y-95284819D02*
X130404762Y-94284819D01*
X130404762Y-94284819D02*
X130309524Y-94427676D01*
X130309524Y-94427676D02*
X130214286Y-94522914D01*
X130214286Y-94522914D02*
X130119048Y-94570533D01*
X102956666Y-106454819D02*
X102956666Y-107169104D01*
X102956666Y-107169104D02*
X102909047Y-107311961D01*
X102909047Y-107311961D02*
X102813809Y-107407200D01*
X102813809Y-107407200D02*
X102670952Y-107454819D01*
X102670952Y-107454819D02*
X102575714Y-107454819D01*
X103956666Y-107454819D02*
X103385238Y-107454819D01*
X103670952Y-107454819D02*
X103670952Y-106454819D01*
X103670952Y-106454819D02*
X103575714Y-106597676D01*
X103575714Y-106597676D02*
X103480476Y-106692914D01*
X103480476Y-106692914D02*
X103385238Y-106740533D01*
D12*
%TO.C,C2*%
X119892164Y-104360000D02*
X120107836Y-104360000D01*
X119892164Y-103640000D02*
X120107836Y-103640000D01*
%TO.C,C1*%
X119892164Y-95640000D02*
X120107836Y-95640000D01*
X119892164Y-96360000D02*
X120107836Y-96360000D01*
%TO.C,J2*%
X142710000Y-99750000D02*
X143210000Y-100000000D01*
X142710000Y-100250000D02*
X142710000Y-99750000D01*
X143210000Y-100000000D02*
X142710000Y-100250000D01*
%TO.C,J1*%
X106790000Y-100000000D02*
X107290000Y-99750000D01*
X107290000Y-99750000D02*
X107290000Y-100250000D01*
X107290000Y-100250000D02*
X106790000Y-100000000D01*
%TD*%
M02*
