%TF.GenerationSoftware,KiCad,Pcbnew,9.0.5*%
%TF.CreationDate,2026-04-20T19:23:17-07:00*%
%TF.ProjectId,Antenna_PCB_v1,416e7465-6e6e-4615-9f50-43425f76312e,rev?*%
%TF.SameCoordinates,Original*%
%TF.FileFunction,Legend,Top*%
%TF.FilePolarity,Positive*%
%FSLAX46Y46*%
G04 Gerber Fmt 4.6, Leading zero omitted, Abs format (unit mm)*
G04 Created by KiCad (PCBNEW 9.0.5) date 2026-04-20 19:23:17*
%MOMM*%
%LPD*%
G01*
G04 APERTURE LIST*
%ADD10C,0.200000*%
%ADD11C,0.150000*%
%ADD12C,0.120000*%
G04 APERTURE END LIST*
D10*
X125000000Y-96000000D02*
G75*
G02*
X126000000Y-96000000I500000J0D01*
G01*
X119000000Y-96000000D02*
X123000000Y-96000000D01*
X126000000Y-96000000D02*
G75*
G02*
X127000000Y-96000000I500000J0D01*
G01*
X130000000Y-107000000D02*
X130000000Y-108750000D01*
X128750000Y-108750000D02*
X131250000Y-108750000D01*
X129250000Y-109250000D02*
X130750000Y-109250000D01*
X129750000Y-109750000D02*
X130250000Y-109750000D01*
X130000000Y-101000000D02*
X130000000Y-103000000D01*
X127000000Y-96000000D02*
X140000000Y-96000000D01*
X130000000Y-105000000D02*
G75*
G02*
X130000000Y-106000000I0J-500000D01*
G01*
X130000000Y-106000000D02*
G75*
G02*
X130000000Y-107000000I0J-500000D01*
G01*
X130000000Y-103000000D02*
G75*
G02*
X130000000Y-104000000I0J-500000D01*
G01*
X119000000Y-94000000D02*
X119000000Y-98000000D01*
X124000000Y-96000000D02*
G75*
G02*
X125000000Y-96000000I500000J0D01*
G01*
X130000000Y-96000000D02*
X130000000Y-99000000D01*
X128000000Y-99000000D02*
X132000000Y-99000000D01*
X123000000Y-96000000D02*
G75*
G02*
X124000000Y-96000000I500000J0D01*
G01*
X117000000Y-94000000D02*
X117000000Y-98000000D01*
X110000000Y-96000000D02*
X117000000Y-96000000D01*
X128000000Y-101000000D02*
X132000000Y-101000000D01*
X130000000Y-104000000D02*
G75*
G02*
X130000000Y-105000000I0J-500000D01*
G01*
D11*
X117833333Y-95199580D02*
X117785714Y-95247200D01*
X117785714Y-95247200D02*
X117642857Y-95294819D01*
X117642857Y-95294819D02*
X117547619Y-95294819D01*
X117547619Y-95294819D02*
X117404762Y-95247200D01*
X117404762Y-95247200D02*
X117309524Y-95151961D01*
X117309524Y-95151961D02*
X117261905Y-95056723D01*
X117261905Y-95056723D02*
X117214286Y-94866247D01*
X117214286Y-94866247D02*
X117214286Y-94723390D01*
X117214286Y-94723390D02*
X117261905Y-94532914D01*
X117261905Y-94532914D02*
X117309524Y-94437676D01*
X117309524Y-94437676D02*
X117404762Y-94342438D01*
X117404762Y-94342438D02*
X117547619Y-94294819D01*
X117547619Y-94294819D02*
X117642857Y-94294819D01*
X117642857Y-94294819D02*
X117785714Y-94342438D01*
X117785714Y-94342438D02*
X117833333Y-94390057D01*
X118785714Y-95294819D02*
X118214286Y-95294819D01*
X118500000Y-95294819D02*
X118500000Y-94294819D01*
X118500000Y-94294819D02*
X118404762Y-94437676D01*
X118404762Y-94437676D02*
X118309524Y-94532914D01*
X118309524Y-94532914D02*
X118214286Y-94580533D01*
X133083333Y-105454819D02*
X132607143Y-105454819D01*
X132607143Y-105454819D02*
X132607143Y-104454819D01*
X133369048Y-104550057D02*
X133416667Y-104502438D01*
X133416667Y-104502438D02*
X133511905Y-104454819D01*
X133511905Y-104454819D02*
X133750000Y-104454819D01*
X133750000Y-104454819D02*
X133845238Y-104502438D01*
X133845238Y-104502438D02*
X133892857Y-104550057D01*
X133892857Y-104550057D02*
X133940476Y-104645295D01*
X133940476Y-104645295D02*
X133940476Y-104740533D01*
X133940476Y-104740533D02*
X133892857Y-104883390D01*
X133892857Y-104883390D02*
X133321429Y-105454819D01*
X133321429Y-105454819D02*
X133940476Y-105454819D01*
X133083333Y-100359580D02*
X133035714Y-100407200D01*
X133035714Y-100407200D02*
X132892857Y-100454819D01*
X132892857Y-100454819D02*
X132797619Y-100454819D01*
X132797619Y-100454819D02*
X132654762Y-100407200D01*
X132654762Y-100407200D02*
X132559524Y-100311961D01*
X132559524Y-100311961D02*
X132511905Y-100216723D01*
X132511905Y-100216723D02*
X132464286Y-100026247D01*
X132464286Y-100026247D02*
X132464286Y-99883390D01*
X132464286Y-99883390D02*
X132511905Y-99692914D01*
X132511905Y-99692914D02*
X132559524Y-99597676D01*
X132559524Y-99597676D02*
X132654762Y-99502438D01*
X132654762Y-99502438D02*
X132797619Y-99454819D01*
X132797619Y-99454819D02*
X132892857Y-99454819D01*
X132892857Y-99454819D02*
X133035714Y-99502438D01*
X133035714Y-99502438D02*
X133083333Y-99550057D01*
X133464286Y-99550057D02*
X133511905Y-99502438D01*
X133511905Y-99502438D02*
X133607143Y-99454819D01*
X133607143Y-99454819D02*
X133845238Y-99454819D01*
X133845238Y-99454819D02*
X133940476Y-99502438D01*
X133940476Y-99502438D02*
X133988095Y-99550057D01*
X133988095Y-99550057D02*
X134035714Y-99645295D01*
X134035714Y-99645295D02*
X134035714Y-99740533D01*
X134035714Y-99740533D02*
X133988095Y-99883390D01*
X133988095Y-99883390D02*
X133416667Y-100454819D01*
X133416667Y-100454819D02*
X134035714Y-100454819D01*
X146376666Y-92454819D02*
X146376666Y-93169104D01*
X146376666Y-93169104D02*
X146329047Y-93311961D01*
X146329047Y-93311961D02*
X146233809Y-93407200D01*
X146233809Y-93407200D02*
X146090952Y-93454819D01*
X146090952Y-93454819D02*
X145995714Y-93454819D01*
X146805238Y-92550057D02*
X146852857Y-92502438D01*
X146852857Y-92502438D02*
X146948095Y-92454819D01*
X146948095Y-92454819D02*
X147186190Y-92454819D01*
X147186190Y-92454819D02*
X147281428Y-92502438D01*
X147281428Y-92502438D02*
X147329047Y-92550057D01*
X147329047Y-92550057D02*
X147376666Y-92645295D01*
X147376666Y-92645295D02*
X147376666Y-92740533D01*
X147376666Y-92740533D02*
X147329047Y-92883390D01*
X147329047Y-92883390D02*
X146757619Y-93454819D01*
X146757619Y-93454819D02*
X147376666Y-93454819D01*
X124833333Y-95284819D02*
X124357143Y-95284819D01*
X124357143Y-95284819D02*
X124357143Y-94284819D01*
X125690476Y-95284819D02*
X125119048Y-95284819D01*
X125404762Y-95284819D02*
X125404762Y-94284819D01*
X125404762Y-94284819D02*
X125309524Y-94427676D01*
X125309524Y-94427676D02*
X125214286Y-94522914D01*
X125214286Y-94522914D02*
X125119048Y-94570533D01*
X102956666Y-106454819D02*
X102956666Y-107169104D01*
X102956666Y-107169104D02*
X102909047Y-107311961D01*
X102909047Y-107311961D02*
X102813809Y-107407200D01*
X102813809Y-107407200D02*
X102670952Y-107454819D01*
X102670952Y-107454819D02*
X102575714Y-107454819D01*
X103956666Y-107454819D02*
X103385238Y-107454819D01*
X103670952Y-107454819D02*
X103670952Y-106454819D01*
X103670952Y-106454819D02*
X103575714Y-106597676D01*
X103575714Y-106597676D02*
X103480476Y-106692914D01*
X103480476Y-106692914D02*
X103385238Y-106740533D01*
D12*
%TO.C,C1*%
X117892164Y-95640000D02*
X118107836Y-95640000D01*
X117892164Y-96360000D02*
X118107836Y-96360000D01*
%TO.C,C2*%
X129640000Y-99892164D02*
X129640000Y-100107836D01*
X130360000Y-99892164D02*
X130360000Y-100107836D01*
%TO.C,J2*%
X142710000Y-99750000D02*
X143210000Y-100000000D01*
X142710000Y-100250000D02*
X142710000Y-99750000D01*
X143210000Y-100000000D02*
X142710000Y-100250000D01*
%TO.C,J1*%
X106790000Y-100000000D02*
X107290000Y-99750000D01*
X107290000Y-99750000D02*
X107290000Y-100250000D01*
X107290000Y-100250000D02*
X106790000Y-100000000D01*
%TD*%
M02*
