%TF.GenerationSoftware,KiCad,Pcbnew,9.0.5*%
%TF.CreationDate,2026-03-03T09:19:45-07:00*%
%TF.ProjectId,Payload_2026_PCB_v1,5061796c-6f61-4645-9f32-3032365f5043,rev?*%
%TF.SameCoordinates,Original*%
%TF.FileFunction,Soldermask,Top*%
%TF.FilePolarity,Negative*%
%FSLAX46Y46*%
G04 Gerber Fmt 4.6, Leading zero omitted, Abs format (unit mm)*
G04 Created by KiCad (PCBNEW 9.0.5) date 2026-03-03 09:19:45*
%MOMM*%
%LPD*%
G01*
G04 APERTURE LIST*
G04 Aperture macros list*
%AMRoundRect*
0 Rectangle with rounded corners*
0 $1 Rounding radius*
0 $2 $3 $4 $5 $6 $7 $8 $9 X,Y pos of 4 corners*
0 Add a 4 corners polygon primitive as box body*
4,1,4,$2,$3,$4,$5,$6,$7,$8,$9,$2,$3,0*
0 Add four circle primitives for the rounded corners*
1,1,$1+$1,$2,$3*
1,1,$1+$1,$4,$5*
1,1,$1+$1,$6,$7*
1,1,$1+$1,$8,$9*
0 Add four rect primitives between the rounded corners*
20,1,$1+$1,$2,$3,$4,$5,0*
20,1,$1+$1,$4,$5,$6,$7,0*
20,1,$1+$1,$6,$7,$8,$9,0*
20,1,$1+$1,$8,$9,$2,$3,0*%
G04 Aperture macros list end*
%ADD10R,2.000000X2.000000*%
%ADD11C,2.000000*%
%ADD12R,1.700000X1.700000*%
%ADD13O,1.700000X1.700000*%
%ADD14RoundRect,0.102000X0.765000X0.765000X-0.765000X0.765000X-0.765000X-0.765000X0.765000X-0.765000X0*%
%ADD15C,1.734000*%
%ADD16R,1.600000X1.600000*%
%ADD17C,1.200000*%
%ADD18RoundRect,0.101600X0.939800X0.939800X-0.939800X0.939800X-0.939800X-0.939800X0.939800X-0.939800X0*%
%ADD19C,2.082800*%
%ADD20O,1.600000X1.600000*%
G04 APERTURE END LIST*
D10*
%TO.C,J8*%
X68500000Y-50500000D03*
D11*
X71040000Y-50500000D03*
X73580000Y-50500000D03*
X76120000Y-50500000D03*
%TD*%
D12*
%TO.C,J5*%
X74900000Y-31600000D03*
D13*
X74900000Y-34140000D03*
X74900000Y-36680000D03*
X74900000Y-39220000D03*
%TD*%
D10*
%TO.C,J7*%
X68500000Y-58125000D03*
D11*
X71040000Y-58125000D03*
X73580000Y-58125000D03*
X76120000Y-58125000D03*
%TD*%
D10*
%TO.C,J3*%
X47880000Y-71625000D03*
D11*
X50420000Y-71625000D03*
X52960000Y-71625000D03*
X55500000Y-71625000D03*
%TD*%
D10*
%TO.C,J9*%
X35235000Y-28670000D03*
D11*
X35235000Y-26130000D03*
%TD*%
D14*
%TO.C,J1*%
X40149000Y-41890000D03*
D15*
X40149000Y-39350000D03*
X40149000Y-36810000D03*
X40149000Y-34270000D03*
X40149000Y-31730000D03*
X40149000Y-29190000D03*
X40149000Y-26650000D03*
X40149000Y-24110000D03*
%TD*%
D16*
%TO.C,J10*%
X58000000Y-52500000D03*
D17*
X60540000Y-52500000D03*
%TD*%
D18*
%TO.C,J4*%
X40170000Y-60750000D03*
D19*
X40170000Y-63290000D03*
X40170000Y-65830000D03*
X40170000Y-68370000D03*
X40170000Y-70910000D03*
X40170000Y-73450000D03*
X63030000Y-60750000D03*
X63030000Y-63290000D03*
X63030000Y-65830000D03*
X63030000Y-68370000D03*
X63030000Y-70910000D03*
X63030000Y-73450000D03*
%TD*%
D10*
%TO.C,J6*%
X68500000Y-65750000D03*
D11*
X71040000Y-65750000D03*
X73580000Y-65750000D03*
X76120000Y-65750000D03*
%TD*%
D10*
%TO.C,J2*%
X47880000Y-64000000D03*
D11*
X50420000Y-64000000D03*
X52960000Y-64000000D03*
X55500000Y-64000000D03*
%TD*%
D16*
%TO.C,A1*%
X21760000Y-37520000D03*
D20*
X21760000Y-40060000D03*
X21760000Y-42600000D03*
X21760000Y-45140000D03*
X21760000Y-47680000D03*
X21760000Y-50220000D03*
X21760000Y-52760000D03*
X21760000Y-55300000D03*
X21760000Y-57840000D03*
X21760000Y-60380000D03*
X21760000Y-62920000D03*
X21760000Y-65460000D03*
X21760000Y-68000000D03*
X21760000Y-70540000D03*
X21760000Y-73080000D03*
X37000000Y-73080000D03*
X37000000Y-70540000D03*
X37000000Y-68000000D03*
X37000000Y-65460000D03*
X37000000Y-62920000D03*
X37000000Y-60380000D03*
X37000000Y-57840000D03*
X37000000Y-55300000D03*
X37000000Y-52760000D03*
X37000000Y-50220000D03*
X37000000Y-47680000D03*
X37000000Y-45140000D03*
X37000000Y-42600000D03*
X37000000Y-40060000D03*
X37000000Y-37520000D03*
%TD*%
M02*
