%TF.GenerationSoftware,KiCad,Pcbnew,9.0.5*%
%TF.CreationDate,2026-03-03T09:19:45-07:00*%
%TF.ProjectId,Payload_2026_PCB_v1,5061796c-6f61-4645-9f32-3032365f5043,rev?*%
%TF.SameCoordinates,Original*%
%TF.FileFunction,Profile,NP*%
%FSLAX46Y46*%
G04 Gerber Fmt 4.6, Leading zero omitted, Abs format (unit mm)*
G04 Created by KiCad (PCBNEW 9.0.5) date 2026-03-03 09:19:45*
%MOMM*%
%LPD*%
G01*
G04 APERTURE LIST*
%TA.AperFunction,Profile*%
%ADD10C,0.050000*%
%TD*%
G04 APERTURE END LIST*
D10*
X53810000Y-50000000D02*
G75*
G02*
X46190000Y-50000000I-3810000J0D01*
G01*
X46190000Y-50000000D02*
G75*
G02*
X53810000Y-50000000I3810000J0D01*
G01*
X29000000Y-25500000D02*
G75*
G02*
X22000000Y-25500000I-3500000J0D01*
G01*
X22000000Y-25500000D02*
G75*
G02*
X29000000Y-25500000I3500000J0D01*
G01*
X78000000Y-25000000D02*
G75*
G02*
X71000000Y-25000000I-3500000J0D01*
G01*
X71000000Y-25000000D02*
G75*
G02*
X78000000Y-25000000I3500000J0D01*
G01*
X20000000Y-20000000D02*
X80000000Y-20000000D01*
X80000000Y-80000000D01*
X20000000Y-80000000D01*
X20000000Y-20000000D01*
X78500000Y-75000000D02*
G75*
G02*
X71500000Y-75000000I-3500000J0D01*
G01*
X71500000Y-75000000D02*
G75*
G02*
X78500000Y-75000000I3500000J0D01*
G01*
%TO.C,J1*%
X48785000Y-22840000D02*
G75*
G02*
X46245000Y-22840000I-1270000J0D01*
G01*
X46245000Y-22840000D02*
G75*
G02*
X48785000Y-22840000I1270000J0D01*
G01*
X48785000Y-43160000D02*
G75*
G02*
X46245000Y-43160000I-1270000J0D01*
G01*
X46245000Y-43160000D02*
G75*
G02*
X48785000Y-43160000I1270000J0D01*
G01*
X69105000Y-22840000D02*
G75*
G02*
X66565000Y-22840000I-1270000J0D01*
G01*
X66565000Y-22840000D02*
G75*
G02*
X69105000Y-22840000I1270000J0D01*
G01*
X69105000Y-43160000D02*
G75*
G02*
X66565000Y-43160000I-1270000J0D01*
G01*
X66565000Y-43160000D02*
G75*
G02*
X69105000Y-43160000I1270000J0D01*
G01*
%TO.C,J10*%
X55460000Y-42340000D02*
G75*
G02*
X54460000Y-42340000I-500000J0D01*
G01*
X54460000Y-42340000D02*
G75*
G02*
X55460000Y-42340000I500000J0D01*
G01*
X61540000Y-42340000D02*
G75*
G02*
X60540000Y-42340000I-500000J0D01*
G01*
X60540000Y-42340000D02*
G75*
G02*
X61540000Y-42340000I500000J0D01*
G01*
%TD*%
M02*
