M48
; DRILL file {KiCad 9.0.5} date 2026-03-03T09:19:52-0700
; FORMAT={-:-/ absolute / metric / decimal}
; #@! TF.CreationDate,2026-03-03T09:19:52-07:00
; #@! TF.GenerationSoftware,Kicad,Pcbnew,9.0.5
; #@! TF.FileFunction,Plated,1,2,PTH
FMAT,2
METRIC
; #@! TA.AperFunction,Plated,PTH,ComponentDrill
T1C0.300
; #@! TA.AperFunction,Plated,PTH,ComponentDrill
T2C0.600
; #@! TA.AperFunction,Plated,PTH,ComponentDrill
T3C1.000
; #@! TA.AperFunction,Plated,PTH,ComponentDrill
T4C1.016
; #@! TA.AperFunction,Plated,PTH,ComponentDrill
T5C1.020
%
G90
G05
T1
X60.54Y-52.5
T2
X58.0Y-52.5
T3
X21.76Y-37.52
X21.76Y-40.06
X21.76Y-42.6
X21.76Y-45.14
X21.76Y-47.68
X21.76Y-50.22
X21.76Y-52.76
X21.76Y-55.3
X21.76Y-57.84
X21.76Y-60.38
X21.76Y-62.92
X21.76Y-65.46
X21.76Y-68.0
X21.76Y-70.54
X21.76Y-73.08
X35.235Y-26.13
X35.235Y-28.67
X37.0Y-37.52
X37.0Y-40.06
X37.0Y-42.6
X37.0Y-45.14
X37.0Y-47.68
X37.0Y-50.22
X37.0Y-52.76
X37.0Y-55.3
X37.0Y-57.84
X37.0Y-60.38
X37.0Y-62.92
X37.0Y-65.46
X37.0Y-68.0
X37.0Y-70.54
X37.0Y-73.08
X47.88Y-64.0
X47.88Y-71.625
X50.42Y-64.0
X50.42Y-71.625
X52.96Y-64.0
X52.96Y-71.625
X55.5Y-64.0
X55.5Y-71.625
X68.5Y-50.5
X68.5Y-58.125
X68.5Y-65.75
X71.04Y-50.5
X71.04Y-58.125
X71.04Y-65.75
X73.58Y-50.5
X73.58Y-58.125
X73.58Y-65.75
X74.9Y-31.6
X74.9Y-34.14
X74.9Y-36.68
X74.9Y-39.22
X76.12Y-50.5
X76.12Y-58.125
X76.12Y-65.75
T4
X40.17Y-60.75
X40.17Y-63.29
X40.17Y-65.83
X40.17Y-68.37
X40.17Y-70.91
X40.17Y-73.45
X63.03Y-60.75
X63.03Y-63.29
X63.03Y-65.83
X63.03Y-68.37
X63.03Y-70.91
X63.03Y-73.45
T5
X40.149Y-24.11
X40.149Y-26.65
X40.149Y-29.19
X40.149Y-31.73
X40.149Y-34.27
X40.149Y-36.81
X40.149Y-39.35
X40.149Y-41.89
M30
