%TF.GenerationSoftware,KiCad,Pcbnew,9.0.5*%
%TF.CreationDate,2026-03-03T09:19:45-07:00*%
%TF.ProjectId,Payload_2026_PCB_v1,5061796c-6f61-4645-9f32-3032365f5043,rev?*%
%TF.SameCoordinates,Original*%
%TF.FileFunction,Copper,L1,Top*%
%TF.FilePolarity,Positive*%
%FSLAX46Y46*%
G04 Gerber Fmt 4.6, Leading zero omitted, Abs format (unit mm)*
G04 Created by KiCad (PCBNEW 9.0.5) date 2026-03-03 09:19:45*
%MOMM*%
%LPD*%
G01*
G04 APERTURE LIST*
%TA.AperFunction,ComponentPad*%
%ADD10R,2.000000X2.000000*%
%TD*%
%TA.AperFunction,ComponentPad*%
%ADD11C,2.000000*%
%TD*%
%TA.AperFunction,ComponentPad*%
%ADD12R,1.700000X1.700000*%
%TD*%
%TA.AperFunction,ComponentPad*%
%ADD13O,1.700000X1.700000*%
%TD*%
%TA.AperFunction,ComponentPad*%
%ADD14R,1.530000X1.530000*%
%TD*%
%TA.AperFunction,ComponentPad*%
%ADD15C,1.530000*%
%TD*%
%TA.AperFunction,ComponentPad*%
%ADD16R,1.600000X1.600000*%
%TD*%
%TA.AperFunction,ComponentPad*%
%ADD17C,1.200000*%
%TD*%
%TA.AperFunction,ComponentPad*%
%ADD18R,1.879600X1.879600*%
%TD*%
%TA.AperFunction,ComponentPad*%
%ADD19C,1.879600*%
%TD*%
%TA.AperFunction,ComponentPad*%
%ADD20O,1.600000X1.600000*%
%TD*%
%TA.AperFunction,Conductor*%
%ADD21C,0.200000*%
%TD*%
%TA.AperFunction,Conductor*%
%ADD22C,0.600000*%
%TD*%
G04 APERTURE END LIST*
D10*
%TO.P,J8,1,Pin_1*%
%TO.N,/5V*%
X68500000Y-50500000D03*
D11*
%TO.P,J8,2,Pin_2*%
%TO.N,/Ultrasonic_3_TRIG*%
X71040000Y-50500000D03*
%TO.P,J8,3,Pin_3*%
%TO.N,/Ultrasonic_3_ECHO*%
X73580000Y-50500000D03*
%TO.P,J8,4,Pin_4*%
%TO.N,/GND*%
X76120000Y-50500000D03*
%TD*%
D12*
%TO.P,J5,1,Pin_1*%
%TO.N,/5V*%
X74900000Y-31600000D03*
D13*
%TO.P,J5,2,Pin_2*%
%TO.N,/GND*%
X74900000Y-34140000D03*
%TO.P,J5,3,Pin_3*%
%TO.N,/SCL*%
X74900000Y-36680000D03*
%TO.P,J5,4,Pin_4*%
%TO.N,/SDA*%
X74900000Y-39220000D03*
%TD*%
D10*
%TO.P,J7,1,Pin_1*%
%TO.N,/5V*%
X68500000Y-58125000D03*
D11*
%TO.P,J7,2,Pin_2*%
%TO.N,/Ultrasonic_2_TRIG*%
X71040000Y-58125000D03*
%TO.P,J7,3,Pin_3*%
%TO.N,/Ultrasonic_2_ECHO*%
X73580000Y-58125000D03*
%TO.P,J7,4,Pin_4*%
%TO.N,/GND*%
X76120000Y-58125000D03*
%TD*%
D10*
%TO.P,J3,1,Pin_1*%
%TO.N,/SCL*%
X47880000Y-71625000D03*
D11*
%TO.P,J3,2,Pin_2*%
%TO.N,/SDA*%
X50420000Y-71625000D03*
%TO.P,J3,3,Pin_3*%
%TO.N,/GND*%
X52960000Y-71625000D03*
%TO.P,J3,4,Pin_4*%
%TO.N,/5V*%
X55500000Y-71625000D03*
%TD*%
D10*
%TO.P,J9,1,Pin_1*%
%TO.N,/VIN*%
X35235000Y-28670000D03*
D11*
%TO.P,J9,2,Pin_2*%
%TO.N,/GND*%
X35235000Y-26130000D03*
%TD*%
D14*
%TO.P,J1,1,Pin_1*%
%TO.N,unconnected-(J1-Pin_1-Pad1)*%
X40149000Y-41890000D03*
D15*
%TO.P,J1,2,Pin_2*%
%TO.N,/CS*%
X40149000Y-39350000D03*
%TO.P,J1,3,Pin_3*%
%TO.N,/DI {slash} MOSI*%
X40149000Y-36810000D03*
%TO.P,J1,4,Pin_4*%
%TO.N,/DO {slash} MISO*%
X40149000Y-34270000D03*
%TO.P,J1,5,Pin_5*%
%TO.N,/CLK {slash} SCK*%
X40149000Y-31730000D03*
%TO.P,J1,6,Pin_6*%
%TO.N,/GND*%
X40149000Y-29190000D03*
%TO.P,J1,7,Pin_7*%
%TO.N,unconnected-(J1-Pin_7-Pad7)*%
X40149000Y-26650000D03*
%TO.P,J1,8,Pin_8*%
%TO.N,/5V*%
X40149000Y-24110000D03*
%TD*%
D16*
%TO.P,J10,1,Pin_1*%
%TO.N,/SW_18020P*%
X58000000Y-52500000D03*
D17*
%TO.P,J10,2,Pin_2*%
%TO.N,/GND*%
X60540000Y-52500000D03*
%TD*%
D18*
%TO.P,J4,1,Pin_1*%
%TO.N,/GND*%
X40170000Y-60750000D03*
D19*
%TO.P,J4,2,Pin_2*%
%TO.N,/3.3V*%
X40170000Y-63290000D03*
%TO.P,J4,3,Pin_3*%
%TO.N,/SDA*%
X40170000Y-65830000D03*
%TO.P,J4,4,Pin_4*%
%TO.N,/SCL*%
X40170000Y-68370000D03*
%TO.P,J4,5,Pin_5*%
%TO.N,unconnected-(J4-Pin_5-Pad5)*%
X40170000Y-70910000D03*
%TO.P,J4,6,Pin_6*%
%TO.N,unconnected-(J4-Pin_6-Pad6)*%
X40170000Y-73450000D03*
%TO.P,J4,7,Pin_7*%
%TO.N,/GND*%
X63030000Y-60750000D03*
%TO.P,J4,8,Pin_8*%
%TO.N,unconnected-(J4-Pin_8-Pad8)*%
X63030000Y-63290000D03*
%TO.P,J4,9,Pin_9*%
%TO.N,unconnected-(J4-Pin_9-Pad9)*%
X63030000Y-65830000D03*
%TO.P,J4,10,Pin_10*%
%TO.N,unconnected-(J4-Pin_10-Pad10)*%
X63030000Y-68370000D03*
%TO.P,J4,11,Pin_11*%
%TO.N,unconnected-(J4-Pin_11-Pad11)*%
X63030000Y-70910000D03*
%TO.P,J4,12,Pin_12*%
%TO.N,/5V*%
X63030000Y-73450000D03*
%TD*%
D10*
%TO.P,J6,1,Pin_1*%
%TO.N,/5V*%
X68500000Y-65750000D03*
D11*
%TO.P,J6,2,Pin_2*%
%TO.N,/Ultrasonic_1_TRIG*%
X71040000Y-65750000D03*
%TO.P,J6,3,Pin_3*%
%TO.N,/Ultrasonic_1_ECHO*%
X73580000Y-65750000D03*
%TO.P,J6,4,Pin_4*%
%TO.N,/GND*%
X76120000Y-65750000D03*
%TD*%
D10*
%TO.P,J2,1,Pin_1*%
%TO.N,/SDA*%
X47880000Y-64000000D03*
D11*
%TO.P,J2,2,Pin_2*%
%TO.N,/SCL*%
X50420000Y-64000000D03*
%TO.P,J2,3,Pin_3*%
%TO.N,/GND*%
X52960000Y-64000000D03*
%TO.P,J2,4,Pin_4*%
%TO.N,/5V*%
X55500000Y-64000000D03*
%TD*%
D16*
%TO.P,A1,1,TX1*%
%TO.N,unconnected-(A1-TX1-Pad1)*%
X21760000Y-37520000D03*
D20*
%TO.P,A1,2,RX1*%
%TO.N,unconnected-(A1-RX1-Pad2)*%
X21760000Y-40060000D03*
%TO.P,A1,3,~{RESET}*%
%TO.N,unconnected-(A1-~{RESET}-Pad3)*%
X21760000Y-42600000D03*
%TO.P,A1,4,GND*%
%TO.N,/GND*%
X21760000Y-45140000D03*
%TO.P,A1,5,D2*%
%TO.N,/Ultrasonic_1_TRIG*%
X21760000Y-47680000D03*
%TO.P,A1,6,D3*%
%TO.N,/Ultrasonic_1_ECHO*%
X21760000Y-50220000D03*
%TO.P,A1,7,D4*%
%TO.N,/Ultrasonic_2_TRIG*%
X21760000Y-52760000D03*
%TO.P,A1,8,D5*%
%TO.N,/Ultrasonic_2_ECHO*%
X21760000Y-55300000D03*
%TO.P,A1,9,D6*%
%TO.N,/Ultrasonic_3_TRIG*%
X21760000Y-57840000D03*
%TO.P,A1,10,D7*%
%TO.N,/Ultrasonic_3_ECHO*%
X21760000Y-60380000D03*
%TO.P,A1,11,D8*%
%TO.N,unconnected-(A1-D8-Pad11)*%
X21760000Y-62920000D03*
%TO.P,A1,12,D9*%
%TO.N,unconnected-(A1-D9-Pad12)*%
X21760000Y-65460000D03*
%TO.P,A1,13,D10*%
%TO.N,/CS*%
X21760000Y-68000000D03*
%TO.P,A1,14,MOSI*%
%TO.N,/DI {slash} MOSI*%
X21760000Y-70540000D03*
%TO.P,A1,15,MISO*%
%TO.N,/DO {slash} MISO*%
X21760000Y-73080000D03*
%TO.P,A1,16,SCK*%
%TO.N,/CLK {slash} SCK*%
X37000000Y-73080000D03*
%TO.P,A1,17,3V3*%
%TO.N,/3.3V*%
X37000000Y-70540000D03*
%TO.P,A1,18,AREF*%
%TO.N,unconnected-(A1-AREF-Pad18)*%
X37000000Y-68000000D03*
%TO.P,A1,19,A0*%
%TO.N,unconnected-(A1-A0-Pad19)*%
X37000000Y-65460000D03*
%TO.P,A1,20,A1*%
%TO.N,unconnected-(A1-A1-Pad20)*%
X37000000Y-62920000D03*
%TO.P,A1,21,A2*%
%TO.N,unconnected-(A1-A2-Pad21)*%
X37000000Y-60380000D03*
%TO.P,A1,22,A3*%
%TO.N,unconnected-(A1-A3-Pad22)*%
X37000000Y-57840000D03*
%TO.P,A1,23,SDA/A4*%
%TO.N,/SDA*%
X37000000Y-55300000D03*
%TO.P,A1,24,SCL/A5*%
%TO.N,/SCL*%
X37000000Y-52760000D03*
%TO.P,A1,25,A6*%
%TO.N,/SW_18020P*%
X37000000Y-50220000D03*
%TO.P,A1,26,A7*%
%TO.N,unconnected-(A1-A7-Pad26)*%
X37000000Y-47680000D03*
%TO.P,A1,27,+5V*%
%TO.N,/5V*%
X37000000Y-45140000D03*
%TO.P,A1,28,~{RESET}*%
%TO.N,unconnected-(A1-~{RESET}-Pad28)*%
X37000000Y-42600000D03*
%TO.P,A1,29,GND*%
%TO.N,/GND*%
X37000000Y-40060000D03*
%TO.P,A1,30,VIN*%
%TO.N,/VIN*%
X37000000Y-37520000D03*
%TD*%
D21*
%TO.N,/Ultrasonic_1_TRIG*%
X25604000Y-72835600D02*
X25604000Y-51524000D01*
X25604000Y-51524000D02*
X21760000Y-47680000D01*
X71040000Y-65750000D02*
X71040000Y-69124500D01*
X63171500Y-76993000D02*
X29761400Y-76993000D01*
X29761400Y-76993000D02*
X25604000Y-72835600D01*
X71040000Y-69124500D02*
X63171500Y-76993000D01*
%TO.N,/Ultrasonic_2_ECHO*%
X75333900Y-69696000D02*
X72169800Y-69696000D01*
X73580000Y-58125000D02*
X78196000Y-62741000D01*
X78196000Y-62741000D02*
X78196000Y-66833900D01*
X24401000Y-57941000D02*
X21760000Y-55300000D01*
X63669800Y-78196000D02*
X29263100Y-78196000D01*
X29263100Y-78196000D02*
X24401000Y-73333900D01*
X78196000Y-66833900D02*
X75333900Y-69696000D01*
X72169800Y-69696000D02*
X63669800Y-78196000D01*
X24401000Y-73333900D02*
X24401000Y-57941000D01*
%TO.N,/SW_18020P*%
X37000000Y-50220000D02*
X41220000Y-50220000D01*
X46500000Y-55500000D02*
X55000000Y-55500000D01*
X41220000Y-50220000D02*
X46500000Y-55500000D01*
X55000000Y-55500000D02*
X58000000Y-52500000D01*
%TO.N,/Ultrasonic_3_ECHO*%
X28930900Y-78998000D02*
X23599000Y-73666100D01*
X64002000Y-78998000D02*
X28930900Y-78998000D01*
X23599000Y-62219000D02*
X21760000Y-60380000D01*
X73580000Y-50500000D02*
X78998000Y-55918000D01*
X72502000Y-70498000D02*
X64002000Y-78998000D01*
X23599000Y-73666100D02*
X23599000Y-62219000D01*
X75666100Y-70498000D02*
X72502000Y-70498000D01*
X78998000Y-67166100D02*
X75666100Y-70498000D01*
X78998000Y-55918000D02*
X78998000Y-67166100D01*
D22*
%TO.N,/GND*%
X31920000Y-45140000D02*
X37000000Y-40060000D01*
X21760000Y-45140000D02*
X31920000Y-45140000D01*
D21*
%TO.N,/SDA*%
X37000000Y-55300000D02*
X38500000Y-56800000D01*
X50420000Y-68670000D02*
X47880000Y-66130000D01*
X47880000Y-66130000D02*
X47880000Y-64000000D01*
X38500000Y-56800000D02*
X38500000Y-64160000D01*
X50420000Y-71625000D02*
X50420000Y-68670000D01*
X42000000Y-64000000D02*
X40170000Y-65830000D01*
X47880000Y-64000000D02*
X42000000Y-64000000D01*
X38500000Y-64160000D02*
X40170000Y-65830000D01*
%TO.N,/Ultrasonic_3_TRIG*%
X78597000Y-58057000D02*
X71040000Y-50500000D01*
X72335900Y-70097000D02*
X75500000Y-70097000D01*
X75500000Y-70097000D02*
X78597000Y-67000000D01*
X29097000Y-78597000D02*
X63835900Y-78597000D01*
X63835900Y-78597000D02*
X72335900Y-70097000D01*
X78597000Y-67000000D02*
X78597000Y-58057000D01*
X24000000Y-60080000D02*
X24000000Y-73500000D01*
X24000000Y-73500000D02*
X29097000Y-78597000D01*
X21760000Y-57840000D02*
X24000000Y-60080000D01*
%TO.N,/Ultrasonic_1_ECHO*%
X73580000Y-67151600D02*
X63337600Y-77394000D01*
X73580000Y-65750000D02*
X73580000Y-67151600D01*
X29595300Y-77394000D02*
X63337600Y-77394000D01*
X21760000Y-50220000D02*
X25203000Y-53663000D01*
X25203000Y-73001700D02*
X29595300Y-77394000D01*
X25203000Y-53663000D02*
X25203000Y-73001700D01*
%TO.N,/SCL*%
X71000000Y-40580000D02*
X74900000Y-36680000D01*
X40920000Y-54500000D02*
X50420000Y-64000000D01*
X71000000Y-43420000D02*
X71000000Y-40580000D01*
X50420000Y-64000000D02*
X71000000Y-43420000D01*
X38740000Y-54500000D02*
X40920000Y-54500000D01*
X37000000Y-52760000D02*
X38740000Y-54500000D01*
%TO.N,/Ultrasonic_2_TRIG*%
X77795000Y-64880000D02*
X77795000Y-66667800D01*
X71040000Y-58125000D02*
X77795000Y-64880000D01*
X24802000Y-73167800D02*
X24802000Y-55802000D01*
X29429200Y-77795000D02*
X24802000Y-73167800D01*
X63503700Y-77795000D02*
X29429200Y-77795000D01*
X24802000Y-55802000D02*
X21760000Y-52760000D01*
X77795000Y-66667800D02*
X75167800Y-69295000D01*
X75167800Y-69295000D02*
X72003700Y-69295000D01*
X72003700Y-69295000D02*
X63503700Y-77795000D01*
%TD*%
%TA.AperFunction,Conductor*%
%TO.N,/5V*%
G36*
X79442539Y-20520185D02*
G01*
X79488294Y-20572989D01*
X79499500Y-20624500D01*
X79499500Y-55270903D01*
X79479815Y-55337942D01*
X79427011Y-55383697D01*
X79357853Y-55393641D01*
X79294297Y-55364616D01*
X79287819Y-55358584D01*
X76141416Y-52212181D01*
X76107931Y-52150858D01*
X76112915Y-52081166D01*
X76154787Y-52025233D01*
X76220251Y-52000816D01*
X76229097Y-52000500D01*
X76238097Y-52000500D01*
X76471368Y-51963553D01*
X76527292Y-51945382D01*
X76695992Y-51890568D01*
X76906433Y-51783343D01*
X77097510Y-51644517D01*
X77264517Y-51477510D01*
X77403343Y-51286433D01*
X77510568Y-51075992D01*
X77583553Y-50851368D01*
X77604483Y-50719223D01*
X77620500Y-50618097D01*
X77620500Y-50381902D01*
X77583553Y-50148631D01*
X77546331Y-50034075D01*
X77510568Y-49924008D01*
X77510566Y-49924005D01*
X77510566Y-49924003D01*
X77417339Y-49741036D01*
X77403343Y-49713567D01*
X77264517Y-49522490D01*
X77097510Y-49355483D01*
X76906433Y-49216657D01*
X76865611Y-49195857D01*
X76695996Y-49109433D01*
X76471368Y-49036446D01*
X76238097Y-48999500D01*
X76238092Y-48999500D01*
X76001908Y-48999500D01*
X76001903Y-48999500D01*
X75768631Y-49036446D01*
X75544003Y-49109433D01*
X75333566Y-49216657D01*
X75224550Y-49295862D01*
X75142490Y-49355483D01*
X75142488Y-49355485D01*
X75142487Y-49355485D01*
X74975484Y-49522488D01*
X74963934Y-49538386D01*
X74954192Y-49551795D01*
X74950318Y-49557127D01*
X74894987Y-49599792D01*
X74825374Y-49605771D01*
X74763579Y-49573165D01*
X74749682Y-49557127D01*
X74724517Y-49522490D01*
X74557510Y-49355483D01*
X74366433Y-49216657D01*
X74325611Y-49195857D01*
X74155996Y-49109433D01*
X73931368Y-49036446D01*
X73698097Y-48999500D01*
X73698092Y-48999500D01*
X73461908Y-48999500D01*
X73461903Y-48999500D01*
X73228631Y-49036446D01*
X73004003Y-49109433D01*
X72793566Y-49216657D01*
X72684550Y-49295862D01*
X72602490Y-49355483D01*
X72602488Y-49355485D01*
X72602487Y-49355485D01*
X72435484Y-49522488D01*
X72423934Y-49538386D01*
X72414192Y-49551795D01*
X72410318Y-49557127D01*
X72354987Y-49599792D01*
X72285374Y-49605771D01*
X72223579Y-49573165D01*
X72209682Y-49557127D01*
X72184517Y-49522490D01*
X72017510Y-49355483D01*
X71826433Y-49216657D01*
X71785611Y-49195857D01*
X71615996Y-49109433D01*
X71391368Y-49036446D01*
X71158097Y-48999500D01*
X71158092Y-48999500D01*
X70921908Y-48999500D01*
X70921903Y-48999500D01*
X70688631Y-49036446D01*
X70464003Y-49109433D01*
X70253566Y-49216657D01*
X70129422Y-49306854D01*
X70063615Y-49330334D01*
X69995561Y-49314509D01*
X69947942Y-49265510D01*
X69947604Y-49265696D01*
X69946938Y-49264478D01*
X69946866Y-49264403D01*
X69946719Y-49264076D01*
X69943350Y-49257906D01*
X69857190Y-49142812D01*
X69857187Y-49142809D01*
X69742093Y-49056649D01*
X69742086Y-49056645D01*
X69607379Y-49006403D01*
X69607372Y-49006401D01*
X69547844Y-49000000D01*
X68750000Y-49000000D01*
X68750000Y-50066988D01*
X68692993Y-50034075D01*
X68565826Y-50000000D01*
X68434174Y-50000000D01*
X68307007Y-50034075D01*
X68250000Y-50066988D01*
X68250000Y-49000000D01*
X67452155Y-49000000D01*
X67392627Y-49006401D01*
X67392620Y-49006403D01*
X67257913Y-49056645D01*
X67257906Y-49056649D01*
X67142812Y-49142809D01*
X67142809Y-49142812D01*
X67056649Y-49257906D01*
X67056645Y-49257913D01*
X67006403Y-49392620D01*
X67006401Y-49392627D01*
X67000000Y-49452155D01*
X67000000Y-50250000D01*
X68066988Y-50250000D01*
X68034075Y-50307007D01*
X68000000Y-50434174D01*
X68000000Y-50565826D01*
X68034075Y-50692993D01*
X68066988Y-50750000D01*
X67000000Y-50750000D01*
X67000000Y-51547844D01*
X67006401Y-51607372D01*
X67006403Y-51607379D01*
X67056645Y-51742086D01*
X67056649Y-51742093D01*
X67142809Y-51857187D01*
X67142812Y-51857190D01*
X67257906Y-51943350D01*
X67257913Y-51943354D01*
X67392620Y-51993596D01*
X67392627Y-51993598D01*
X67452155Y-51999999D01*
X67452172Y-52000000D01*
X68250000Y-52000000D01*
X68250000Y-50933012D01*
X68307007Y-50965925D01*
X68434174Y-51000000D01*
X68565826Y-51000000D01*
X68692993Y-50965925D01*
X68750000Y-50933012D01*
X68750000Y-52000000D01*
X69547828Y-52000000D01*
X69547844Y-51999999D01*
X69607372Y-51993598D01*
X69607379Y-51993596D01*
X69742086Y-51943354D01*
X69742093Y-51943350D01*
X69857187Y-51857190D01*
X69857190Y-51857187D01*
X69943350Y-51742093D01*
X69947604Y-51734304D01*
X69950883Y-51736094D01*
X69982118Y-51694276D01*
X70047556Y-51669789D01*
X70115845Y-51684566D01*
X70129410Y-51693137D01*
X70253567Y-51783343D01*
X70281821Y-51797739D01*
X70464003Y-51890566D01*
X70464005Y-51890566D01*
X70464008Y-51890568D01*
X70564476Y-51923212D01*
X70688631Y-51963553D01*
X70921903Y-52000500D01*
X70921908Y-52000500D01*
X71158097Y-52000500D01*
X71264126Y-51983705D01*
X71391368Y-51963553D01*
X71517566Y-51922547D01*
X71587404Y-51920553D01*
X71643563Y-51952798D01*
X76103584Y-56412819D01*
X76137069Y-56474142D01*
X76132085Y-56543834D01*
X76090213Y-56599767D01*
X76024749Y-56624184D01*
X76015903Y-56624500D01*
X76001903Y-56624500D01*
X75768631Y-56661446D01*
X75544003Y-56734433D01*
X75333566Y-56841657D01*
X75263911Y-56892265D01*
X75142490Y-56980483D01*
X75142488Y-56980485D01*
X75142487Y-56980485D01*
X74975484Y-57147488D01*
X74950318Y-57182127D01*
X74894987Y-57224792D01*
X74825374Y-57230771D01*
X74763579Y-57198165D01*
X74749682Y-57182127D01*
X74732433Y-57158386D01*
X74724517Y-57147490D01*
X74557510Y-56980483D01*
X74366433Y-56841657D01*
X74155996Y-56734433D01*
X73931368Y-56661446D01*
X73698097Y-56624500D01*
X73698092Y-56624500D01*
X73461908Y-56624500D01*
X73461903Y-56624500D01*
X73228631Y-56661446D01*
X73004003Y-56734433D01*
X72793566Y-56841657D01*
X72723911Y-56892265D01*
X72602490Y-56980483D01*
X72602488Y-56980485D01*
X72602487Y-56980485D01*
X72435484Y-57147488D01*
X72410318Y-57182127D01*
X72354987Y-57224792D01*
X72285374Y-57230771D01*
X72223579Y-57198165D01*
X72209682Y-57182127D01*
X72192433Y-57158386D01*
X72184517Y-57147490D01*
X72017510Y-56980483D01*
X71826433Y-56841657D01*
X71615996Y-56734433D01*
X71391368Y-56661446D01*
X71158097Y-56624500D01*
X71158092Y-56624500D01*
X70921908Y-56624500D01*
X70921903Y-56624500D01*
X70688631Y-56661446D01*
X70464003Y-56734433D01*
X70253566Y-56841657D01*
X70129422Y-56931854D01*
X70063615Y-56955334D01*
X69995561Y-56939509D01*
X69947942Y-56890510D01*
X69947604Y-56890696D01*
X69946938Y-56889478D01*
X69946866Y-56889403D01*
X69946719Y-56889076D01*
X69943350Y-56882906D01*
X69857190Y-56767812D01*
X69857187Y-56767809D01*
X69742093Y-56681649D01*
X69742086Y-56681645D01*
X69607379Y-56631403D01*
X69607372Y-56631401D01*
X69547844Y-56625000D01*
X68750000Y-56625000D01*
X68750000Y-57691988D01*
X68692993Y-57659075D01*
X68565826Y-57625000D01*
X68434174Y-57625000D01*
X68307007Y-57659075D01*
X68250000Y-57691988D01*
X68250000Y-56625000D01*
X67452155Y-56625000D01*
X67392627Y-56631401D01*
X67392620Y-56631403D01*
X67257913Y-56681645D01*
X67257906Y-56681649D01*
X67142812Y-56767809D01*
X67142809Y-56767812D01*
X67056649Y-56882906D01*
X67056645Y-56882913D01*
X67006403Y-57017620D01*
X67006401Y-57017627D01*
X67000000Y-57077155D01*
X67000000Y-57875000D01*
X68066988Y-57875000D01*
X68034075Y-57932007D01*
X68000000Y-58059174D01*
X68000000Y-58190826D01*
X68034075Y-58317993D01*
X68066988Y-58375000D01*
X67000000Y-58375000D01*
X67000000Y-59172844D01*
X67006401Y-59232372D01*
X67006403Y-59232379D01*
X67056645Y-59367086D01*
X67056649Y-59367093D01*
X67142809Y-59482187D01*
X67142812Y-59482190D01*
X67257906Y-59568350D01*
X67257913Y-59568354D01*
X67392620Y-59618596D01*
X67392627Y-59618598D01*
X67452155Y-59624999D01*
X67452172Y-59625000D01*
X68250000Y-59625000D01*
X68250000Y-58558012D01*
X68307007Y-58590925D01*
X68434174Y-58625000D01*
X68565826Y-58625000D01*
X68692993Y-58590925D01*
X68750000Y-58558012D01*
X68750000Y-59625000D01*
X69547828Y-59625000D01*
X69547844Y-59624999D01*
X69607372Y-59618598D01*
X69607379Y-59618596D01*
X69742086Y-59568354D01*
X69742093Y-59568350D01*
X69857187Y-59482190D01*
X69857190Y-59482187D01*
X69943350Y-59367093D01*
X69947604Y-59359304D01*
X69950883Y-59361094D01*
X69982118Y-59319276D01*
X70047556Y-59294789D01*
X70115845Y-59309566D01*
X70129410Y-59318137D01*
X70253567Y-59408343D01*
X70316316Y-59440315D01*
X70464003Y-59515566D01*
X70464005Y-59515566D01*
X70464008Y-59515568D01*
X70556292Y-59545553D01*
X70688631Y-59588553D01*
X70921903Y-59625500D01*
X70921908Y-59625500D01*
X71158097Y-59625500D01*
X71266689Y-59608300D01*
X71391368Y-59588553D01*
X71517566Y-59547547D01*
X71587404Y-59545553D01*
X71643563Y-59577798D01*
X76103584Y-64037819D01*
X76137069Y-64099142D01*
X76132085Y-64168834D01*
X76090213Y-64224767D01*
X76024749Y-64249184D01*
X76015903Y-64249500D01*
X76001903Y-64249500D01*
X75768631Y-64286446D01*
X75544003Y-64359433D01*
X75333566Y-64466657D01*
X75249459Y-64527765D01*
X75142490Y-64605483D01*
X75142488Y-64605485D01*
X75142487Y-64605485D01*
X74975484Y-64772488D01*
X74950318Y-64807127D01*
X74894987Y-64849792D01*
X74825374Y-64855771D01*
X74763579Y-64823165D01*
X74749682Y-64807127D01*
X74747990Y-64804798D01*
X74724517Y-64772490D01*
X74557510Y-64605483D01*
X74366433Y-64466657D01*
X74352742Y-64459681D01*
X74155996Y-64359433D01*
X73931368Y-64286446D01*
X73698097Y-64249500D01*
X73698092Y-64249500D01*
X73461908Y-64249500D01*
X73461903Y-64249500D01*
X73228631Y-64286446D01*
X73004003Y-64359433D01*
X72793566Y-64466657D01*
X72709459Y-64527765D01*
X72602490Y-64605483D01*
X72602488Y-64605485D01*
X72602487Y-64605485D01*
X72435484Y-64772488D01*
X72410318Y-64807127D01*
X72354987Y-64849792D01*
X72285374Y-64855771D01*
X72223579Y-64823165D01*
X72209682Y-64807127D01*
X72207990Y-64804798D01*
X72184517Y-64772490D01*
X72017510Y-64605483D01*
X71826433Y-64466657D01*
X71812742Y-64459681D01*
X71615996Y-64359433D01*
X71391368Y-64286446D01*
X71158097Y-64249500D01*
X71158092Y-64249500D01*
X70921908Y-64249500D01*
X70921903Y-64249500D01*
X70688631Y-64286446D01*
X70464003Y-64359433D01*
X70253566Y-64466657D01*
X70129422Y-64556854D01*
X70063615Y-64580334D01*
X69995561Y-64564509D01*
X69947942Y-64515510D01*
X69947604Y-64515696D01*
X69946938Y-64514478D01*
X69946866Y-64514403D01*
X69946719Y-64514076D01*
X69943350Y-64507906D01*
X69857190Y-64392812D01*
X69857187Y-64392809D01*
X69742093Y-64306649D01*
X69742086Y-64306645D01*
X69607379Y-64256403D01*
X69607372Y-64256401D01*
X69547844Y-64250000D01*
X68750000Y-64250000D01*
X68750000Y-65316988D01*
X68692993Y-65284075D01*
X68565826Y-65250000D01*
X68434174Y-65250000D01*
X68307007Y-65284075D01*
X68250000Y-65316988D01*
X68250000Y-64250000D01*
X67452155Y-64250000D01*
X67392627Y-64256401D01*
X67392620Y-64256403D01*
X67257913Y-64306645D01*
X67257906Y-64306649D01*
X67142812Y-64392809D01*
X67142809Y-64392812D01*
X67056649Y-64507906D01*
X67056645Y-64507913D01*
X67006403Y-64642620D01*
X67006401Y-64642627D01*
X67000000Y-64702155D01*
X67000000Y-65500000D01*
X68066988Y-65500000D01*
X68034075Y-65557007D01*
X68000000Y-65684174D01*
X68000000Y-65815826D01*
X68034075Y-65942993D01*
X68066988Y-66000000D01*
X67000000Y-66000000D01*
X67000000Y-66797844D01*
X67006401Y-66857372D01*
X67006403Y-66857379D01*
X67056645Y-66992086D01*
X67056649Y-66992093D01*
X67142809Y-67107187D01*
X67142812Y-67107190D01*
X67257906Y-67193350D01*
X67257913Y-67193354D01*
X67392620Y-67243596D01*
X67392627Y-67243598D01*
X67452155Y-67249999D01*
X67452172Y-67250000D01*
X68250000Y-67250000D01*
X68250000Y-66183012D01*
X68307007Y-66215925D01*
X68434174Y-66250000D01*
X68565826Y-66250000D01*
X68692993Y-66215925D01*
X68750000Y-66183012D01*
X68750000Y-67250000D01*
X69547828Y-67250000D01*
X69547844Y-67249999D01*
X69607372Y-67243598D01*
X69607379Y-67243596D01*
X69742086Y-67193354D01*
X69742093Y-67193350D01*
X69857187Y-67107190D01*
X69857190Y-67107187D01*
X69943350Y-66992093D01*
X69947604Y-66984304D01*
X69950883Y-66986094D01*
X69982118Y-66944276D01*
X70047556Y-66919789D01*
X70115845Y-66934566D01*
X70129410Y-66943137D01*
X70207237Y-66999682D01*
X70253568Y-67033344D01*
X70290303Y-67052061D01*
X70371794Y-67093582D01*
X70422590Y-67141556D01*
X70439500Y-67204067D01*
X70439500Y-68824403D01*
X70419815Y-68891442D01*
X70403181Y-68912084D01*
X62959084Y-76356181D01*
X62897761Y-76389666D01*
X62871403Y-76392500D01*
X30061497Y-76392500D01*
X29994458Y-76372815D01*
X29973816Y-76356181D01*
X26240819Y-72623184D01*
X26207334Y-72561861D01*
X26204500Y-72535503D01*
X26204500Y-51613059D01*
X26204501Y-51613046D01*
X26204501Y-51444945D01*
X26204501Y-51444943D01*
X26163577Y-51292215D01*
X26110048Y-51199501D01*
X26084520Y-51155284D01*
X25972716Y-51043480D01*
X25972713Y-51043478D01*
X23054077Y-48124842D01*
X23020592Y-48063519D01*
X23023828Y-47998841D01*
X23028477Y-47984534D01*
X23060500Y-47782352D01*
X23060500Y-47577648D01*
X23028477Y-47375466D01*
X23027814Y-47373427D01*
X22965218Y-47180776D01*
X22877309Y-47008247D01*
X22872287Y-46998390D01*
X22826179Y-46934927D01*
X22751971Y-46832786D01*
X22607213Y-46688028D01*
X22441614Y-46567715D01*
X22435006Y-46564348D01*
X22348917Y-46520483D01*
X22298123Y-46472511D01*
X22281328Y-46404690D01*
X22303865Y-46338555D01*
X22348917Y-46299516D01*
X22441610Y-46252287D01*
X22550889Y-46172892D01*
X22607213Y-46131971D01*
X22607215Y-46131968D01*
X22607219Y-46131966D01*
X22751966Y-45987219D01*
X22751972Y-45987210D01*
X22754748Y-45983962D01*
X22813258Y-45945773D01*
X22849033Y-45940500D01*
X31998844Y-45940500D01*
X31998845Y-45940499D01*
X32153497Y-45909737D01*
X32299179Y-45849394D01*
X32430289Y-45761789D01*
X35498736Y-42693340D01*
X35560057Y-42659857D01*
X35629749Y-42664841D01*
X35685682Y-42706713D01*
X35708888Y-42761625D01*
X35731522Y-42904534D01*
X35794781Y-43099223D01*
X35849994Y-43207583D01*
X35884877Y-43276045D01*
X35887715Y-43281613D01*
X36008028Y-43447213D01*
X36152786Y-43591971D01*
X36304099Y-43701904D01*
X36318390Y-43712287D01*
X36390424Y-43748990D01*
X36411629Y-43759795D01*
X36462425Y-43807770D01*
X36479220Y-43875591D01*
X36456682Y-43941726D01*
X36411629Y-43980765D01*
X36318650Y-44028140D01*
X36153105Y-44148417D01*
X36153104Y-44148417D01*
X36008417Y-44293104D01*
X36008417Y-44293105D01*
X35888140Y-44458650D01*
X35795244Y-44640970D01*
X35732009Y-44835586D01*
X35723391Y-44890000D01*
X36566988Y-44890000D01*
X36534075Y-44947007D01*
X36500000Y-45074174D01*
X36500000Y-45205826D01*
X36534075Y-45332993D01*
X36566988Y-45390000D01*
X35723391Y-45390000D01*
X35732009Y-45444413D01*
X35795244Y-45639029D01*
X35888140Y-45821349D01*
X36008417Y-45986894D01*
X36008417Y-45986895D01*
X36153104Y-46131582D01*
X36318652Y-46251861D01*
X36411628Y-46299234D01*
X36462425Y-46347208D01*
X36479220Y-46415029D01*
X36456683Y-46481164D01*
X36411630Y-46520203D01*
X36318388Y-46567713D01*
X36152786Y-46688028D01*
X36008028Y-46832786D01*
X35887715Y-46998386D01*
X35794781Y-47180776D01*
X35731522Y-47375465D01*
X35699500Y-47577648D01*
X35699500Y-47782351D01*
X35731522Y-47984534D01*
X35794781Y-48179223D01*
X35855596Y-48298577D01*
X35881222Y-48348871D01*
X35887715Y-48361613D01*
X36008028Y-48527213D01*
X36152786Y-48671971D01*
X36307749Y-48784556D01*
X36318390Y-48792287D01*
X36409840Y-48838883D01*
X36411080Y-48839515D01*
X36461876Y-48887490D01*
X36478671Y-48955311D01*
X36456134Y-49021446D01*
X36411080Y-49060485D01*
X36318386Y-49107715D01*
X36152786Y-49228028D01*
X36008028Y-49372786D01*
X35887715Y-49538386D01*
X35794781Y-49720776D01*
X35731522Y-49915465D01*
X35699500Y-50117648D01*
X35699500Y-50322351D01*
X35731522Y-50524534D01*
X35794781Y-50719223D01*
X35838051Y-50804143D01*
X35886943Y-50900099D01*
X35887715Y-50901613D01*
X36008028Y-51067213D01*
X36152786Y-51211971D01*
X36270410Y-51297428D01*
X36318390Y-51332287D01*
X36409840Y-51378883D01*
X36411080Y-51379515D01*
X36461876Y-51427490D01*
X36478671Y-51495311D01*
X36456134Y-51561446D01*
X36411080Y-51600485D01*
X36318386Y-51647715D01*
X36152786Y-51768028D01*
X36008028Y-51912786D01*
X35887715Y-52078386D01*
X35794781Y-52260776D01*
X35731522Y-52455465D01*
X35699500Y-52657648D01*
X35699500Y-52862351D01*
X35731522Y-53064534D01*
X35794781Y-53259223D01*
X35858691Y-53384653D01*
X35887520Y-53441232D01*
X35887715Y-53441613D01*
X36008028Y-53607213D01*
X36152786Y-53751971D01*
X36305857Y-53863181D01*
X36318390Y-53872287D01*
X36395811Y-53911735D01*
X36411080Y-53919515D01*
X36461876Y-53967490D01*
X36478671Y-54035311D01*
X36456134Y-54101446D01*
X36411080Y-54140485D01*
X36318386Y-54187715D01*
X36152786Y-54308028D01*
X36008028Y-54452786D01*
X35887715Y-54618386D01*
X35794781Y-54800776D01*
X35731522Y-54995465D01*
X35699500Y-55197648D01*
X35699500Y-55402351D01*
X35731522Y-55604534D01*
X35794781Y-55799223D01*
X35858691Y-55924653D01*
X35887157Y-55980519D01*
X35887715Y-55981613D01*
X36008028Y-56147213D01*
X36152786Y-56291971D01*
X36307749Y-56404556D01*
X36318390Y-56412287D01*
X36409840Y-56458883D01*
X36411080Y-56459515D01*
X36461876Y-56507490D01*
X36478671Y-56575311D01*
X36456134Y-56641446D01*
X36411080Y-56680485D01*
X36318386Y-56727715D01*
X36152786Y-56848028D01*
X36008028Y-56992786D01*
X35887715Y-57158386D01*
X35794781Y-57340776D01*
X35731522Y-57535465D01*
X35699500Y-57737648D01*
X35699500Y-57942351D01*
X35731522Y-58144534D01*
X35794781Y-58339223D01*
X35887715Y-58521613D01*
X36008028Y-58687213D01*
X36152786Y-58831971D01*
X36307749Y-58944556D01*
X36318390Y-58952287D01*
X36409840Y-58998883D01*
X36411080Y-58999515D01*
X36461876Y-59047490D01*
X36478671Y-59115311D01*
X36456134Y-59181446D01*
X36411080Y-59220485D01*
X36318386Y-59267715D01*
X36152786Y-59388028D01*
X36008028Y-59532786D01*
X35887715Y-59698386D01*
X35794781Y-59880776D01*
X35731522Y-60075465D01*
X35699500Y-60277648D01*
X35699500Y-60482351D01*
X35731522Y-60684534D01*
X35794781Y-60879223D01*
X35887715Y-61061613D01*
X36008028Y-61227213D01*
X36152786Y-61371971D01*
X36273869Y-61459941D01*
X36318390Y-61492287D01*
X36409840Y-61538883D01*
X36411080Y-61539515D01*
X36461876Y-61587490D01*
X36478671Y-61655311D01*
X36456134Y-61721446D01*
X36411080Y-61760485D01*
X36318386Y-61807715D01*
X36152786Y-61928028D01*
X36008028Y-62072786D01*
X35887715Y-62238386D01*
X35794781Y-62420776D01*
X35731522Y-62615465D01*
X35699500Y-62817648D01*
X35699500Y-63022351D01*
X35731522Y-63224534D01*
X35794781Y-63419223D01*
X35852195Y-63531902D01*
X35886842Y-63599901D01*
X35887715Y-63601613D01*
X36008028Y-63767213D01*
X36152786Y-63911971D01*
X36273949Y-63999999D01*
X36318390Y-64032287D01*
X36384214Y-64065826D01*
X36411080Y-64079515D01*
X36461876Y-64127490D01*
X36478671Y-64195311D01*
X36456134Y-64261446D01*
X36411080Y-64300485D01*
X36318386Y-64347715D01*
X36152786Y-64468028D01*
X36008028Y-64612786D01*
X35887715Y-64778386D01*
X35794781Y-64960776D01*
X35731522Y-65155465D01*
X35700727Y-65349901D01*
X35699500Y-65357648D01*
X35699500Y-65562352D01*
X35703878Y-65589995D01*
X35731522Y-65764534D01*
X35794781Y-65959223D01*
X35887715Y-66141613D01*
X36008028Y-66307213D01*
X36152786Y-66451971D01*
X36294318Y-66554798D01*
X36318390Y-66572287D01*
X36407292Y-66617585D01*
X36411080Y-66619515D01*
X36461876Y-66667490D01*
X36478671Y-66735311D01*
X36456134Y-66801446D01*
X36411080Y-66840485D01*
X36318386Y-66887715D01*
X36152786Y-67008028D01*
X36008028Y-67152786D01*
X35887715Y-67318386D01*
X35794781Y-67500776D01*
X35731522Y-67695465D01*
X35699500Y-67897648D01*
X35699500Y-68102351D01*
X35731522Y-68304534D01*
X35794781Y-68499223D01*
X35841516Y-68590943D01*
X35875775Y-68658181D01*
X35887715Y-68681613D01*
X36008028Y-68847213D01*
X36152786Y-68991971D01*
X36307749Y-69104556D01*
X36318390Y-69112287D01*
X36409840Y-69158883D01*
X36411080Y-69159515D01*
X36461876Y-69207490D01*
X36478671Y-69275311D01*
X36456134Y-69341446D01*
X36411080Y-69380485D01*
X36318386Y-69427715D01*
X36152786Y-69548028D01*
X36008028Y-69692786D01*
X35887715Y-69858386D01*
X35794781Y-70040776D01*
X35731522Y-70235465D01*
X35705092Y-70402340D01*
X35699500Y-70437648D01*
X35699500Y-70642352D01*
X35700314Y-70647490D01*
X35731522Y-70844534D01*
X35794781Y-71039223D01*
X35887715Y-71221613D01*
X36008028Y-71387213D01*
X36152786Y-71531971D01*
X36280831Y-71624999D01*
X36318390Y-71652287D01*
X36394027Y-71690826D01*
X36411080Y-71699515D01*
X36461876Y-71747490D01*
X36478671Y-71815311D01*
X36456134Y-71881446D01*
X36411080Y-71920485D01*
X36318386Y-71967715D01*
X36152786Y-72088028D01*
X36008028Y-72232786D01*
X35887715Y-72398386D01*
X35794781Y-72580776D01*
X35731522Y-72775465D01*
X35699500Y-72977648D01*
X35699500Y-73182351D01*
X35731522Y-73384534D01*
X35794781Y-73579223D01*
X35887715Y-73761613D01*
X36008028Y-73927213D01*
X36152786Y-74071971D01*
X36265258Y-74153685D01*
X36318390Y-74192287D01*
X36434607Y-74251503D01*
X36500776Y-74285218D01*
X36500778Y-74285218D01*
X36500781Y-74285220D01*
X36605137Y-74319127D01*
X36695465Y-74348477D01*
X36796557Y-74364488D01*
X36897648Y-74380500D01*
X36897649Y-74380500D01*
X37102351Y-74380500D01*
X37102352Y-74380500D01*
X37304534Y-74348477D01*
X37499219Y-74285220D01*
X37681610Y-74192287D01*
X37774590Y-74124732D01*
X37847213Y-74071971D01*
X37847215Y-74071968D01*
X37847219Y-74071966D01*
X37991966Y-73927219D01*
X37991968Y-73927215D01*
X37991971Y-73927213D01*
X38050313Y-73846910D01*
X38112287Y-73761610D01*
X38205220Y-73579219D01*
X38268477Y-73384534D01*
X38300500Y-73182352D01*
X38300500Y-72977648D01*
X38283027Y-72867328D01*
X38268477Y-72775465D01*
X38235142Y-72672872D01*
X38205220Y-72580781D01*
X38205218Y-72580778D01*
X38205218Y-72580776D01*
X38163810Y-72499509D01*
X38112287Y-72398390D01*
X38078423Y-72351780D01*
X37991971Y-72232786D01*
X37847213Y-72088028D01*
X37681614Y-71967715D01*
X37675006Y-71964348D01*
X37588917Y-71920483D01*
X37538123Y-71872511D01*
X37521328Y-71804690D01*
X37543865Y-71738555D01*
X37588917Y-71699516D01*
X37681610Y-71652287D01*
X37719169Y-71624999D01*
X37847213Y-71531971D01*
X37847215Y-71531968D01*
X37847219Y-71531966D01*
X37991966Y-71387219D01*
X37991968Y-71387215D01*
X37991971Y-71387213D01*
X38076079Y-71271446D01*
X38112287Y-71221610D01*
X38205220Y-71039219D01*
X38268477Y-70844534D01*
X38300500Y-70642352D01*
X38300500Y-70437648D01*
X38273544Y-70267455D01*
X38268477Y-70235465D01*
X38205218Y-70040776D01*
X38170025Y-69971707D01*
X38112287Y-69858390D01*
X38050401Y-69773210D01*
X37991971Y-69692786D01*
X37847213Y-69548028D01*
X37681614Y-69427715D01*
X37675006Y-69424348D01*
X37588917Y-69380483D01*
X37538123Y-69332511D01*
X37521328Y-69264690D01*
X37543865Y-69198555D01*
X37588917Y-69159516D01*
X37681610Y-69112287D01*
X37702770Y-69096913D01*
X37847213Y-68991971D01*
X37847215Y-68991968D01*
X37847219Y-68991966D01*
X37991966Y-68847219D01*
X37991968Y-68847215D01*
X37991971Y-68847213D01*
X38071401Y-68737885D01*
X38112287Y-68681610D01*
X38205220Y-68499219D01*
X38268477Y-68304534D01*
X38300500Y-68102352D01*
X38300500Y-67897648D01*
X38275354Y-67738886D01*
X38268477Y-67695465D01*
X38238500Y-67603206D01*
X38205220Y-67500781D01*
X38205218Y-67500778D01*
X38205218Y-67500776D01*
X38152793Y-67397888D01*
X38112287Y-67318390D01*
X38078143Y-67271394D01*
X37991971Y-67152786D01*
X37847213Y-67008028D01*
X37681614Y-66887715D01*
X37622076Y-66857379D01*
X37588917Y-66840483D01*
X37538123Y-66792511D01*
X37521328Y-66724690D01*
X37543865Y-66658555D01*
X37588917Y-66619516D01*
X37681610Y-66572287D01*
X37730959Y-66536433D01*
X37847213Y-66451971D01*
X37847215Y-66451968D01*
X37847219Y-66451966D01*
X37991966Y-66307219D01*
X37991968Y-66307215D01*
X37991971Y-66307213D01*
X38071401Y-66197885D01*
X38112287Y-66141610D01*
X38205220Y-65959219D01*
X38268477Y-65764534D01*
X38300500Y-65562352D01*
X38300500Y-65357648D01*
X38268477Y-65155466D01*
X38246267Y-65087113D01*
X38244272Y-65017276D01*
X38280352Y-64957442D01*
X38343053Y-64926613D01*
X38412467Y-64934577D01*
X38451880Y-64961116D01*
X38764975Y-65274211D01*
X38798460Y-65335534D01*
X38795225Y-65400209D01*
X38765165Y-65492725D01*
X38743121Y-65631908D01*
X38729700Y-65716646D01*
X38729700Y-65943354D01*
X38738672Y-66000000D01*
X38765165Y-66167272D01*
X38835219Y-66382880D01*
X38835220Y-66382881D01*
X38835221Y-66382883D01*
X38922816Y-66554798D01*
X38938147Y-66584885D01*
X39071394Y-66768286D01*
X39071398Y-66768291D01*
X39231708Y-66928601D01*
X39231713Y-66928605D01*
X39329542Y-66999682D01*
X39372208Y-67055012D01*
X39378187Y-67124625D01*
X39345582Y-67186420D01*
X39329542Y-67200318D01*
X39231713Y-67271394D01*
X39231708Y-67271398D01*
X39071398Y-67431708D01*
X39071394Y-67431713D01*
X38938147Y-67615114D01*
X38835220Y-67817116D01*
X38835219Y-67817119D01*
X38765165Y-68032727D01*
X38754138Y-68102351D01*
X38729700Y-68256646D01*
X38729700Y-68483354D01*
X38740708Y-68552853D01*
X38765165Y-68707272D01*
X38835219Y-68922880D01*
X38835220Y-68922883D01*
X38938147Y-69124885D01*
X39071394Y-69308286D01*
X39071398Y-69308291D01*
X39231708Y-69468601D01*
X39231713Y-69468605D01*
X39329542Y-69539682D01*
X39372208Y-69595012D01*
X39378187Y-69664625D01*
X39345582Y-69726420D01*
X39329542Y-69740318D01*
X39231713Y-69811394D01*
X39231708Y-69811398D01*
X39071398Y-69971708D01*
X39071394Y-69971713D01*
X38938147Y-70155114D01*
X38835220Y-70357116D01*
X38835219Y-70357119D01*
X38765165Y-70572727D01*
X38738654Y-70740114D01*
X38729700Y-70796646D01*
X38729700Y-71023354D01*
X38738952Y-71081768D01*
X38765165Y-71247272D01*
X38835219Y-71462880D01*
X38835220Y-71462883D01*
X38938147Y-71664885D01*
X39071394Y-71848286D01*
X39071398Y-71848291D01*
X39231708Y-72008601D01*
X39231713Y-72008605D01*
X39329542Y-72079682D01*
X39372208Y-72135012D01*
X39378187Y-72204625D01*
X39345582Y-72266420D01*
X39329542Y-72280318D01*
X39231713Y-72351394D01*
X39231708Y-72351398D01*
X39071398Y-72511708D01*
X39071394Y-72511713D01*
X38938147Y-72695114D01*
X38835220Y-72897116D01*
X38835219Y-72897119D01*
X38765165Y-73112727D01*
X38742803Y-73253919D01*
X38729700Y-73336646D01*
X38729700Y-73563354D01*
X38733451Y-73587039D01*
X38765165Y-73787272D01*
X38835219Y-74002880D01*
X38835220Y-74002883D01*
X38870423Y-74071971D01*
X38938013Y-74204623D01*
X38938147Y-74204885D01*
X39071394Y-74388286D01*
X39071398Y-74388291D01*
X39231708Y-74548601D01*
X39231713Y-74548605D01*
X39391684Y-74664829D01*
X39415118Y-74681855D01*
X39547166Y-74749137D01*
X39617116Y-74784779D01*
X39617119Y-74784780D01*
X39724923Y-74819807D01*
X39832729Y-74854835D01*
X40056646Y-74890300D01*
X40056647Y-74890300D01*
X40283353Y-74890300D01*
X40283354Y-74890300D01*
X40507271Y-74854835D01*
X40722883Y-74784779D01*
X40924882Y-74681855D01*
X41108293Y-74548600D01*
X41268600Y-74388293D01*
X41401855Y-74204882D01*
X41504779Y-74002883D01*
X41574835Y-73787271D01*
X41610300Y-73563354D01*
X41610300Y-73336646D01*
X41574835Y-73112729D01*
X41519362Y-72942000D01*
X41504780Y-72897119D01*
X41504779Y-72897116D01*
X41460250Y-72809725D01*
X41401855Y-72695118D01*
X41342938Y-72614025D01*
X41268605Y-72511713D01*
X41268601Y-72511708D01*
X41108293Y-72351400D01*
X41057965Y-72314835D01*
X41010456Y-72280317D01*
X40967791Y-72224989D01*
X40961812Y-72155376D01*
X40994417Y-72093580D01*
X41010456Y-72079682D01*
X41108293Y-72008600D01*
X41268600Y-71848293D01*
X41401855Y-71664882D01*
X41504779Y-71462883D01*
X41574835Y-71247271D01*
X41610300Y-71023354D01*
X41610300Y-70796646D01*
X41574835Y-70572729D01*
X41515546Y-70390255D01*
X41504780Y-70357119D01*
X41504779Y-70357116D01*
X41442794Y-70235465D01*
X41401855Y-70155118D01*
X41318785Y-70040781D01*
X41268605Y-69971713D01*
X41268601Y-69971708D01*
X41108293Y-69811400D01*
X41085620Y-69794927D01*
X41010456Y-69740317D01*
X40967791Y-69684989D01*
X40961812Y-69615376D01*
X40994417Y-69553580D01*
X41010456Y-69539682D01*
X41108293Y-69468600D01*
X41268600Y-69308293D01*
X41401855Y-69124882D01*
X41504779Y-68922883D01*
X41574835Y-68707271D01*
X41610300Y-68483354D01*
X41610300Y-68256646D01*
X41574835Y-68032729D01*
X41504779Y-67817117D01*
X41504779Y-67817116D01*
X41442794Y-67695465D01*
X41401855Y-67615118D01*
X41318785Y-67500781D01*
X41268605Y-67431713D01*
X41268601Y-67431708D01*
X41108293Y-67271400D01*
X41078837Y-67249999D01*
X41010456Y-67200317D01*
X40967791Y-67144989D01*
X40961812Y-67075376D01*
X40994417Y-67013580D01*
X41010456Y-66999682D01*
X41108293Y-66928600D01*
X41268600Y-66768293D01*
X41401855Y-66584882D01*
X41504779Y-66382883D01*
X41574835Y-66167271D01*
X41610300Y-65943354D01*
X41610300Y-65716646D01*
X41574835Y-65492729D01*
X41544772Y-65400208D01*
X41542778Y-65330368D01*
X41575021Y-65274212D01*
X42212416Y-64636819D01*
X42273739Y-64603334D01*
X42300097Y-64600500D01*
X46255501Y-64600500D01*
X46322540Y-64620185D01*
X46368295Y-64672989D01*
X46379501Y-64724500D01*
X46379501Y-65047876D01*
X46385908Y-65107483D01*
X46436202Y-65242328D01*
X46436206Y-65242335D01*
X46522452Y-65357544D01*
X46522455Y-65357547D01*
X46637664Y-65443793D01*
X46637671Y-65443797D01*
X46682618Y-65460561D01*
X46772517Y-65494091D01*
X46832127Y-65500500D01*
X47155500Y-65500499D01*
X47222539Y-65520183D01*
X47268294Y-65572987D01*
X47279500Y-65624499D01*
X47279500Y-66043330D01*
X47279499Y-66043348D01*
X47279499Y-66209054D01*
X47279498Y-66209054D01*
X47279499Y-66209057D01*
X47317138Y-66349527D01*
X47320424Y-66361787D01*
X47332603Y-66382881D01*
X47332604Y-66382883D01*
X47399477Y-66498712D01*
X47399481Y-66498717D01*
X47518349Y-66617585D01*
X47518355Y-66617590D01*
X49783181Y-68882416D01*
X49816666Y-68943739D01*
X49819500Y-68970097D01*
X49819500Y-70170931D01*
X49799815Y-70237970D01*
X49751796Y-70281415D01*
X49633565Y-70341657D01*
X49509840Y-70431549D01*
X49444034Y-70455029D01*
X49375980Y-70439203D01*
X49328410Y-70390255D01*
X49328047Y-70390454D01*
X49327334Y-70389148D01*
X49327285Y-70389098D01*
X49327187Y-70388880D01*
X49323793Y-70382664D01*
X49237547Y-70267455D01*
X49237544Y-70267452D01*
X49122335Y-70181206D01*
X49122328Y-70181202D01*
X48987482Y-70130908D01*
X48987483Y-70130908D01*
X48927883Y-70124501D01*
X48927881Y-70124500D01*
X48927873Y-70124500D01*
X48927864Y-70124500D01*
X46832129Y-70124500D01*
X46832123Y-70124501D01*
X46772516Y-70130908D01*
X46637671Y-70181202D01*
X46637664Y-70181206D01*
X46522455Y-70267452D01*
X46522452Y-70267455D01*
X46436206Y-70382664D01*
X46436202Y-70382671D01*
X46385908Y-70517517D01*
X46379501Y-70577116D01*
X46379500Y-70577135D01*
X46379500Y-72672870D01*
X46379501Y-72672876D01*
X46385908Y-72732483D01*
X46436202Y-72867328D01*
X46436206Y-72867335D01*
X46522452Y-72982544D01*
X46522455Y-72982547D01*
X46637664Y-73068793D01*
X46637671Y-73068797D01*
X46772517Y-73119091D01*
X46772516Y-73119091D01*
X46779444Y-73119835D01*
X46832127Y-73125500D01*
X48927872Y-73125499D01*
X48987483Y-73119091D01*
X49122331Y-73068796D01*
X49237546Y-72982546D01*
X49323796Y-72867331D01*
X49323797Y-72867326D01*
X49328047Y-72859546D01*
X49331380Y-72861366D01*
X49362292Y-72819766D01*
X49427669Y-72795116D01*
X49495994Y-72809725D01*
X49509835Y-72818446D01*
X49633567Y-72908343D01*
X49699623Y-72942000D01*
X49844003Y-73015566D01*
X49844005Y-73015566D01*
X49844008Y-73015568D01*
X49964412Y-73054689D01*
X50068631Y-73088553D01*
X50301903Y-73125500D01*
X50301908Y-73125500D01*
X50538097Y-73125500D01*
X50771368Y-73088553D01*
X50772870Y-73088065D01*
X50995992Y-73015568D01*
X51206433Y-72908343D01*
X51397510Y-72769517D01*
X51564517Y-72602510D01*
X51589682Y-72567872D01*
X51645011Y-72525207D01*
X51714625Y-72519228D01*
X51776420Y-72551833D01*
X51790315Y-72567870D01*
X51815483Y-72602510D01*
X51982490Y-72769517D01*
X52173567Y-72908343D01*
X52239623Y-72942000D01*
X52384003Y-73015566D01*
X52384005Y-73015566D01*
X52384008Y-73015568D01*
X52504412Y-73054689D01*
X52608631Y-73088553D01*
X52841903Y-73125500D01*
X52841908Y-73125500D01*
X53078097Y-73125500D01*
X53311368Y-73088553D01*
X53312870Y-73088065D01*
X53535992Y-73015568D01*
X53746433Y-72908343D01*
X53937510Y-72769517D01*
X54104517Y-72602510D01*
X54151370Y-72538022D01*
X54155713Y-72533199D01*
X54180150Y-72518142D01*
X54202877Y-72500618D01*
X54210393Y-72499509D01*
X54215199Y-72496549D01*
X54228730Y-72496806D01*
X54257594Y-72492551D01*
X54277340Y-72494105D01*
X55017037Y-71754408D01*
X55034075Y-71817993D01*
X55099901Y-71932007D01*
X55192993Y-72025099D01*
X55307007Y-72090925D01*
X55370590Y-72107962D01*
X54630893Y-72847658D01*
X54713828Y-72907914D01*
X54924197Y-73015102D01*
X55148752Y-73088065D01*
X55148751Y-73088065D01*
X55381948Y-73125000D01*
X55618052Y-73125000D01*
X55851247Y-73088065D01*
X56075802Y-73015102D01*
X56286163Y-72907918D01*
X56286169Y-72907914D01*
X56369104Y-72847658D01*
X56369105Y-72847658D01*
X55629408Y-72107962D01*
X55692993Y-72090925D01*
X55807007Y-72025099D01*
X55900099Y-71932007D01*
X55965925Y-71817993D01*
X55982962Y-71754408D01*
X56722658Y-72494105D01*
X56722658Y-72494104D01*
X56782914Y-72411169D01*
X56782918Y-72411163D01*
X56890102Y-72200802D01*
X56963065Y-71976247D01*
X57000000Y-71743052D01*
X57000000Y-71506947D01*
X56963065Y-71273752D01*
X56890102Y-71049197D01*
X56782914Y-70838828D01*
X56722658Y-70755894D01*
X56722658Y-70755893D01*
X55982962Y-71495590D01*
X55965925Y-71432007D01*
X55900099Y-71317993D01*
X55807007Y-71224901D01*
X55692993Y-71159075D01*
X55629409Y-71142037D01*
X56369105Y-70402340D01*
X56369104Y-70402338D01*
X56286174Y-70342087D01*
X56075802Y-70234897D01*
X55851247Y-70161934D01*
X55851248Y-70161934D01*
X55618052Y-70125000D01*
X55381948Y-70125000D01*
X55148752Y-70161934D01*
X54924197Y-70234897D01*
X54713830Y-70342084D01*
X54630894Y-70402340D01*
X55370591Y-71142037D01*
X55307007Y-71159075D01*
X55192993Y-71224901D01*
X55099901Y-71317993D01*
X55034075Y-71432007D01*
X55017037Y-71495590D01*
X54277340Y-70755893D01*
X54257593Y-70757448D01*
X54253860Y-70756663D01*
X54250222Y-70757808D01*
X54219936Y-70749537D01*
X54189215Y-70743084D01*
X54185429Y-70740114D01*
X54182821Y-70739402D01*
X54173431Y-70730701D01*
X54155712Y-70716800D01*
X54151370Y-70711978D01*
X54104517Y-70647490D01*
X53937510Y-70480483D01*
X53746433Y-70341657D01*
X53746429Y-70341655D01*
X53535996Y-70234433D01*
X53311368Y-70161446D01*
X53078097Y-70124500D01*
X53078092Y-70124500D01*
X52841908Y-70124500D01*
X52841903Y-70124500D01*
X52608631Y-70161446D01*
X52384003Y-70234433D01*
X52173566Y-70341657D01*
X52106404Y-70390454D01*
X51982490Y-70480483D01*
X51982488Y-70480485D01*
X51982487Y-70480485D01*
X51815484Y-70647488D01*
X51790318Y-70682127D01*
X51734987Y-70724792D01*
X51665374Y-70730771D01*
X51603579Y-70698165D01*
X51589682Y-70682127D01*
X51564517Y-70647490D01*
X51397510Y-70480483D01*
X51227712Y-70357117D01*
X51206431Y-70341655D01*
X51088204Y-70281415D01*
X51037409Y-70233441D01*
X51020500Y-70170931D01*
X51020500Y-68590945D01*
X51020500Y-68590943D01*
X50979577Y-68438216D01*
X50955662Y-68396793D01*
X50900524Y-68301290D01*
X50900521Y-68301286D01*
X50900520Y-68301284D01*
X50788716Y-68189480D01*
X50788715Y-68189479D01*
X50784385Y-68185149D01*
X50784374Y-68185139D01*
X48516819Y-65917584D01*
X48502115Y-65890656D01*
X48485523Y-65864838D01*
X48484631Y-65858637D01*
X48483334Y-65856261D01*
X48480500Y-65829903D01*
X48480500Y-65624499D01*
X48500185Y-65557460D01*
X48552989Y-65511705D01*
X48604500Y-65500499D01*
X48927871Y-65500499D01*
X48927872Y-65500499D01*
X48987483Y-65494091D01*
X49122331Y-65443796D01*
X49237546Y-65357546D01*
X49323796Y-65242331D01*
X49323797Y-65242326D01*
X49328047Y-65234546D01*
X49331380Y-65236366D01*
X49362292Y-65194766D01*
X49427669Y-65170116D01*
X49495994Y-65184725D01*
X49509835Y-65193446D01*
X49633567Y-65283343D01*
X49721098Y-65327942D01*
X49844003Y-65390566D01*
X49844005Y-65390566D01*
X49844008Y-65390568D01*
X49964412Y-65429689D01*
X50068631Y-65463553D01*
X50301903Y-65500500D01*
X50301908Y-65500500D01*
X50538097Y-65500500D01*
X50771368Y-65463553D01*
X50772870Y-65463065D01*
X50995992Y-65390568D01*
X51206433Y-65283343D01*
X51397510Y-65144517D01*
X51564517Y-64977510D01*
X51589682Y-64942872D01*
X51645011Y-64900207D01*
X51714625Y-64894228D01*
X51776420Y-64926833D01*
X51790315Y-64942870D01*
X51815483Y-64977510D01*
X51982490Y-65144517D01*
X52173567Y-65283343D01*
X52261098Y-65327942D01*
X52384003Y-65390566D01*
X52384005Y-65390566D01*
X52384008Y-65390568D01*
X52504412Y-65429689D01*
X52608631Y-65463553D01*
X52841903Y-65500500D01*
X52841908Y-65500500D01*
X53078097Y-65500500D01*
X53311368Y-65463553D01*
X53312870Y-65463065D01*
X53535992Y-65390568D01*
X53746433Y-65283343D01*
X53937510Y-65144517D01*
X54104517Y-64977510D01*
X54151370Y-64913022D01*
X54155713Y-64908199D01*
X54180150Y-64893142D01*
X54202877Y-64875618D01*
X54210393Y-64874509D01*
X54215199Y-64871549D01*
X54228730Y-64871806D01*
X54257594Y-64867551D01*
X54277340Y-64869105D01*
X55017037Y-64129408D01*
X55034075Y-64192993D01*
X55099901Y-64307007D01*
X55192993Y-64400099D01*
X55307007Y-64465925D01*
X55370590Y-64482962D01*
X54630893Y-65222658D01*
X54713828Y-65282914D01*
X54924197Y-65390102D01*
X55148752Y-65463065D01*
X55148751Y-65463065D01*
X55381948Y-65500000D01*
X55618052Y-65500000D01*
X55851247Y-65463065D01*
X56075802Y-65390102D01*
X56286163Y-65282918D01*
X56286169Y-65282914D01*
X56369104Y-65222658D01*
X56369105Y-65222658D01*
X55629408Y-64482962D01*
X55692993Y-64465925D01*
X55807007Y-64400099D01*
X55900099Y-64307007D01*
X55965925Y-64192993D01*
X55982962Y-64129408D01*
X56722658Y-64869105D01*
X56722658Y-64869104D01*
X56782914Y-64786169D01*
X56782918Y-64786163D01*
X56890102Y-64575802D01*
X56963065Y-64351247D01*
X57000000Y-64118052D01*
X57000000Y-63881947D01*
X56963065Y-63648752D01*
X56890102Y-63424197D01*
X56782914Y-63213828D01*
X56722658Y-63130894D01*
X56722658Y-63130893D01*
X55982962Y-63870590D01*
X55965925Y-63807007D01*
X55900099Y-63692993D01*
X55807007Y-63599901D01*
X55692993Y-63534075D01*
X55629409Y-63517037D01*
X56369105Y-62777340D01*
X56369104Y-62777338D01*
X56286174Y-62717087D01*
X56075802Y-62609897D01*
X55851247Y-62536934D01*
X55851248Y-62536934D01*
X55618052Y-62500000D01*
X55381948Y-62500000D01*
X55148752Y-62536934D01*
X54924197Y-62609897D01*
X54713830Y-62717084D01*
X54630894Y-62777340D01*
X55370591Y-63517037D01*
X55307007Y-63534075D01*
X55192993Y-63599901D01*
X55099901Y-63692993D01*
X55034075Y-63807007D01*
X55017037Y-63870590D01*
X54277340Y-63130893D01*
X54257593Y-63132448D01*
X54253860Y-63131663D01*
X54250222Y-63132808D01*
X54219936Y-63124537D01*
X54189215Y-63118084D01*
X54185429Y-63115114D01*
X54182821Y-63114402D01*
X54173431Y-63105701D01*
X54155712Y-63091800D01*
X54151370Y-63086978D01*
X54104517Y-63022490D01*
X53937510Y-62855483D01*
X53746433Y-62716657D01*
X53535996Y-62609433D01*
X53311368Y-62536446D01*
X53078097Y-62499500D01*
X53078092Y-62499500D01*
X53069096Y-62499500D01*
X53002057Y-62479815D01*
X52956302Y-62427011D01*
X52946358Y-62357853D01*
X52975383Y-62294297D01*
X52981415Y-62287819D01*
X54632588Y-60636646D01*
X61589700Y-60636646D01*
X61589700Y-60863354D01*
X61594260Y-60892147D01*
X61625165Y-61087272D01*
X61695219Y-61302880D01*
X61695220Y-61302883D01*
X61730423Y-61371971D01*
X61788837Y-61486615D01*
X61798147Y-61504885D01*
X61931394Y-61688286D01*
X61931398Y-61688291D01*
X62091708Y-61848601D01*
X62091713Y-61848605D01*
X62189542Y-61919682D01*
X62232208Y-61975012D01*
X62238187Y-62044625D01*
X62205582Y-62106420D01*
X62189542Y-62120318D01*
X62091713Y-62191394D01*
X62091708Y-62191398D01*
X61931398Y-62351708D01*
X61931394Y-62351713D01*
X61798147Y-62535114D01*
X61695220Y-62737116D01*
X61695219Y-62737119D01*
X61625165Y-62952727D01*
X61599558Y-63114402D01*
X61589700Y-63176646D01*
X61589700Y-63403354D01*
X61600154Y-63469360D01*
X61625165Y-63627272D01*
X61695219Y-63842880D01*
X61695220Y-63842883D01*
X61730423Y-63911971D01*
X61794546Y-64037819D01*
X61798147Y-64044885D01*
X61931394Y-64228286D01*
X61931398Y-64228291D01*
X62091708Y-64388601D01*
X62091713Y-64388605D01*
X62189542Y-64459682D01*
X62232208Y-64515012D01*
X62238187Y-64584625D01*
X62205582Y-64646420D01*
X62189542Y-64660318D01*
X62091713Y-64731394D01*
X62091708Y-64731398D01*
X61931398Y-64891708D01*
X61931394Y-64891713D01*
X61798147Y-65075114D01*
X61695220Y-65277116D01*
X61695219Y-65277119D01*
X61625165Y-65492727D01*
X61614138Y-65562351D01*
X61589700Y-65716646D01*
X61589700Y-65943354D01*
X61598672Y-66000000D01*
X61625165Y-66167272D01*
X61695219Y-66382880D01*
X61695220Y-66382881D01*
X61695221Y-66382883D01*
X61782816Y-66554798D01*
X61798147Y-66584885D01*
X61931394Y-66768286D01*
X61931398Y-66768291D01*
X62091708Y-66928601D01*
X62091713Y-66928605D01*
X62189542Y-66999682D01*
X62232208Y-67055012D01*
X62238187Y-67124625D01*
X62205582Y-67186420D01*
X62189542Y-67200318D01*
X62091713Y-67271394D01*
X62091708Y-67271398D01*
X61931398Y-67431708D01*
X61931394Y-67431713D01*
X61798147Y-67615114D01*
X61695220Y-67817116D01*
X61695219Y-67817119D01*
X61625165Y-68032727D01*
X61614138Y-68102351D01*
X61589700Y-68256646D01*
X61589700Y-68483354D01*
X61600708Y-68552853D01*
X61625165Y-68707272D01*
X61695219Y-68922880D01*
X61695220Y-68922883D01*
X61798147Y-69124885D01*
X61931394Y-69308286D01*
X61931398Y-69308291D01*
X62091708Y-69468601D01*
X62091713Y-69468605D01*
X62189542Y-69539682D01*
X62232208Y-69595012D01*
X62238187Y-69664625D01*
X62205582Y-69726420D01*
X62189542Y-69740318D01*
X62091713Y-69811394D01*
X62091708Y-69811398D01*
X61931398Y-69971708D01*
X61931394Y-69971713D01*
X61798147Y-70155114D01*
X61695220Y-70357116D01*
X61695219Y-70357119D01*
X61625165Y-70572727D01*
X61598654Y-70740114D01*
X61589700Y-70796646D01*
X61589700Y-71023354D01*
X61598952Y-71081768D01*
X61625165Y-71247272D01*
X61695219Y-71462880D01*
X61695220Y-71462883D01*
X61798147Y-71664885D01*
X61931394Y-71848286D01*
X61931398Y-71848291D01*
X62091712Y-72008605D01*
X62189968Y-72079991D01*
X62232634Y-72135320D01*
X62238613Y-72204934D01*
X62206008Y-72266729D01*
X62189968Y-72280627D01*
X62092039Y-72351776D01*
X62092034Y-72351780D01*
X61931780Y-72512034D01*
X61931776Y-72512039D01*
X61798575Y-72695376D01*
X61695683Y-72897311D01*
X61625653Y-73112841D01*
X61625653Y-73112844D01*
X61611849Y-73200000D01*
X62587749Y-73200000D01*
X62556619Y-73253919D01*
X62522000Y-73383120D01*
X62522000Y-73516880D01*
X62556619Y-73646081D01*
X62587749Y-73700000D01*
X61611849Y-73700000D01*
X61625653Y-73787155D01*
X61625653Y-73787158D01*
X61695683Y-74002688D01*
X61798575Y-74204623D01*
X61931776Y-74387960D01*
X61931780Y-74387965D01*
X62092034Y-74548219D01*
X62092039Y-74548223D01*
X62275376Y-74681424D01*
X62477311Y-74784316D01*
X62692838Y-74854344D01*
X62780000Y-74868149D01*
X62780000Y-73892251D01*
X62833919Y-73923381D01*
X62963120Y-73958000D01*
X63096880Y-73958000D01*
X63226081Y-73923381D01*
X63280000Y-73892251D01*
X63280000Y-74868148D01*
X63367161Y-74854344D01*
X63582688Y-74784316D01*
X63784623Y-74681424D01*
X63967960Y-74548223D01*
X63967965Y-74548219D01*
X64128219Y-74387965D01*
X64128223Y-74387960D01*
X64261424Y-74204623D01*
X64364316Y-74002688D01*
X64434346Y-73787158D01*
X64434346Y-73787155D01*
X64448151Y-73700000D01*
X63472251Y-73700000D01*
X63503381Y-73646081D01*
X63538000Y-73516880D01*
X63538000Y-73383120D01*
X63503381Y-73253919D01*
X63472251Y-73200000D01*
X64448151Y-73200000D01*
X64434346Y-73112844D01*
X64434346Y-73112841D01*
X64364316Y-72897311D01*
X64261424Y-72695376D01*
X64128223Y-72512039D01*
X64128219Y-72512034D01*
X63967961Y-72351776D01*
X63870031Y-72280627D01*
X63827365Y-72225298D01*
X63821386Y-72155684D01*
X63853991Y-72093889D01*
X63870032Y-72079990D01*
X63870458Y-72079681D01*
X63968293Y-72008600D01*
X64128600Y-71848293D01*
X64261855Y-71664882D01*
X64364779Y-71462883D01*
X64434835Y-71247271D01*
X64470300Y-71023354D01*
X64470300Y-70796646D01*
X64434835Y-70572729D01*
X64375546Y-70390255D01*
X64364780Y-70357119D01*
X64364779Y-70357116D01*
X64302794Y-70235465D01*
X64261855Y-70155118D01*
X64178785Y-70040781D01*
X64128605Y-69971713D01*
X64128601Y-69971708D01*
X63968293Y-69811400D01*
X63945620Y-69794927D01*
X63870456Y-69740317D01*
X63827791Y-69684989D01*
X63821812Y-69615376D01*
X63854417Y-69553580D01*
X63870456Y-69539682D01*
X63968293Y-69468600D01*
X64128600Y-69308293D01*
X64261855Y-69124882D01*
X64364779Y-68922883D01*
X64434835Y-68707271D01*
X64470300Y-68483354D01*
X64470300Y-68256646D01*
X64434835Y-68032729D01*
X64364779Y-67817117D01*
X64364779Y-67817116D01*
X64302794Y-67695465D01*
X64261855Y-67615118D01*
X64178785Y-67500781D01*
X64128605Y-67431713D01*
X64128601Y-67431708D01*
X63968293Y-67271400D01*
X63938837Y-67249999D01*
X63870456Y-67200317D01*
X63827791Y-67144989D01*
X63821812Y-67075376D01*
X63854417Y-67013580D01*
X63870456Y-66999682D01*
X63968293Y-66928600D01*
X64128600Y-66768293D01*
X64261855Y-66584882D01*
X64364779Y-66382883D01*
X64434835Y-66167271D01*
X64470300Y-65943354D01*
X64470300Y-65716646D01*
X64434835Y-65492729D01*
X64364779Y-65277117D01*
X64364779Y-65277116D01*
X64302794Y-65155465D01*
X64261855Y-65075118D01*
X64190939Y-64977510D01*
X64128605Y-64891713D01*
X64128601Y-64891708D01*
X64027552Y-64790659D01*
X63968293Y-64731400D01*
X63867292Y-64658019D01*
X63864280Y-64655526D01*
X63846833Y-64629684D01*
X63827791Y-64604989D01*
X63827445Y-64600965D01*
X63825185Y-64597617D01*
X63824479Y-64566435D01*
X63821812Y-64535376D01*
X63823696Y-64531804D01*
X63823605Y-64527765D01*
X63839868Y-64501154D01*
X63854417Y-64473580D01*
X63859313Y-64469337D01*
X63860040Y-64468148D01*
X63861503Y-64467438D01*
X63870456Y-64459682D01*
X63968293Y-64388600D01*
X64128600Y-64228293D01*
X64261855Y-64044882D01*
X64364779Y-63842883D01*
X64434835Y-63627271D01*
X64470300Y-63403354D01*
X64470300Y-63176646D01*
X64434835Y-62952729D01*
X64377848Y-62777340D01*
X64364780Y-62737119D01*
X64364779Y-62737116D01*
X64316546Y-62642455D01*
X64261855Y-62535118D01*
X64193502Y-62441037D01*
X64128605Y-62351713D01*
X64128601Y-62351708D01*
X63968293Y-62191400D01*
X63953849Y-62180906D01*
X63870456Y-62120317D01*
X63827791Y-62064989D01*
X63821812Y-61995376D01*
X63854417Y-61933580D01*
X63870456Y-61919682D01*
X63968293Y-61848600D01*
X64128600Y-61688293D01*
X64261855Y-61504882D01*
X64364779Y-61302883D01*
X64434835Y-61087271D01*
X64470300Y-60863354D01*
X64470300Y-60636646D01*
X64434835Y-60412729D01*
X64364779Y-60197117D01*
X64364779Y-60197116D01*
X64302794Y-60075465D01*
X64261855Y-59995118D01*
X64178785Y-59880781D01*
X64128605Y-59811713D01*
X64128601Y-59811708D01*
X63968291Y-59651398D01*
X63968286Y-59651394D01*
X63784885Y-59518147D01*
X63784884Y-59518146D01*
X63784882Y-59518145D01*
X63714311Y-59482187D01*
X63582883Y-59415220D01*
X63582880Y-59415219D01*
X63367272Y-59345165D01*
X63203814Y-59319276D01*
X63143354Y-59309700D01*
X62916646Y-59309700D01*
X62856186Y-59319276D01*
X62692727Y-59345165D01*
X62477119Y-59415219D01*
X62477116Y-59415220D01*
X62275114Y-59518147D01*
X62091713Y-59651394D01*
X62091708Y-59651398D01*
X61931398Y-59811708D01*
X61931394Y-59811713D01*
X61798147Y-59995114D01*
X61695220Y-60197116D01*
X61695219Y-60197119D01*
X61625165Y-60412727D01*
X61625165Y-60412729D01*
X61589700Y-60636646D01*
X54632588Y-60636646D01*
X58283064Y-56986170D01*
X61468736Y-53800498D01*
X71368713Y-43900521D01*
X71368716Y-43900520D01*
X71480520Y-43788716D01*
X71530639Y-43701904D01*
X71559577Y-43651785D01*
X71600500Y-43499057D01*
X71600500Y-43340943D01*
X71600500Y-40880096D01*
X71620185Y-40813057D01*
X71636814Y-40792420D01*
X73337819Y-39091414D01*
X73399142Y-39057930D01*
X73468834Y-39062914D01*
X73524767Y-39104786D01*
X73549184Y-39170250D01*
X73549500Y-39179096D01*
X73549500Y-39326286D01*
X73569030Y-39449597D01*
X73582754Y-39536243D01*
X73590725Y-39560776D01*
X73648444Y-39738414D01*
X73744951Y-39927820D01*
X73869890Y-40099786D01*
X74020213Y-40250109D01*
X74192179Y-40375048D01*
X74192181Y-40375049D01*
X74192184Y-40375051D01*
X74381588Y-40471557D01*
X74583757Y-40537246D01*
X74793713Y-40570500D01*
X74793714Y-40570500D01*
X75006286Y-40570500D01*
X75006287Y-40570500D01*
X75216243Y-40537246D01*
X75418412Y-40471557D01*
X75607816Y-40375051D01*
X75690097Y-40315271D01*
X75779786Y-40250109D01*
X75779788Y-40250106D01*
X75779792Y-40250104D01*
X75930104Y-40099792D01*
X75930106Y-40099788D01*
X75930109Y-40099786D01*
X76055048Y-39927820D01*
X76055047Y-39927820D01*
X76055051Y-39927816D01*
X76151557Y-39738412D01*
X76217246Y-39536243D01*
X76250500Y-39326287D01*
X76250500Y-39113713D01*
X76217246Y-38903757D01*
X76151557Y-38701588D01*
X76055051Y-38512184D01*
X76055049Y-38512181D01*
X76055048Y-38512179D01*
X75930109Y-38340213D01*
X75779786Y-38189890D01*
X75607820Y-38064951D01*
X75607115Y-38064591D01*
X75599054Y-38060485D01*
X75548259Y-38012512D01*
X75531463Y-37944692D01*
X75553999Y-37878556D01*
X75599054Y-37839515D01*
X75607816Y-37835051D01*
X75629789Y-37819086D01*
X75779786Y-37710109D01*
X75779788Y-37710106D01*
X75779792Y-37710104D01*
X75930104Y-37559792D01*
X75930106Y-37559788D01*
X75930109Y-37559786D01*
X76055048Y-37387820D01*
X76055047Y-37387820D01*
X76055051Y-37387816D01*
X76151557Y-37198412D01*
X76217246Y-36996243D01*
X76250500Y-36786287D01*
X76250500Y-36573713D01*
X76217246Y-36363757D01*
X76151557Y-36161588D01*
X76055051Y-35972184D01*
X76055049Y-35972181D01*
X76055048Y-35972179D01*
X75930109Y-35800213D01*
X75779786Y-35649890D01*
X75607820Y-35524951D01*
X75607115Y-35524591D01*
X75599054Y-35520485D01*
X75548259Y-35472512D01*
X75531463Y-35404692D01*
X75553999Y-35338556D01*
X75599054Y-35299515D01*
X75607816Y-35295051D01*
X75629789Y-35279086D01*
X75779786Y-35170109D01*
X75779788Y-35170106D01*
X75779792Y-35170104D01*
X75930104Y-35019792D01*
X75930106Y-35019788D01*
X75930109Y-35019786D01*
X76055048Y-34847820D01*
X76055047Y-34847820D01*
X76055051Y-34847816D01*
X76151557Y-34658412D01*
X76217246Y-34456243D01*
X76250500Y-34246287D01*
X76250500Y-34033713D01*
X76217246Y-33823757D01*
X76151557Y-33621588D01*
X76055051Y-33432184D01*
X76055049Y-33432181D01*
X76055048Y-33432179D01*
X75930109Y-33260213D01*
X75816181Y-33146285D01*
X75782696Y-33084962D01*
X75787680Y-33015270D01*
X75829552Y-32959337D01*
X75860529Y-32942422D01*
X75992086Y-32893354D01*
X75992093Y-32893350D01*
X76107187Y-32807190D01*
X76107190Y-32807187D01*
X76193350Y-32692093D01*
X76193354Y-32692086D01*
X76243596Y-32557379D01*
X76243598Y-32557372D01*
X76249999Y-32497844D01*
X76250000Y-32497827D01*
X76250000Y-31850000D01*
X75333012Y-31850000D01*
X75365925Y-31792993D01*
X75400000Y-31665826D01*
X75400000Y-31534174D01*
X75365925Y-31407007D01*
X75333012Y-31350000D01*
X76250000Y-31350000D01*
X76250000Y-30702172D01*
X76249999Y-30702155D01*
X76243598Y-30642627D01*
X76243596Y-30642620D01*
X76193354Y-30507913D01*
X76193350Y-30507906D01*
X76107190Y-30392812D01*
X76107187Y-30392809D01*
X75992093Y-30306649D01*
X75992086Y-30306645D01*
X75857379Y-30256403D01*
X75857372Y-30256401D01*
X75797844Y-30250000D01*
X75150000Y-30250000D01*
X75150000Y-31166988D01*
X75092993Y-31134075D01*
X74965826Y-31100000D01*
X74834174Y-31100000D01*
X74707007Y-31134075D01*
X74650000Y-31166988D01*
X74650000Y-30250000D01*
X74002155Y-30250000D01*
X73942627Y-30256401D01*
X73942620Y-30256403D01*
X73807913Y-30306645D01*
X73807906Y-30306649D01*
X73692812Y-30392809D01*
X73692809Y-30392812D01*
X73606649Y-30507906D01*
X73606645Y-30507913D01*
X73556403Y-30642620D01*
X73556401Y-30642627D01*
X73550000Y-30702155D01*
X73550000Y-31350000D01*
X74466988Y-31350000D01*
X74434075Y-31407007D01*
X74400000Y-31534174D01*
X74400000Y-31665826D01*
X74434075Y-31792993D01*
X74466988Y-31850000D01*
X73550000Y-31850000D01*
X73550000Y-32497844D01*
X73556401Y-32557372D01*
X73556403Y-32557379D01*
X73606645Y-32692086D01*
X73606649Y-32692093D01*
X73692809Y-32807187D01*
X73692812Y-32807190D01*
X73807906Y-32893350D01*
X73807913Y-32893354D01*
X73939470Y-32942422D01*
X73995404Y-32984293D01*
X74019821Y-33049758D01*
X74004969Y-33118031D01*
X73983819Y-33146285D01*
X73869889Y-33260215D01*
X73744951Y-33432179D01*
X73648444Y-33621585D01*
X73582753Y-33823760D01*
X73549500Y-34033713D01*
X73549500Y-34246286D01*
X73582753Y-34456239D01*
X73648444Y-34658414D01*
X73744951Y-34847820D01*
X73869890Y-35019786D01*
X74020213Y-35170109D01*
X74192182Y-35295050D01*
X74200946Y-35299516D01*
X74251742Y-35347491D01*
X74268536Y-35415312D01*
X74245998Y-35481447D01*
X74200946Y-35520484D01*
X74192182Y-35524949D01*
X74020213Y-35649890D01*
X73869890Y-35800213D01*
X73744951Y-35972179D01*
X73648444Y-36161585D01*
X73582753Y-36363760D01*
X73549500Y-36573713D01*
X73549500Y-36786286D01*
X73582754Y-36996244D01*
X73582754Y-36996247D01*
X73596491Y-37038523D01*
X73598486Y-37108364D01*
X73566241Y-37164522D01*
X70631286Y-40099478D01*
X70519481Y-40211282D01*
X70519477Y-40211287D01*
X70472015Y-40293496D01*
X70472014Y-40293495D01*
X70440424Y-40348211D01*
X70440423Y-40348215D01*
X70399499Y-40500943D01*
X70399499Y-40500945D01*
X70399499Y-40669046D01*
X70399500Y-40669059D01*
X70399500Y-43119902D01*
X70379815Y-43186941D01*
X70363181Y-43207583D01*
X69723300Y-43847464D01*
X69661977Y-43880949D01*
X69592285Y-43875965D01*
X69536352Y-43834093D01*
X69511935Y-43768629D01*
X69515843Y-43727692D01*
X69575206Y-43506149D01*
X69605500Y-43276045D01*
X69605500Y-43043955D01*
X69575206Y-42813851D01*
X69515137Y-42589670D01*
X69426320Y-42375248D01*
X69426314Y-42375237D01*
X69310279Y-42174256D01*
X69310278Y-42174254D01*
X69168990Y-41990124D01*
X69168984Y-41990117D01*
X69004882Y-41826015D01*
X69004875Y-41826009D01*
X68820745Y-41684721D01*
X68820743Y-41684720D01*
X68619762Y-41568685D01*
X68619754Y-41568681D01*
X68619752Y-41568680D01*
X68605704Y-41562861D01*
X68405328Y-41479862D01*
X68258369Y-41440485D01*
X68181149Y-41419794D01*
X68152386Y-41416007D01*
X67951052Y-41389500D01*
X67951045Y-41389500D01*
X67718955Y-41389500D01*
X67718947Y-41389500D01*
X67488851Y-41419794D01*
X67264671Y-41479862D01*
X67050254Y-41568677D01*
X67050237Y-41568685D01*
X66849256Y-41684720D01*
X66849254Y-41684721D01*
X66665124Y-41826009D01*
X66665117Y-41826015D01*
X66501015Y-41990117D01*
X66501009Y-41990124D01*
X66359721Y-42174254D01*
X66359720Y-42174256D01*
X66243685Y-42375237D01*
X66243677Y-42375254D01*
X66154862Y-42589671D01*
X66094794Y-42813851D01*
X66064500Y-43043947D01*
X66064500Y-43276052D01*
X66094794Y-43506148D01*
X66154862Y-43730328D01*
X66243677Y-43944745D01*
X66243685Y-43944762D01*
X66359720Y-44145743D01*
X66359721Y-44145745D01*
X66501009Y-44329875D01*
X66501015Y-44329882D01*
X66665117Y-44493984D01*
X66665124Y-44493990D01*
X66849254Y-44635278D01*
X66849256Y-44635279D01*
X67050237Y-44751314D01*
X67050240Y-44751315D01*
X67050248Y-44751320D01*
X67264670Y-44840137D01*
X67488851Y-44900206D01*
X67718955Y-44930500D01*
X67718962Y-44930500D01*
X67951038Y-44930500D01*
X67951045Y-44930500D01*
X68181149Y-44900206D01*
X68402691Y-44840844D01*
X68472539Y-44842507D01*
X68530402Y-44881669D01*
X68557906Y-44945898D01*
X68546320Y-45014800D01*
X68522464Y-45048300D01*
X61653882Y-51916881D01*
X61592559Y-51950366D01*
X61522867Y-51945382D01*
X61466934Y-51903510D01*
X61465883Y-51902086D01*
X61457513Y-51890566D01*
X61379414Y-51783072D01*
X61256928Y-51660586D01*
X61116788Y-51558768D01*
X60978833Y-51488477D01*
X60962447Y-51480128D01*
X60962446Y-51480127D01*
X60962445Y-51480127D01*
X60797701Y-51426598D01*
X60797699Y-51426597D01*
X60797698Y-51426597D01*
X60666271Y-51405781D01*
X60626611Y-51399500D01*
X60453389Y-51399500D01*
X60413728Y-51405781D01*
X60282302Y-51426597D01*
X60117552Y-51480128D01*
X59963211Y-51558768D01*
X59896305Y-51607379D01*
X59823072Y-51660586D01*
X59823070Y-51660588D01*
X59823069Y-51660588D01*
X59700588Y-51783069D01*
X59700588Y-51783070D01*
X59700586Y-51783072D01*
X59656859Y-51843256D01*
X59598768Y-51923211D01*
X59534984Y-52048395D01*
X59487009Y-52099191D01*
X59419188Y-52115986D01*
X59353053Y-52093449D01*
X59309602Y-52038733D01*
X59300499Y-51992100D01*
X59300499Y-51652129D01*
X59300498Y-51652123D01*
X59300497Y-51652116D01*
X59294091Y-51592517D01*
X59282502Y-51561446D01*
X59243797Y-51457671D01*
X59243793Y-51457664D01*
X59157547Y-51342455D01*
X59157544Y-51342452D01*
X59042335Y-51256206D01*
X59042328Y-51256202D01*
X58907482Y-51205908D01*
X58907483Y-51205908D01*
X58847883Y-51199501D01*
X58847881Y-51199500D01*
X58847873Y-51199500D01*
X58847864Y-51199500D01*
X57152129Y-51199500D01*
X57152123Y-51199501D01*
X57092516Y-51205908D01*
X56957671Y-51256202D01*
X56957664Y-51256206D01*
X56842455Y-51342452D01*
X56842452Y-51342455D01*
X56756206Y-51457664D01*
X56756202Y-51457671D01*
X56705908Y-51592517D01*
X56699974Y-51647715D01*
X56699501Y-51652123D01*
X56699500Y-51652135D01*
X56699500Y-52899901D01*
X56679815Y-52966940D01*
X56663181Y-52987582D01*
X54787584Y-54863181D01*
X54726261Y-54896666D01*
X54699903Y-54899500D01*
X46800098Y-54899500D01*
X46733059Y-54879815D01*
X46712417Y-54863181D01*
X41746009Y-49896774D01*
X41707590Y-49858355D01*
X41707588Y-49858352D01*
X41661031Y-49811795D01*
X45689500Y-49811795D01*
X45689500Y-50188204D01*
X45722305Y-50563171D01*
X45722305Y-50563175D01*
X45787664Y-50933842D01*
X45787666Y-50933853D01*
X45796260Y-50965925D01*
X45885086Y-51297427D01*
X46013823Y-51651129D01*
X46013826Y-51651136D01*
X46013827Y-51651138D01*
X46013830Y-51651146D01*
X46172892Y-51992254D01*
X46172900Y-51992270D01*
X46361092Y-52318228D01*
X46361101Y-52318243D01*
X46576996Y-52626572D01*
X46687027Y-52757701D01*
X46818938Y-52914906D01*
X47085094Y-53181062D01*
X47127839Y-53216929D01*
X47373427Y-53423003D01*
X47373433Y-53423007D01*
X47373434Y-53423008D01*
X47681763Y-53638903D01*
X48007736Y-53827103D01*
X48120777Y-53879815D01*
X48348853Y-53986169D01*
X48348857Y-53986170D01*
X48348871Y-53986177D01*
X48702573Y-54114914D01*
X49066148Y-54212334D01*
X49436831Y-54277695D01*
X49811797Y-54310499D01*
X49811798Y-54310500D01*
X49811799Y-54310500D01*
X50188202Y-54310500D01*
X50188202Y-54310499D01*
X50563169Y-54277695D01*
X50933852Y-54212334D01*
X51297427Y-54114914D01*
X51651129Y-53986177D01*
X51992264Y-53827103D01*
X52318237Y-53638903D01*
X52626566Y-53423008D01*
X52914906Y-53181062D01*
X53181062Y-52914906D01*
X53423008Y-52626566D01*
X53638903Y-52318237D01*
X53827103Y-51992264D01*
X53986177Y-51651129D01*
X54114914Y-51297427D01*
X54212334Y-50933852D01*
X54277695Y-50563169D01*
X54310500Y-50188201D01*
X54310500Y-49811799D01*
X54277695Y-49436831D01*
X54276889Y-49432262D01*
X54246146Y-49257906D01*
X54212334Y-49066148D01*
X54114914Y-48702573D01*
X53986177Y-48348871D01*
X53827103Y-48007736D01*
X53821967Y-47998841D01*
X53813705Y-47984530D01*
X53638903Y-47681763D01*
X53423008Y-47373434D01*
X53423007Y-47373433D01*
X53423003Y-47373427D01*
X53181059Y-47085091D01*
X52914908Y-46818940D01*
X52626572Y-46576996D01*
X52318243Y-46361101D01*
X52318240Y-46361099D01*
X52318237Y-46361097D01*
X52129034Y-46251861D01*
X51992270Y-46172900D01*
X51992254Y-46172892D01*
X51651146Y-46013830D01*
X51651138Y-46013827D01*
X51651136Y-46013826D01*
X51651129Y-46013823D01*
X51297427Y-45885086D01*
X51059558Y-45821349D01*
X50933853Y-45787666D01*
X50933842Y-45787664D01*
X50563173Y-45722305D01*
X50188204Y-45689500D01*
X50188201Y-45689500D01*
X49811799Y-45689500D01*
X49811795Y-45689500D01*
X49436828Y-45722305D01*
X49436824Y-45722305D01*
X49066157Y-45787664D01*
X49066146Y-45787666D01*
X48871306Y-45839873D01*
X48702573Y-45885086D01*
X48702570Y-45885087D01*
X48702569Y-45885087D01*
X48550327Y-45940499D01*
X48348871Y-46013823D01*
X48348867Y-46013824D01*
X48348861Y-46013827D01*
X48348853Y-46013830D01*
X48007745Y-46172892D01*
X48007729Y-46172900D01*
X47681771Y-46361092D01*
X47681756Y-46361101D01*
X47373427Y-46576996D01*
X47085091Y-46818940D01*
X46818940Y-47085091D01*
X46576996Y-47373427D01*
X46361101Y-47681756D01*
X46361092Y-47681771D01*
X46172900Y-48007729D01*
X46172892Y-48007745D01*
X46013830Y-48348853D01*
X46013827Y-48348861D01*
X46013824Y-48348867D01*
X46013823Y-48348871D01*
X45970559Y-48467738D01*
X45885087Y-48702569D01*
X45885087Y-48702571D01*
X45787666Y-49066146D01*
X45787664Y-49066157D01*
X45722305Y-49436824D01*
X45722305Y-49436828D01*
X45689500Y-49811795D01*
X41661031Y-49811795D01*
X41588717Y-49739481D01*
X41588716Y-49739480D01*
X41501904Y-49689360D01*
X41501904Y-49689359D01*
X41501900Y-49689358D01*
X41451785Y-49660423D01*
X41299057Y-49619499D01*
X41140943Y-49619499D01*
X41133347Y-49619499D01*
X41133331Y-49619500D01*
X38229602Y-49619500D01*
X38162563Y-49599815D01*
X38119117Y-49551795D01*
X38112284Y-49538385D01*
X37991971Y-49372786D01*
X37847213Y-49228028D01*
X37681614Y-49107715D01*
X37675006Y-49104348D01*
X37588917Y-49060483D01*
X37538123Y-49012511D01*
X37521328Y-48944690D01*
X37543865Y-48878555D01*
X37588917Y-48839516D01*
X37681610Y-48792287D01*
X37805092Y-48702573D01*
X37847213Y-48671971D01*
X37847215Y-48671968D01*
X37847219Y-48671966D01*
X37991966Y-48527219D01*
X37991968Y-48527215D01*
X37991971Y-48527213D01*
X38061907Y-48430953D01*
X38112287Y-48361610D01*
X38205220Y-48179219D01*
X38268477Y-47984534D01*
X38300500Y-47782352D01*
X38300500Y-47577648D01*
X38268477Y-47375466D01*
X38267814Y-47373427D01*
X38205218Y-47180776D01*
X38117309Y-47008247D01*
X38112287Y-46998390D01*
X38066179Y-46934927D01*
X37991971Y-46832786D01*
X37847213Y-46688028D01*
X37681611Y-46567713D01*
X37588369Y-46520203D01*
X37537574Y-46472229D01*
X37520779Y-46404407D01*
X37543317Y-46338273D01*
X37588371Y-46299234D01*
X37681347Y-46251861D01*
X37846894Y-46131582D01*
X37846895Y-46131582D01*
X37991582Y-45986895D01*
X37991582Y-45986894D01*
X38111859Y-45821349D01*
X38204755Y-45639029D01*
X38267990Y-45444413D01*
X38276609Y-45390000D01*
X37433012Y-45390000D01*
X37465925Y-45332993D01*
X37500000Y-45205826D01*
X37500000Y-45074174D01*
X37465925Y-44947007D01*
X37433012Y-44890000D01*
X38276609Y-44890000D01*
X38267990Y-44835586D01*
X38204755Y-44640970D01*
X38111859Y-44458650D01*
X37991582Y-44293105D01*
X37991582Y-44293104D01*
X37846895Y-44148417D01*
X37681349Y-44028140D01*
X37588370Y-43980765D01*
X37537574Y-43932790D01*
X37520779Y-43864969D01*
X37543316Y-43798835D01*
X37588370Y-43759795D01*
X37588920Y-43759515D01*
X37681610Y-43712287D01*
X37769866Y-43648166D01*
X37847213Y-43591971D01*
X37847215Y-43591968D01*
X37847219Y-43591966D01*
X37991966Y-43447219D01*
X37991968Y-43447215D01*
X37991971Y-43447213D01*
X38061907Y-43350953D01*
X38112287Y-43281610D01*
X38205220Y-43099219D01*
X38268477Y-42904534D01*
X38300500Y-42702352D01*
X38300500Y-42497648D01*
X38281114Y-42375254D01*
X38268477Y-42295465D01*
X38205218Y-42100776D01*
X38148837Y-41990124D01*
X38112287Y-41918390D01*
X38074291Y-41866092D01*
X37991971Y-41752786D01*
X37847213Y-41608028D01*
X37681614Y-41487715D01*
X37675006Y-41484348D01*
X37588917Y-41440483D01*
X37538123Y-41392511D01*
X37521328Y-41324690D01*
X37543865Y-41258555D01*
X37588917Y-41219516D01*
X37681610Y-41172287D01*
X37812585Y-41077129D01*
X37847213Y-41051971D01*
X37847215Y-41051968D01*
X37847219Y-41051966D01*
X37991966Y-40907219D01*
X37991968Y-40907215D01*
X37991971Y-40907213D01*
X38075375Y-40792415D01*
X38112287Y-40741610D01*
X38205220Y-40559219D01*
X38268477Y-40364534D01*
X38300500Y-40162352D01*
X38300500Y-39957648D01*
X38268477Y-39755466D01*
X38262936Y-39738414D01*
X38205218Y-39560776D01*
X38171503Y-39494607D01*
X38112287Y-39378390D01*
X38104556Y-39367749D01*
X37991971Y-39212786D01*
X37847213Y-39068028D01*
X37681614Y-38947715D01*
X37675006Y-38944348D01*
X37588917Y-38900483D01*
X37538123Y-38852511D01*
X37521328Y-38784690D01*
X37543865Y-38718555D01*
X37588917Y-38679516D01*
X37681610Y-38632287D01*
X37702770Y-38616913D01*
X37847213Y-38511971D01*
X37847215Y-38511968D01*
X37847219Y-38511966D01*
X37991966Y-38367219D01*
X37991968Y-38367215D01*
X37991971Y-38367213D01*
X38044732Y-38294590D01*
X38112287Y-38201610D01*
X38205220Y-38019219D01*
X38268477Y-37824534D01*
X38300500Y-37622352D01*
X38300500Y-37417648D01*
X38268477Y-37215466D01*
X38262936Y-37198414D01*
X38233019Y-37106339D01*
X38205220Y-37020781D01*
X38205218Y-37020778D01*
X38205218Y-37020776D01*
X38171503Y-36954607D01*
X38112287Y-36838390D01*
X38104556Y-36827749D01*
X37991971Y-36672786D01*
X37847213Y-36528028D01*
X37681613Y-36407715D01*
X37681612Y-36407714D01*
X37681610Y-36407713D01*
X37595342Y-36363757D01*
X37499223Y-36314781D01*
X37304534Y-36251522D01*
X37129995Y-36223878D01*
X37102352Y-36219500D01*
X36897648Y-36219500D01*
X36873329Y-36223351D01*
X36695465Y-36251522D01*
X36500776Y-36314781D01*
X36318386Y-36407715D01*
X36152786Y-36528028D01*
X36008028Y-36672786D01*
X35887715Y-36838386D01*
X35794781Y-37020776D01*
X35731522Y-37215465D01*
X35704225Y-37387816D01*
X35699500Y-37417648D01*
X35699500Y-37622352D01*
X35703878Y-37649995D01*
X35731522Y-37824534D01*
X35794781Y-38019223D01*
X35857600Y-38142510D01*
X35881744Y-38189896D01*
X35887715Y-38201613D01*
X36008028Y-38367213D01*
X36152786Y-38511971D01*
X36307749Y-38624556D01*
X36318390Y-38632287D01*
X36407212Y-38677544D01*
X36411080Y-38679515D01*
X36461876Y-38727490D01*
X36478671Y-38795311D01*
X36456134Y-38861446D01*
X36411080Y-38900485D01*
X36318386Y-38947715D01*
X36152786Y-39068028D01*
X36008028Y-39212786D01*
X35887715Y-39378386D01*
X35794781Y-39560776D01*
X35731522Y-39755465D01*
X35699500Y-39957648D01*
X35699500Y-40162359D01*
X35699835Y-40166619D01*
X35685467Y-40234996D01*
X35663898Y-40264022D01*
X31624741Y-44303181D01*
X31563418Y-44336666D01*
X31537060Y-44339500D01*
X22849033Y-44339500D01*
X22781994Y-44319815D01*
X22754748Y-44296038D01*
X22751964Y-44292779D01*
X22607213Y-44148028D01*
X22441614Y-44027715D01*
X22435006Y-44024348D01*
X22348917Y-43980483D01*
X22298123Y-43932511D01*
X22281328Y-43864690D01*
X22303865Y-43798555D01*
X22348917Y-43759516D01*
X22441610Y-43712287D01*
X22529866Y-43648166D01*
X22607213Y-43591971D01*
X22607215Y-43591968D01*
X22607219Y-43591966D01*
X22751966Y-43447219D01*
X22751968Y-43447215D01*
X22751971Y-43447213D01*
X22821907Y-43350953D01*
X22872287Y-43281610D01*
X22965220Y-43099219D01*
X23028477Y-42904534D01*
X23060500Y-42702352D01*
X23060500Y-42497648D01*
X23041114Y-42375254D01*
X23028477Y-42295465D01*
X22965218Y-42100776D01*
X22908837Y-41990124D01*
X22872287Y-41918390D01*
X22834291Y-41866092D01*
X22751971Y-41752786D01*
X22607213Y-41608028D01*
X22441614Y-41487715D01*
X22435006Y-41484348D01*
X22348917Y-41440483D01*
X22298123Y-41392511D01*
X22281328Y-41324690D01*
X22303865Y-41258555D01*
X22348917Y-41219516D01*
X22441610Y-41172287D01*
X22572585Y-41077129D01*
X22607213Y-41051971D01*
X22607215Y-41051968D01*
X22607219Y-41051966D01*
X22751966Y-40907219D01*
X22751968Y-40907215D01*
X22751971Y-40907213D01*
X22835375Y-40792415D01*
X22872287Y-40741610D01*
X22965220Y-40559219D01*
X23028477Y-40364534D01*
X23060500Y-40162352D01*
X23060500Y-39957648D01*
X23028477Y-39755466D01*
X23022936Y-39738414D01*
X22965218Y-39560776D01*
X22931503Y-39494607D01*
X22872287Y-39378390D01*
X22864556Y-39367749D01*
X22751971Y-39212786D01*
X22607219Y-39068034D01*
X22570930Y-39041669D01*
X22528264Y-38986339D01*
X22522285Y-38916726D01*
X22554890Y-38854931D01*
X22615728Y-38820573D01*
X22630562Y-38818060D01*
X22667483Y-38814091D01*
X22746311Y-38784690D01*
X22802331Y-38763796D01*
X22917546Y-38677546D01*
X23003796Y-38562331D01*
X23054091Y-38427483D01*
X23060500Y-38367873D01*
X23060499Y-36672128D01*
X23054091Y-36612517D01*
X23017219Y-36513659D01*
X23003797Y-36477671D01*
X23003793Y-36477664D01*
X22917547Y-36362455D01*
X22917544Y-36362452D01*
X22802335Y-36276206D01*
X22802328Y-36276202D01*
X22667482Y-36225908D01*
X22667483Y-36225908D01*
X22607883Y-36219501D01*
X22607881Y-36219500D01*
X22607873Y-36219500D01*
X22607864Y-36219500D01*
X20912129Y-36219500D01*
X20912123Y-36219501D01*
X20852516Y-36225908D01*
X20717671Y-36276202D01*
X20717668Y-36276204D01*
X20698811Y-36290321D01*
X20633346Y-36314738D01*
X20565073Y-36299886D01*
X20515668Y-36250481D01*
X20500500Y-36191054D01*
X20500500Y-25303471D01*
X21499500Y-25303471D01*
X21499500Y-25696528D01*
X21538026Y-26087702D01*
X21614704Y-26473194D01*
X21614707Y-26473205D01*
X21614709Y-26473214D01*
X21614710Y-26473215D01*
X21617184Y-26481372D01*
X21728810Y-26849354D01*
X21770878Y-26950915D01*
X21868785Y-27187284D01*
X21879230Y-27212499D01*
X21879232Y-27212504D01*
X22064511Y-27559137D01*
X22064522Y-27559155D01*
X22282887Y-27885960D01*
X22282897Y-27885974D01*
X22532254Y-28189817D01*
X22810182Y-28467745D01*
X22810187Y-28467749D01*
X22810188Y-28467750D01*
X23114031Y-28717107D01*
X23440851Y-28935482D01*
X23440860Y-28935487D01*
X23440862Y-28935488D01*
X23787495Y-29120767D01*
X23787497Y-29120767D01*
X23787503Y-29120771D01*
X24150647Y-29271190D01*
X24526785Y-29385290D01*
X24526791Y-29385291D01*
X24526794Y-29385292D01*
X24526805Y-29385295D01*
X24912297Y-29461973D01*
X25303468Y-29500500D01*
X25303471Y-29500500D01*
X25696529Y-29500500D01*
X25696532Y-29500500D01*
X26087703Y-29461973D01*
X26162748Y-29447045D01*
X26473194Y-29385295D01*
X26473205Y-29385292D01*
X26473205Y-29385291D01*
X26473215Y-29385290D01*
X26849353Y-29271190D01*
X27212497Y-29120771D01*
X27559149Y-28935482D01*
X27885969Y-28717107D01*
X28189812Y-28467750D01*
X28467750Y-28189812D01*
X28717107Y-27885969D01*
X28935482Y-27559149D01*
X29120771Y-27212497D01*
X29271190Y-26849353D01*
X29385290Y-26473215D01*
X29385292Y-26473205D01*
X29385295Y-26473194D01*
X29461973Y-26087702D01*
X29469439Y-26011902D01*
X33734500Y-26011902D01*
X33734500Y-26248097D01*
X33771446Y-26481368D01*
X33844433Y-26705996D01*
X33951657Y-26916433D01*
X34041549Y-27040158D01*
X34065029Y-27105965D01*
X34049204Y-27174019D01*
X34000255Y-27221589D01*
X34000454Y-27221953D01*
X33999146Y-27222667D01*
X33999098Y-27222714D01*
X33998885Y-27222809D01*
X33992664Y-27226206D01*
X33877455Y-27312452D01*
X33877452Y-27312455D01*
X33791206Y-27427664D01*
X33791202Y-27427671D01*
X33740908Y-27562517D01*
X33735237Y-27615269D01*
X33734501Y-27622123D01*
X33734500Y-27622135D01*
X33734500Y-29717870D01*
X33734501Y-29717876D01*
X33740908Y-29777483D01*
X33791202Y-29912328D01*
X33791206Y-29912335D01*
X33877452Y-30027544D01*
X33877455Y-30027547D01*
X33992664Y-30113793D01*
X33992671Y-30113797D01*
X34127517Y-30164091D01*
X34127516Y-30164091D01*
X34134444Y-30164835D01*
X34187127Y-30170500D01*
X36282872Y-30170499D01*
X36342483Y-30164091D01*
X36477331Y-30113796D01*
X36592546Y-30027546D01*
X36678796Y-29912331D01*
X36729091Y-29777483D01*
X36735500Y-29717873D01*
X36735499Y-27622128D01*
X36729091Y-27562517D01*
X36727830Y-27559137D01*
X36678797Y-27427671D01*
X36678793Y-27427664D01*
X36592547Y-27312455D01*
X36592544Y-27312452D01*
X36477335Y-27226206D01*
X36469546Y-27221953D01*
X36471331Y-27218683D01*
X36429448Y-27187284D01*
X36405078Y-27121803D01*
X36419978Y-27053540D01*
X36428441Y-27040171D01*
X36518343Y-26916433D01*
X36625568Y-26705992D01*
X36676122Y-26550403D01*
X38883500Y-26550403D01*
X38883500Y-26749596D01*
X38914661Y-26946340D01*
X38914661Y-26946343D01*
X38976213Y-27135780D01*
X39020557Y-27222809D01*
X39066647Y-27313266D01*
X39183731Y-27474418D01*
X39324582Y-27615269D01*
X39485734Y-27732353D01*
X39555453Y-27767877D01*
X39637172Y-27809515D01*
X39687968Y-27857490D01*
X39704763Y-27925311D01*
X39682225Y-27991446D01*
X39637172Y-28030485D01*
X39485733Y-28107647D01*
X39393790Y-28174447D01*
X39324582Y-28224731D01*
X39324580Y-28224733D01*
X39324579Y-28224733D01*
X39183733Y-28365579D01*
X39183733Y-28365580D01*
X39183731Y-28365582D01*
X39171605Y-28382272D01*
X39066647Y-28526733D01*
X38976213Y-28704219D01*
X38914661Y-28893656D01*
X38914661Y-28893659D01*
X38883500Y-29090403D01*
X38883500Y-29289596D01*
X38914661Y-29486340D01*
X38914661Y-29486343D01*
X38976213Y-29675780D01*
X39066647Y-29853266D01*
X39183731Y-30014418D01*
X39324582Y-30155269D01*
X39485734Y-30272353D01*
X39553036Y-30306645D01*
X39637172Y-30349515D01*
X39687968Y-30397490D01*
X39704763Y-30465311D01*
X39682225Y-30531446D01*
X39637172Y-30570485D01*
X39485733Y-30647647D01*
X39410710Y-30702155D01*
X39324582Y-30764731D01*
X39324580Y-30764733D01*
X39324579Y-30764733D01*
X39183733Y-30905579D01*
X39183733Y-30905580D01*
X39183731Y-30905582D01*
X39133447Y-30974790D01*
X39066647Y-31066733D01*
X38976213Y-31244219D01*
X38914661Y-31433656D01*
X38914661Y-31433659D01*
X38883500Y-31630403D01*
X38883500Y-31829596D01*
X38914661Y-32026340D01*
X38914661Y-32026343D01*
X38976213Y-32215780D01*
X38976215Y-32215783D01*
X39066647Y-32393266D01*
X39183731Y-32554418D01*
X39324582Y-32695269D01*
X39485734Y-32812353D01*
X39555453Y-32847877D01*
X39637172Y-32889515D01*
X39687968Y-32937490D01*
X39704763Y-33005311D01*
X39682225Y-33071446D01*
X39637172Y-33110485D01*
X39485733Y-33187647D01*
X39393790Y-33254447D01*
X39324582Y-33304731D01*
X39324580Y-33304733D01*
X39324579Y-33304733D01*
X39183733Y-33445579D01*
X39183733Y-33445580D01*
X39183731Y-33445582D01*
X39133447Y-33514790D01*
X39066647Y-33606733D01*
X38976213Y-33784219D01*
X38914661Y-33973656D01*
X38914661Y-33973659D01*
X38883500Y-34170403D01*
X38883500Y-34369596D01*
X38914661Y-34566340D01*
X38914661Y-34566343D01*
X38976213Y-34755780D01*
X38976215Y-34755783D01*
X39066647Y-34933266D01*
X39183731Y-35094418D01*
X39324582Y-35235269D01*
X39485734Y-35352353D01*
X39555453Y-35387877D01*
X39637172Y-35429515D01*
X39687968Y-35477490D01*
X39704763Y-35545311D01*
X39682225Y-35611446D01*
X39637172Y-35650485D01*
X39485733Y-35727647D01*
X39393790Y-35794447D01*
X39324582Y-35844731D01*
X39324580Y-35844733D01*
X39324579Y-35844733D01*
X39183733Y-35985579D01*
X39183733Y-35985580D01*
X39183731Y-35985582D01*
X39133447Y-36054790D01*
X39066647Y-36146733D01*
X38976213Y-36324219D01*
X38914661Y-36513656D01*
X38914661Y-36513659D01*
X38883500Y-36710403D01*
X38883500Y-36909596D01*
X38914661Y-37106340D01*
X38914661Y-37106343D01*
X38976213Y-37295780D01*
X38976215Y-37295783D01*
X39066647Y-37473266D01*
X39183731Y-37634418D01*
X39324582Y-37775269D01*
X39485734Y-37892353D01*
X39555453Y-37927877D01*
X39637172Y-37969515D01*
X39687968Y-38017490D01*
X39704763Y-38085311D01*
X39682225Y-38151446D01*
X39637172Y-38190485D01*
X39485733Y-38267647D01*
X39393790Y-38334447D01*
X39324582Y-38384731D01*
X39324580Y-38384733D01*
X39324579Y-38384733D01*
X39183733Y-38525579D01*
X39183733Y-38525580D01*
X39183731Y-38525582D01*
X39133447Y-38594790D01*
X39066647Y-38686733D01*
X38976213Y-38864219D01*
X38914661Y-39053656D01*
X38914661Y-39053659D01*
X38883500Y-39250403D01*
X38883500Y-39449596D01*
X38914661Y-39646340D01*
X38914661Y-39646343D01*
X38976213Y-39835780D01*
X38976215Y-39835783D01*
X39066647Y-40013266D01*
X39183731Y-40174418D01*
X39324582Y-40315269D01*
X39441455Y-40400182D01*
X39484121Y-40455512D01*
X39490100Y-40525125D01*
X39457494Y-40586920D01*
X39396656Y-40621277D01*
X39368573Y-40624500D01*
X39336131Y-40624500D01*
X39336123Y-40624501D01*
X39276516Y-40630908D01*
X39141671Y-40681202D01*
X39141664Y-40681206D01*
X39026455Y-40767452D01*
X39026452Y-40767455D01*
X38940206Y-40882664D01*
X38940202Y-40882671D01*
X38889908Y-41017517D01*
X38883501Y-41077116D01*
X38883501Y-41077123D01*
X38883500Y-41077135D01*
X38883500Y-42702870D01*
X38883501Y-42702876D01*
X38889908Y-42762483D01*
X38940202Y-42897328D01*
X38940206Y-42897335D01*
X39026452Y-43012544D01*
X39026455Y-43012547D01*
X39141664Y-43098793D01*
X39141671Y-43098797D01*
X39276517Y-43149091D01*
X39276516Y-43149091D01*
X39283444Y-43149835D01*
X39336127Y-43155500D01*
X40961872Y-43155499D01*
X41021483Y-43149091D01*
X41156331Y-43098796D01*
X41229600Y-43043947D01*
X45744500Y-43043947D01*
X45744500Y-43276052D01*
X45774794Y-43506148D01*
X45834862Y-43730328D01*
X45923677Y-43944745D01*
X45923685Y-43944762D01*
X46039720Y-44145743D01*
X46039721Y-44145745D01*
X46181009Y-44329875D01*
X46181015Y-44329882D01*
X46345117Y-44493984D01*
X46345124Y-44493990D01*
X46529254Y-44635278D01*
X46529256Y-44635279D01*
X46730237Y-44751314D01*
X46730240Y-44751315D01*
X46730248Y-44751320D01*
X46944670Y-44840137D01*
X47168851Y-44900206D01*
X47398955Y-44930500D01*
X47398962Y-44930500D01*
X47631038Y-44930500D01*
X47631045Y-44930500D01*
X47861149Y-44900206D01*
X48085330Y-44840137D01*
X48299752Y-44751320D01*
X48500748Y-44635276D01*
X48684877Y-44493989D01*
X48848989Y-44329877D01*
X48990276Y-44145748D01*
X49106320Y-43944752D01*
X49195137Y-43730330D01*
X49255206Y-43506149D01*
X49285500Y-43276045D01*
X49285500Y-43043955D01*
X49255206Y-42813851D01*
X49195137Y-42589670D01*
X49132538Y-42438543D01*
X53959499Y-42438543D01*
X53997947Y-42631829D01*
X53997950Y-42631839D01*
X54073364Y-42813907D01*
X54073371Y-42813920D01*
X54182860Y-42977781D01*
X54182863Y-42977785D01*
X54322214Y-43117136D01*
X54322218Y-43117139D01*
X54486079Y-43226628D01*
X54486092Y-43226635D01*
X54668160Y-43302049D01*
X54668165Y-43302051D01*
X54668169Y-43302051D01*
X54668170Y-43302052D01*
X54861456Y-43340500D01*
X54861459Y-43340500D01*
X55058543Y-43340500D01*
X55188582Y-43314632D01*
X55251835Y-43302051D01*
X55433914Y-43226632D01*
X55597782Y-43117139D01*
X55737139Y-42977782D01*
X55846632Y-42813914D01*
X55922051Y-42631835D01*
X55949941Y-42491623D01*
X55960500Y-42438543D01*
X60039499Y-42438543D01*
X60077947Y-42631829D01*
X60077950Y-42631839D01*
X60153364Y-42813907D01*
X60153371Y-42813920D01*
X60262860Y-42977781D01*
X60262863Y-42977785D01*
X60402214Y-43117136D01*
X60402218Y-43117139D01*
X60566079Y-43226628D01*
X60566092Y-43226635D01*
X60748160Y-43302049D01*
X60748165Y-43302051D01*
X60748169Y-43302051D01*
X60748170Y-43302052D01*
X60941456Y-43340500D01*
X60941459Y-43340500D01*
X61138543Y-43340500D01*
X61268582Y-43314632D01*
X61331835Y-43302051D01*
X61513914Y-43226632D01*
X61677782Y-43117139D01*
X61817139Y-42977782D01*
X61926632Y-42813914D01*
X62002051Y-42631835D01*
X62029941Y-42491623D01*
X62040500Y-42438543D01*
X62040500Y-42241456D01*
X62002052Y-42048170D01*
X62002051Y-42048169D01*
X62002051Y-42048165D01*
X61978010Y-41990124D01*
X61926635Y-41866092D01*
X61926628Y-41866079D01*
X61817139Y-41702218D01*
X61817136Y-41702214D01*
X61677785Y-41562863D01*
X61677781Y-41562860D01*
X61513920Y-41453371D01*
X61513907Y-41453364D01*
X61331839Y-41377950D01*
X61331829Y-41377947D01*
X61138543Y-41339500D01*
X61138541Y-41339500D01*
X60941459Y-41339500D01*
X60941457Y-41339500D01*
X60748170Y-41377947D01*
X60748160Y-41377950D01*
X60566092Y-41453364D01*
X60566079Y-41453371D01*
X60402218Y-41562860D01*
X60402214Y-41562863D01*
X60262863Y-41702214D01*
X60262860Y-41702218D01*
X60153371Y-41866079D01*
X60153364Y-41866092D01*
X60077950Y-42048160D01*
X60077947Y-42048170D01*
X60039500Y-42241456D01*
X60039500Y-42241459D01*
X60039500Y-42438541D01*
X60039500Y-42438543D01*
X60039499Y-42438543D01*
X55960500Y-42438543D01*
X55960500Y-42241456D01*
X55922052Y-42048170D01*
X55922051Y-42048169D01*
X55922051Y-42048165D01*
X55898010Y-41990124D01*
X55846635Y-41866092D01*
X55846628Y-41866079D01*
X55737139Y-41702218D01*
X55737136Y-41702214D01*
X55597785Y-41562863D01*
X55597781Y-41562860D01*
X55433920Y-41453371D01*
X55433907Y-41453364D01*
X55251839Y-41377950D01*
X55251829Y-41377947D01*
X55058543Y-41339500D01*
X55058541Y-41339500D01*
X54861459Y-41339500D01*
X54861457Y-41339500D01*
X54668170Y-41377947D01*
X54668160Y-41377950D01*
X54486092Y-41453364D01*
X54486079Y-41453371D01*
X54322218Y-41562860D01*
X54322214Y-41562863D01*
X54182863Y-41702214D01*
X54182860Y-41702218D01*
X54073371Y-41866079D01*
X54073364Y-41866092D01*
X53997950Y-42048160D01*
X53997947Y-42048170D01*
X53959500Y-42241456D01*
X53959500Y-42241459D01*
X53959500Y-42438541D01*
X53959500Y-42438543D01*
X53959499Y-42438543D01*
X49132538Y-42438543D01*
X49106320Y-42375248D01*
X49106314Y-42375237D01*
X49061356Y-42297366D01*
X48990279Y-42174256D01*
X48990278Y-42174254D01*
X48848990Y-41990124D01*
X48848984Y-41990117D01*
X48684882Y-41826015D01*
X48684875Y-41826009D01*
X48500745Y-41684721D01*
X48500743Y-41684720D01*
X48299762Y-41568685D01*
X48299754Y-41568681D01*
X48299752Y-41568680D01*
X48285704Y-41562861D01*
X48085328Y-41479862D01*
X47938369Y-41440485D01*
X47861149Y-41419794D01*
X47832386Y-41416007D01*
X47631052Y-41389500D01*
X47631045Y-41389500D01*
X47398955Y-41389500D01*
X47398947Y-41389500D01*
X47168851Y-41419794D01*
X46944671Y-41479862D01*
X46730254Y-41568677D01*
X46730237Y-41568685D01*
X46529256Y-41684720D01*
X46529254Y-41684721D01*
X46345124Y-41826009D01*
X46345117Y-41826015D01*
X46181015Y-41990117D01*
X46181009Y-41990124D01*
X46039721Y-42174254D01*
X46039720Y-42174256D01*
X45923685Y-42375237D01*
X45923677Y-42375254D01*
X45834862Y-42589671D01*
X45774794Y-42813851D01*
X45744500Y-43043947D01*
X41229600Y-43043947D01*
X41271546Y-43012546D01*
X41357796Y-42897331D01*
X41408091Y-42762483D01*
X41414500Y-42702873D01*
X41414499Y-41077128D01*
X41408091Y-41017517D01*
X41366950Y-40907213D01*
X41357797Y-40882671D01*
X41357793Y-40882664D01*
X41271547Y-40767455D01*
X41271544Y-40767452D01*
X41156335Y-40681206D01*
X41156328Y-40681202D01*
X41021482Y-40630908D01*
X41021483Y-40630908D01*
X40961883Y-40624501D01*
X40961881Y-40624500D01*
X40961873Y-40624500D01*
X40961865Y-40624500D01*
X40929431Y-40624500D01*
X40862392Y-40604815D01*
X40816637Y-40552011D01*
X40806693Y-40482853D01*
X40835718Y-40419297D01*
X40856543Y-40400183D01*
X40973418Y-40315269D01*
X41114269Y-40174418D01*
X41231353Y-40013266D01*
X41321785Y-39835783D01*
X41383339Y-39646339D01*
X41414500Y-39449597D01*
X41414500Y-39250403D01*
X41383339Y-39053661D01*
X41383338Y-39053657D01*
X41383338Y-39053656D01*
X41321786Y-38864219D01*
X41316977Y-38854780D01*
X41231353Y-38686734D01*
X41114269Y-38525582D01*
X40973418Y-38384731D01*
X40812266Y-38267647D01*
X40660827Y-38190485D01*
X40610031Y-38142510D01*
X40593236Y-38074689D01*
X40615773Y-38008554D01*
X40660827Y-37969515D01*
X40699127Y-37950000D01*
X40812266Y-37892353D01*
X40973418Y-37775269D01*
X41114269Y-37634418D01*
X41231353Y-37473266D01*
X41321785Y-37295783D01*
X41364434Y-37164522D01*
X41383338Y-37106343D01*
X41383338Y-37106342D01*
X41383339Y-37106339D01*
X41414500Y-36909597D01*
X41414500Y-36710403D01*
X41383339Y-36513661D01*
X41383338Y-36513657D01*
X41383338Y-36513656D01*
X41321786Y-36324219D01*
X41297320Y-36276202D01*
X41231353Y-36146734D01*
X41114269Y-35985582D01*
X40973418Y-35844731D01*
X40812266Y-35727647D01*
X40660827Y-35650485D01*
X40610031Y-35602510D01*
X40593236Y-35534689D01*
X40615773Y-35468554D01*
X40660827Y-35429515D01*
X40699127Y-35410000D01*
X40812266Y-35352353D01*
X40973418Y-35235269D01*
X41114269Y-35094418D01*
X41231353Y-34933266D01*
X41321785Y-34755783D01*
X41383339Y-34566339D01*
X41414500Y-34369597D01*
X41414500Y-34170403D01*
X41383339Y-33973661D01*
X41383338Y-33973657D01*
X41383338Y-33973656D01*
X41321786Y-33784219D01*
X41231352Y-33606733D01*
X41114269Y-33445582D01*
X40973418Y-33304731D01*
X40812266Y-33187647D01*
X40660827Y-33110485D01*
X40610031Y-33062510D01*
X40593236Y-32994689D01*
X40615773Y-32928554D01*
X40660827Y-32889515D01*
X40670116Y-32884781D01*
X40812266Y-32812353D01*
X40973418Y-32695269D01*
X41114269Y-32554418D01*
X41231353Y-32393266D01*
X41321785Y-32215783D01*
X41383339Y-32026339D01*
X41414500Y-31829597D01*
X41414500Y-31630403D01*
X41383339Y-31433661D01*
X41383338Y-31433657D01*
X41383338Y-31433656D01*
X41321786Y-31244219D01*
X41265665Y-31134075D01*
X41231353Y-31066734D01*
X41114269Y-30905582D01*
X40973418Y-30764731D01*
X40812266Y-30647647D01*
X40660827Y-30570485D01*
X40610031Y-30522510D01*
X40593236Y-30454689D01*
X40615773Y-30388554D01*
X40660827Y-30349515D01*
X40670116Y-30344781D01*
X40812266Y-30272353D01*
X40973418Y-30155269D01*
X41114269Y-30014418D01*
X41231353Y-29853266D01*
X41321785Y-29675783D01*
X41383339Y-29486339D01*
X41414500Y-29289597D01*
X41414500Y-29090403D01*
X41383339Y-28893661D01*
X41383338Y-28893657D01*
X41383338Y-28893656D01*
X41321786Y-28704219D01*
X41231352Y-28526733D01*
X41114269Y-28365582D01*
X40973418Y-28224731D01*
X40812266Y-28107647D01*
X40660827Y-28030485D01*
X40610031Y-27982510D01*
X40593236Y-27914689D01*
X40615773Y-27848554D01*
X40660827Y-27809515D01*
X40670116Y-27804781D01*
X40812266Y-27732353D01*
X40973418Y-27615269D01*
X41114269Y-27474418D01*
X41231353Y-27313266D01*
X41321785Y-27135783D01*
X41326327Y-27121803D01*
X41383338Y-26946343D01*
X41383338Y-26946342D01*
X41383339Y-26946339D01*
X41414500Y-26749597D01*
X41414500Y-26550403D01*
X41383339Y-26353661D01*
X41383338Y-26353657D01*
X41383338Y-26353656D01*
X41321786Y-26164219D01*
X41282799Y-26087703D01*
X41231353Y-25986734D01*
X41114269Y-25825582D01*
X40973418Y-25684731D01*
X40812266Y-25567647D01*
X40785488Y-25554003D01*
X40660277Y-25490204D01*
X40609481Y-25442229D01*
X40592686Y-25374408D01*
X40615224Y-25308273D01*
X40660277Y-25269234D01*
X40812005Y-25191924D01*
X40849863Y-25164418D01*
X40849863Y-25164417D01*
X40286574Y-24601128D01*
X40345853Y-24585245D01*
X40462147Y-24518102D01*
X40557102Y-24423147D01*
X40624245Y-24306853D01*
X40640128Y-24247574D01*
X41203417Y-24810863D01*
X41203418Y-24810863D01*
X41208789Y-24803471D01*
X70499500Y-24803471D01*
X70499500Y-25196528D01*
X70538026Y-25587702D01*
X70614704Y-25973194D01*
X70614707Y-25973205D01*
X70728810Y-26349354D01*
X70879230Y-26712499D01*
X70879232Y-26712504D01*
X71064511Y-27059137D01*
X71064522Y-27059155D01*
X71282887Y-27385960D01*
X71282897Y-27385974D01*
X71532254Y-27689817D01*
X71810182Y-27967745D01*
X71810187Y-27967749D01*
X71810188Y-27967750D01*
X72114031Y-28217107D01*
X72440851Y-28435482D01*
X72440860Y-28435487D01*
X72440862Y-28435488D01*
X72787495Y-28620767D01*
X72787497Y-28620767D01*
X72787503Y-28620771D01*
X73150647Y-28771190D01*
X73526785Y-28885290D01*
X73526791Y-28885291D01*
X73526794Y-28885292D01*
X73526805Y-28885295D01*
X73912297Y-28961973D01*
X74303468Y-29000500D01*
X74303471Y-29000500D01*
X74696529Y-29000500D01*
X74696532Y-29000500D01*
X75087703Y-28961973D01*
X75162748Y-28947045D01*
X75473194Y-28885295D01*
X75473205Y-28885292D01*
X75473205Y-28885291D01*
X75473215Y-28885290D01*
X75849353Y-28771190D01*
X76212497Y-28620771D01*
X76559149Y-28435482D01*
X76885969Y-28217107D01*
X77189812Y-27967750D01*
X77467750Y-27689812D01*
X77717107Y-27385969D01*
X77935482Y-27059149D01*
X78120771Y-26712497D01*
X78271190Y-26349353D01*
X78385290Y-25973215D01*
X78385292Y-25973205D01*
X78385295Y-25973194D01*
X78461973Y-25587702D01*
X78463948Y-25567647D01*
X78500500Y-25196532D01*
X78500500Y-24803468D01*
X78461973Y-24412297D01*
X78442675Y-24315278D01*
X78385295Y-24026805D01*
X78385292Y-24026794D01*
X78385291Y-24026791D01*
X78385290Y-24026785D01*
X78271190Y-23650647D01*
X78120771Y-23287503D01*
X78108355Y-23264275D01*
X77935488Y-22940862D01*
X77935487Y-22940860D01*
X77935482Y-22940851D01*
X77717107Y-22614031D01*
X77467750Y-22310188D01*
X77467749Y-22310187D01*
X77467745Y-22310182D01*
X77189817Y-22032254D01*
X76885974Y-21782897D01*
X76885973Y-21782896D01*
X76885969Y-21782893D01*
X76559149Y-21564518D01*
X76559144Y-21564515D01*
X76559137Y-21564511D01*
X76212504Y-21379232D01*
X76212499Y-21379230D01*
X76177471Y-21364721D01*
X75897336Y-21248685D01*
X75849354Y-21228810D01*
X75473205Y-21114707D01*
X75473194Y-21114704D01*
X75087702Y-21038026D01*
X74793089Y-21009010D01*
X74696532Y-20999500D01*
X74303468Y-20999500D01*
X74214251Y-21008287D01*
X73912297Y-21038026D01*
X73526805Y-21114704D01*
X73526794Y-21114707D01*
X73150645Y-21228810D01*
X72787500Y-21379230D01*
X72787495Y-21379232D01*
X72440862Y-21564511D01*
X72440844Y-21564522D01*
X72114039Y-21782887D01*
X72114025Y-21782897D01*
X71810182Y-22032254D01*
X71532254Y-22310182D01*
X71282897Y-22614025D01*
X71282887Y-22614039D01*
X71064522Y-22940844D01*
X71064511Y-22940862D01*
X70879232Y-23287495D01*
X70879230Y-23287500D01*
X70728810Y-23650645D01*
X70614707Y-24026794D01*
X70614704Y-24026805D01*
X70538026Y-24412297D01*
X70517570Y-24620000D01*
X70502501Y-24773005D01*
X70499500Y-24803471D01*
X41208789Y-24803471D01*
X41230924Y-24773005D01*
X41245638Y-24744129D01*
X41321320Y-24595594D01*
X41382852Y-24406222D01*
X41414000Y-24209563D01*
X41414000Y-24010436D01*
X41382852Y-23813777D01*
X41321320Y-23624405D01*
X41230924Y-23446994D01*
X41203417Y-23409135D01*
X41203417Y-23409134D01*
X40640128Y-23972424D01*
X40624245Y-23913147D01*
X40557102Y-23796853D01*
X40462147Y-23701898D01*
X40345853Y-23634755D01*
X40286574Y-23618871D01*
X40849864Y-23055581D01*
X40849863Y-23055580D01*
X40812008Y-23028077D01*
X40634594Y-22937679D01*
X40445222Y-22876147D01*
X40248563Y-22845000D01*
X40049437Y-22845000D01*
X39852777Y-22876147D01*
X39663405Y-22937679D01*
X39485990Y-23028077D01*
X39448135Y-23055580D01*
X39448135Y-23055581D01*
X40011425Y-23618871D01*
X39952147Y-23634755D01*
X39835853Y-23701898D01*
X39740898Y-23796853D01*
X39673755Y-23913147D01*
X39657871Y-23972425D01*
X39094581Y-23409135D01*
X39094580Y-23409135D01*
X39067077Y-23446990D01*
X38976679Y-23624405D01*
X38915147Y-23813777D01*
X38884000Y-24010436D01*
X38884000Y-24209563D01*
X38915147Y-24406222D01*
X38976679Y-24595594D01*
X39067077Y-24773008D01*
X39094580Y-24810863D01*
X39094581Y-24810864D01*
X39657871Y-24247574D01*
X39673755Y-24306853D01*
X39740898Y-24423147D01*
X39835853Y-24518102D01*
X39952147Y-24585245D01*
X40011425Y-24601128D01*
X39448134Y-25164417D01*
X39485994Y-25191924D01*
X39637722Y-25269234D01*
X39688518Y-25317209D01*
X39705313Y-25385030D01*
X39682776Y-25451165D01*
X39637723Y-25490203D01*
X39485735Y-25567645D01*
X39372997Y-25649555D01*
X39324582Y-25684731D01*
X39324580Y-25684733D01*
X39324579Y-25684733D01*
X39183733Y-25825579D01*
X39183733Y-25825580D01*
X39183731Y-25825582D01*
X39180254Y-25830368D01*
X39066647Y-25986733D01*
X38976213Y-26164219D01*
X38914661Y-26353656D01*
X38914661Y-26353659D01*
X38883500Y-26550403D01*
X36676122Y-26550403D01*
X36698553Y-26481368D01*
X36722469Y-26330368D01*
X36735500Y-26248097D01*
X36735500Y-26011902D01*
X36698553Y-25778631D01*
X36636516Y-25587702D01*
X36625568Y-25554008D01*
X36625566Y-25554005D01*
X36625566Y-25554003D01*
X36518342Y-25343566D01*
X36509806Y-25331817D01*
X36379517Y-25152490D01*
X36212510Y-24985483D01*
X36021433Y-24846657D01*
X35992308Y-24831817D01*
X35810996Y-24739433D01*
X35586368Y-24666446D01*
X35353097Y-24629500D01*
X35353092Y-24629500D01*
X35116908Y-24629500D01*
X35116903Y-24629500D01*
X34883631Y-24666446D01*
X34659003Y-24739433D01*
X34448566Y-24846657D01*
X34339550Y-24925862D01*
X34257490Y-24985483D01*
X34257488Y-24985485D01*
X34257487Y-24985485D01*
X34090485Y-25152487D01*
X34090485Y-25152488D01*
X34090483Y-25152490D01*
X34058485Y-25196532D01*
X33951657Y-25343566D01*
X33844433Y-25554003D01*
X33771446Y-25778631D01*
X33734500Y-26011902D01*
X29469439Y-26011902D01*
X29471115Y-25994882D01*
X29500500Y-25696532D01*
X29500500Y-25303468D01*
X29461973Y-24912297D01*
X29385295Y-24526805D01*
X29385292Y-24526794D01*
X29385291Y-24526791D01*
X29385290Y-24526785D01*
X29271190Y-24150647D01*
X29271188Y-24150641D01*
X29230753Y-24053022D01*
X29172814Y-23913147D01*
X29120771Y-23787503D01*
X29108355Y-23764275D01*
X28935488Y-23440862D01*
X28935487Y-23440860D01*
X28935482Y-23440851D01*
X28717107Y-23114031D01*
X28467750Y-22810188D01*
X28467749Y-22810187D01*
X28467745Y-22810182D01*
X28381510Y-22723947D01*
X45744500Y-22723947D01*
X45744500Y-22956052D01*
X45774794Y-23186148D01*
X45834862Y-23410328D01*
X45923677Y-23624745D01*
X45923685Y-23624762D01*
X46039720Y-23825743D01*
X46039721Y-23825745D01*
X46181009Y-24009875D01*
X46181015Y-24009882D01*
X46345117Y-24173984D01*
X46345124Y-24173990D01*
X46529254Y-24315278D01*
X46529256Y-24315279D01*
X46730237Y-24431314D01*
X46730240Y-24431315D01*
X46730248Y-24431320D01*
X46944670Y-24520137D01*
X47168851Y-24580206D01*
X47398955Y-24610500D01*
X47398962Y-24610500D01*
X47631038Y-24610500D01*
X47631045Y-24610500D01*
X47861149Y-24580206D01*
X48085330Y-24520137D01*
X48299752Y-24431320D01*
X48500748Y-24315276D01*
X48684877Y-24173989D01*
X48848989Y-24009877D01*
X48990276Y-23825748D01*
X49106320Y-23624752D01*
X49195137Y-23410330D01*
X49255206Y-23186149D01*
X49285500Y-22956045D01*
X49285500Y-22723955D01*
X49285499Y-22723947D01*
X66064500Y-22723947D01*
X66064500Y-22956052D01*
X66094794Y-23186148D01*
X66154862Y-23410328D01*
X66243677Y-23624745D01*
X66243685Y-23624762D01*
X66359720Y-23825743D01*
X66359721Y-23825745D01*
X66501009Y-24009875D01*
X66501015Y-24009882D01*
X66665117Y-24173984D01*
X66665124Y-24173990D01*
X66849254Y-24315278D01*
X66849256Y-24315279D01*
X67050237Y-24431314D01*
X67050240Y-24431315D01*
X67050248Y-24431320D01*
X67264670Y-24520137D01*
X67488851Y-24580206D01*
X67718955Y-24610500D01*
X67718962Y-24610500D01*
X67951038Y-24610500D01*
X67951045Y-24610500D01*
X68181149Y-24580206D01*
X68405330Y-24520137D01*
X68619752Y-24431320D01*
X68820748Y-24315276D01*
X69004877Y-24173989D01*
X69168989Y-24009877D01*
X69310276Y-23825748D01*
X69426320Y-23624752D01*
X69515137Y-23410330D01*
X69575206Y-23186149D01*
X69605500Y-22956045D01*
X69605500Y-22723955D01*
X69575206Y-22493851D01*
X69515137Y-22269670D01*
X69426320Y-22055248D01*
X69426314Y-22055237D01*
X69310279Y-21854256D01*
X69310278Y-21854254D01*
X69168990Y-21670124D01*
X69168984Y-21670117D01*
X69004882Y-21506015D01*
X69004875Y-21506009D01*
X68820745Y-21364721D01*
X68820743Y-21364720D01*
X68619762Y-21248685D01*
X68619754Y-21248681D01*
X68619752Y-21248680D01*
X68405330Y-21159863D01*
X68405331Y-21159863D01*
X68405328Y-21159862D01*
X68236794Y-21114704D01*
X68181149Y-21099794D01*
X68152386Y-21096007D01*
X67951052Y-21069500D01*
X67951045Y-21069500D01*
X67718955Y-21069500D01*
X67718947Y-21069500D01*
X67488851Y-21099794D01*
X67264671Y-21159862D01*
X67050254Y-21248677D01*
X67050237Y-21248685D01*
X66849256Y-21364720D01*
X66849254Y-21364721D01*
X66665124Y-21506009D01*
X66665117Y-21506015D01*
X66501015Y-21670117D01*
X66501009Y-21670124D01*
X66359721Y-21854254D01*
X66359720Y-21854256D01*
X66243685Y-22055237D01*
X66243677Y-22055254D01*
X66154862Y-22269671D01*
X66094794Y-22493851D01*
X66064500Y-22723947D01*
X49285499Y-22723947D01*
X49255206Y-22493851D01*
X49195137Y-22269670D01*
X49106320Y-22055248D01*
X49106314Y-22055237D01*
X48990279Y-21854256D01*
X48990278Y-21854254D01*
X48848990Y-21670124D01*
X48848984Y-21670117D01*
X48684882Y-21506015D01*
X48684875Y-21506009D01*
X48500745Y-21364721D01*
X48500743Y-21364720D01*
X48299762Y-21248685D01*
X48299754Y-21248681D01*
X48299752Y-21248680D01*
X48085330Y-21159863D01*
X48085331Y-21159863D01*
X48085328Y-21159862D01*
X47916794Y-21114704D01*
X47861149Y-21099794D01*
X47832386Y-21096007D01*
X47631052Y-21069500D01*
X47631045Y-21069500D01*
X47398955Y-21069500D01*
X47398947Y-21069500D01*
X47168851Y-21099794D01*
X46944671Y-21159862D01*
X46730254Y-21248677D01*
X46730237Y-21248685D01*
X46529256Y-21364720D01*
X46529254Y-21364721D01*
X46345124Y-21506009D01*
X46345117Y-21506015D01*
X46181015Y-21670117D01*
X46181009Y-21670124D01*
X46039721Y-21854254D01*
X46039720Y-21854256D01*
X45923685Y-22055237D01*
X45923677Y-22055254D01*
X45834862Y-22269671D01*
X45774794Y-22493851D01*
X45744500Y-22723947D01*
X28381510Y-22723947D01*
X28189817Y-22532254D01*
X27885974Y-22282897D01*
X27885973Y-22282896D01*
X27885969Y-22282893D01*
X27559149Y-22064518D01*
X27559144Y-22064515D01*
X27559137Y-22064511D01*
X27212504Y-21879232D01*
X27212499Y-21879230D01*
X26849354Y-21728810D01*
X26473205Y-21614707D01*
X26473194Y-21614704D01*
X26087702Y-21538026D01*
X25793089Y-21509010D01*
X25696532Y-21499500D01*
X25303468Y-21499500D01*
X25214251Y-21508287D01*
X24912297Y-21538026D01*
X24526805Y-21614704D01*
X24526794Y-21614707D01*
X24150645Y-21728810D01*
X23787500Y-21879230D01*
X23787495Y-21879232D01*
X23440862Y-22064511D01*
X23440844Y-22064522D01*
X23114039Y-22282887D01*
X23114025Y-22282897D01*
X22810182Y-22532254D01*
X22532254Y-22810182D01*
X22282897Y-23114025D01*
X22282887Y-23114039D01*
X22064522Y-23440844D01*
X22064511Y-23440862D01*
X21879232Y-23787495D01*
X21879230Y-23787500D01*
X21728810Y-24150645D01*
X21614707Y-24526794D01*
X21614704Y-24526805D01*
X21538026Y-24912297D01*
X21499500Y-25303471D01*
X20500500Y-25303471D01*
X20500500Y-20624500D01*
X20520185Y-20557461D01*
X20572989Y-20511706D01*
X20624500Y-20500500D01*
X79375500Y-20500500D01*
X79442539Y-20520185D01*
G37*
%TD.AperFunction*%
%TD*%
M02*
