%TF.GenerationSoftware,KiCad,Pcbnew,9.0.5*%
%TF.CreationDate,2026-03-03T09:19:45-07:00*%
%TF.ProjectId,Payload_2026_PCB_v1,5061796c-6f61-4645-9f32-3032365f5043,rev?*%
%TF.SameCoordinates,Original*%
%TF.FileFunction,Legend,Top*%
%TF.FilePolarity,Positive*%
%FSLAX46Y46*%
G04 Gerber Fmt 4.6, Leading zero omitted, Abs format (unit mm)*
G04 Created by KiCad (PCBNEW 9.0.5) date 2026-03-03 09:19:45*
%MOMM*%
%LPD*%
G01*
G04 APERTURE LIST*
%ADD10C,0.100000*%
%ADD11C,0.150000*%
%ADD12C,0.050000*%
%ADD13C,0.127000*%
%ADD14C,0.120000*%
G04 APERTURE END LIST*
D10*
X75602990Y-56324687D02*
X75564895Y-56400877D01*
X75564895Y-56400877D02*
X75564895Y-56515163D01*
X75564895Y-56515163D02*
X75602990Y-56629449D01*
X75602990Y-56629449D02*
X75679180Y-56705639D01*
X75679180Y-56705639D02*
X75755371Y-56743734D01*
X75755371Y-56743734D02*
X75907752Y-56781830D01*
X75907752Y-56781830D02*
X76022038Y-56781830D01*
X76022038Y-56781830D02*
X76174419Y-56743734D01*
X76174419Y-56743734D02*
X76250609Y-56705639D01*
X76250609Y-56705639D02*
X76326800Y-56629449D01*
X76326800Y-56629449D02*
X76364895Y-56515163D01*
X76364895Y-56515163D02*
X76364895Y-56438972D01*
X76364895Y-56438972D02*
X76326800Y-56324687D01*
X76326800Y-56324687D02*
X76288704Y-56286591D01*
X76288704Y-56286591D02*
X76022038Y-56286591D01*
X76022038Y-56286591D02*
X76022038Y-56438972D01*
X76364895Y-55943734D02*
X75564895Y-55943734D01*
X75564895Y-55943734D02*
X76364895Y-55486591D01*
X76364895Y-55486591D02*
X75564895Y-55486591D01*
X76364895Y-55105639D02*
X75564895Y-55105639D01*
X75564895Y-55105639D02*
X75564895Y-54915163D01*
X75564895Y-54915163D02*
X75602990Y-54800877D01*
X75602990Y-54800877D02*
X75679180Y-54724687D01*
X75679180Y-54724687D02*
X75755371Y-54686592D01*
X75755371Y-54686592D02*
X75907752Y-54648496D01*
X75907752Y-54648496D02*
X76022038Y-54648496D01*
X76022038Y-54648496D02*
X76174419Y-54686592D01*
X76174419Y-54686592D02*
X76250609Y-54724687D01*
X76250609Y-54724687D02*
X76326800Y-54800877D01*
X76326800Y-54800877D02*
X76364895Y-54915163D01*
X76364895Y-54915163D02*
X76364895Y-55105639D01*
X68064895Y-69441979D02*
X68064895Y-69822931D01*
X68064895Y-69822931D02*
X68445847Y-69861027D01*
X68445847Y-69861027D02*
X68407752Y-69822931D01*
X68407752Y-69822931D02*
X68369657Y-69746741D01*
X68369657Y-69746741D02*
X68369657Y-69556265D01*
X68369657Y-69556265D02*
X68407752Y-69480074D01*
X68407752Y-69480074D02*
X68445847Y-69441979D01*
X68445847Y-69441979D02*
X68522038Y-69403884D01*
X68522038Y-69403884D02*
X68712514Y-69403884D01*
X68712514Y-69403884D02*
X68788704Y-69441979D01*
X68788704Y-69441979D02*
X68826800Y-69480074D01*
X68826800Y-69480074D02*
X68864895Y-69556265D01*
X68864895Y-69556265D02*
X68864895Y-69746741D01*
X68864895Y-69746741D02*
X68826800Y-69822931D01*
X68826800Y-69822931D02*
X68788704Y-69861027D01*
X68064895Y-69175312D02*
X68864895Y-68908645D01*
X68864895Y-68908645D02*
X68064895Y-68641979D01*
X70672371Y-70451503D02*
X70672371Y-70108646D01*
X71272371Y-70280074D02*
X70672371Y-70280074D01*
X71272371Y-69565788D02*
X70986657Y-69765788D01*
X71272371Y-69908645D02*
X70672371Y-69908645D01*
X70672371Y-69908645D02*
X70672371Y-69680074D01*
X70672371Y-69680074D02*
X70700942Y-69622931D01*
X70700942Y-69622931D02*
X70729514Y-69594360D01*
X70729514Y-69594360D02*
X70786657Y-69565788D01*
X70786657Y-69565788D02*
X70872371Y-69565788D01*
X70872371Y-69565788D02*
X70929514Y-69594360D01*
X70929514Y-69594360D02*
X70958085Y-69622931D01*
X70958085Y-69622931D02*
X70986657Y-69680074D01*
X70986657Y-69680074D02*
X70986657Y-69908645D01*
X71272371Y-69308645D02*
X70672371Y-69308645D01*
X70700942Y-68708646D02*
X70672371Y-68765789D01*
X70672371Y-68765789D02*
X70672371Y-68851503D01*
X70672371Y-68851503D02*
X70700942Y-68937217D01*
X70700942Y-68937217D02*
X70758085Y-68994360D01*
X70758085Y-68994360D02*
X70815228Y-69022931D01*
X70815228Y-69022931D02*
X70929514Y-69051503D01*
X70929514Y-69051503D02*
X71015228Y-69051503D01*
X71015228Y-69051503D02*
X71129514Y-69022931D01*
X71129514Y-69022931D02*
X71186657Y-68994360D01*
X71186657Y-68994360D02*
X71243800Y-68937217D01*
X71243800Y-68937217D02*
X71272371Y-68851503D01*
X71272371Y-68851503D02*
X71272371Y-68794360D01*
X71272371Y-68794360D02*
X71243800Y-68708646D01*
X71243800Y-68708646D02*
X71215228Y-68680074D01*
X71215228Y-68680074D02*
X71015228Y-68680074D01*
X71015228Y-68680074D02*
X71015228Y-68794360D01*
X73458085Y-70822930D02*
X73458085Y-70622930D01*
X73772371Y-70537216D02*
X73772371Y-70822930D01*
X73772371Y-70822930D02*
X73172371Y-70822930D01*
X73172371Y-70822930D02*
X73172371Y-70537216D01*
X73715228Y-69937216D02*
X73743800Y-69965788D01*
X73743800Y-69965788D02*
X73772371Y-70051502D01*
X73772371Y-70051502D02*
X73772371Y-70108645D01*
X73772371Y-70108645D02*
X73743800Y-70194359D01*
X73743800Y-70194359D02*
X73686657Y-70251502D01*
X73686657Y-70251502D02*
X73629514Y-70280073D01*
X73629514Y-70280073D02*
X73515228Y-70308645D01*
X73515228Y-70308645D02*
X73429514Y-70308645D01*
X73429514Y-70308645D02*
X73315228Y-70280073D01*
X73315228Y-70280073D02*
X73258085Y-70251502D01*
X73258085Y-70251502D02*
X73200942Y-70194359D01*
X73200942Y-70194359D02*
X73172371Y-70108645D01*
X73172371Y-70108645D02*
X73172371Y-70051502D01*
X73172371Y-70051502D02*
X73200942Y-69965788D01*
X73200942Y-69965788D02*
X73229514Y-69937216D01*
X73772371Y-69680073D02*
X73172371Y-69680073D01*
X73458085Y-69680073D02*
X73458085Y-69337216D01*
X73772371Y-69337216D02*
X73172371Y-69337216D01*
X73172371Y-68937217D02*
X73172371Y-68822931D01*
X73172371Y-68822931D02*
X73200942Y-68765788D01*
X73200942Y-68765788D02*
X73258085Y-68708645D01*
X73258085Y-68708645D02*
X73372371Y-68680074D01*
X73372371Y-68680074D02*
X73572371Y-68680074D01*
X73572371Y-68680074D02*
X73686657Y-68708645D01*
X73686657Y-68708645D02*
X73743800Y-68765788D01*
X73743800Y-68765788D02*
X73772371Y-68822931D01*
X73772371Y-68822931D02*
X73772371Y-68937217D01*
X73772371Y-68937217D02*
X73743800Y-68994360D01*
X73743800Y-68994360D02*
X73686657Y-69051502D01*
X73686657Y-69051502D02*
X73572371Y-69080074D01*
X73572371Y-69080074D02*
X73372371Y-69080074D01*
X73372371Y-69080074D02*
X73258085Y-69051502D01*
X73258085Y-69051502D02*
X73200942Y-68994360D01*
X73200942Y-68994360D02*
X73172371Y-68937217D01*
X73458085Y-56791353D02*
X73458085Y-56591353D01*
X73772371Y-56505639D02*
X73772371Y-56791353D01*
X73772371Y-56791353D02*
X73172371Y-56791353D01*
X73172371Y-56791353D02*
X73172371Y-56505639D01*
X73715228Y-55905639D02*
X73743800Y-55934211D01*
X73743800Y-55934211D02*
X73772371Y-56019925D01*
X73772371Y-56019925D02*
X73772371Y-56077068D01*
X73772371Y-56077068D02*
X73743800Y-56162782D01*
X73743800Y-56162782D02*
X73686657Y-56219925D01*
X73686657Y-56219925D02*
X73629514Y-56248496D01*
X73629514Y-56248496D02*
X73515228Y-56277068D01*
X73515228Y-56277068D02*
X73429514Y-56277068D01*
X73429514Y-56277068D02*
X73315228Y-56248496D01*
X73315228Y-56248496D02*
X73258085Y-56219925D01*
X73258085Y-56219925D02*
X73200942Y-56162782D01*
X73200942Y-56162782D02*
X73172371Y-56077068D01*
X73172371Y-56077068D02*
X73172371Y-56019925D01*
X73172371Y-56019925D02*
X73200942Y-55934211D01*
X73200942Y-55934211D02*
X73229514Y-55905639D01*
X73772371Y-55648496D02*
X73172371Y-55648496D01*
X73458085Y-55648496D02*
X73458085Y-55305639D01*
X73772371Y-55305639D02*
X73172371Y-55305639D01*
X73172371Y-54905640D02*
X73172371Y-54791354D01*
X73172371Y-54791354D02*
X73200942Y-54734211D01*
X73200942Y-54734211D02*
X73258085Y-54677068D01*
X73258085Y-54677068D02*
X73372371Y-54648497D01*
X73372371Y-54648497D02*
X73572371Y-54648497D01*
X73572371Y-54648497D02*
X73686657Y-54677068D01*
X73686657Y-54677068D02*
X73743800Y-54734211D01*
X73743800Y-54734211D02*
X73772371Y-54791354D01*
X73772371Y-54791354D02*
X73772371Y-54905640D01*
X73772371Y-54905640D02*
X73743800Y-54962783D01*
X73743800Y-54962783D02*
X73686657Y-55019925D01*
X73686657Y-55019925D02*
X73572371Y-55048497D01*
X73572371Y-55048497D02*
X73372371Y-55048497D01*
X73372371Y-55048497D02*
X73258085Y-55019925D01*
X73258085Y-55019925D02*
X73200942Y-54962783D01*
X73200942Y-54962783D02*
X73172371Y-54905640D01*
X70482371Y-49212068D02*
X70482371Y-48869211D01*
X71082371Y-49040639D02*
X70482371Y-49040639D01*
X71082371Y-48326353D02*
X70796657Y-48526353D01*
X71082371Y-48669210D02*
X70482371Y-48669210D01*
X70482371Y-48669210D02*
X70482371Y-48440639D01*
X70482371Y-48440639D02*
X70510942Y-48383496D01*
X70510942Y-48383496D02*
X70539514Y-48354925D01*
X70539514Y-48354925D02*
X70596657Y-48326353D01*
X70596657Y-48326353D02*
X70682371Y-48326353D01*
X70682371Y-48326353D02*
X70739514Y-48354925D01*
X70739514Y-48354925D02*
X70768085Y-48383496D01*
X70768085Y-48383496D02*
X70796657Y-48440639D01*
X70796657Y-48440639D02*
X70796657Y-48669210D01*
X71082371Y-48069210D02*
X70482371Y-48069210D01*
X70510942Y-47469211D02*
X70482371Y-47526354D01*
X70482371Y-47526354D02*
X70482371Y-47612068D01*
X70482371Y-47612068D02*
X70510942Y-47697782D01*
X70510942Y-47697782D02*
X70568085Y-47754925D01*
X70568085Y-47754925D02*
X70625228Y-47783496D01*
X70625228Y-47783496D02*
X70739514Y-47812068D01*
X70739514Y-47812068D02*
X70825228Y-47812068D01*
X70825228Y-47812068D02*
X70939514Y-47783496D01*
X70939514Y-47783496D02*
X70996657Y-47754925D01*
X70996657Y-47754925D02*
X71053800Y-47697782D01*
X71053800Y-47697782D02*
X71082371Y-47612068D01*
X71082371Y-47612068D02*
X71082371Y-47554925D01*
X71082371Y-47554925D02*
X71053800Y-47469211D01*
X71053800Y-47469211D02*
X71025228Y-47440639D01*
X71025228Y-47440639D02*
X70825228Y-47440639D01*
X70825228Y-47440639D02*
X70825228Y-47554925D01*
X49528571Y-69858800D02*
X49642857Y-69896895D01*
X49642857Y-69896895D02*
X49833333Y-69896895D01*
X49833333Y-69896895D02*
X49909524Y-69858800D01*
X49909524Y-69858800D02*
X49947619Y-69820704D01*
X49947619Y-69820704D02*
X49985714Y-69744514D01*
X49985714Y-69744514D02*
X49985714Y-69668323D01*
X49985714Y-69668323D02*
X49947619Y-69592133D01*
X49947619Y-69592133D02*
X49909524Y-69554038D01*
X49909524Y-69554038D02*
X49833333Y-69515942D01*
X49833333Y-69515942D02*
X49680952Y-69477847D01*
X49680952Y-69477847D02*
X49604762Y-69439752D01*
X49604762Y-69439752D02*
X49566667Y-69401657D01*
X49566667Y-69401657D02*
X49528571Y-69325466D01*
X49528571Y-69325466D02*
X49528571Y-69249276D01*
X49528571Y-69249276D02*
X49566667Y-69173085D01*
X49566667Y-69173085D02*
X49604762Y-69134990D01*
X49604762Y-69134990D02*
X49680952Y-69096895D01*
X49680952Y-69096895D02*
X49871429Y-69096895D01*
X49871429Y-69096895D02*
X49985714Y-69134990D01*
X50328572Y-69896895D02*
X50328572Y-69096895D01*
X50328572Y-69096895D02*
X50519048Y-69096895D01*
X50519048Y-69096895D02*
X50633334Y-69134990D01*
X50633334Y-69134990D02*
X50709524Y-69211180D01*
X50709524Y-69211180D02*
X50747619Y-69287371D01*
X50747619Y-69287371D02*
X50785715Y-69439752D01*
X50785715Y-69439752D02*
X50785715Y-69554038D01*
X50785715Y-69554038D02*
X50747619Y-69706419D01*
X50747619Y-69706419D02*
X50709524Y-69782609D01*
X50709524Y-69782609D02*
X50633334Y-69858800D01*
X50633334Y-69858800D02*
X50519048Y-69896895D01*
X50519048Y-69896895D02*
X50328572Y-69896895D01*
X51090476Y-69668323D02*
X51471429Y-69668323D01*
X51014286Y-69896895D02*
X51280953Y-69096895D01*
X51280953Y-69096895D02*
X51547619Y-69896895D01*
X70672371Y-56877068D02*
X70672371Y-56534211D01*
X71272371Y-56705639D02*
X70672371Y-56705639D01*
X71272371Y-55991353D02*
X70986657Y-56191353D01*
X71272371Y-56334210D02*
X70672371Y-56334210D01*
X70672371Y-56334210D02*
X70672371Y-56105639D01*
X70672371Y-56105639D02*
X70700942Y-56048496D01*
X70700942Y-56048496D02*
X70729514Y-56019925D01*
X70729514Y-56019925D02*
X70786657Y-55991353D01*
X70786657Y-55991353D02*
X70872371Y-55991353D01*
X70872371Y-55991353D02*
X70929514Y-56019925D01*
X70929514Y-56019925D02*
X70958085Y-56048496D01*
X70958085Y-56048496D02*
X70986657Y-56105639D01*
X70986657Y-56105639D02*
X70986657Y-56334210D01*
X71272371Y-55734210D02*
X70672371Y-55734210D01*
X70700942Y-55134211D02*
X70672371Y-55191354D01*
X70672371Y-55191354D02*
X70672371Y-55277068D01*
X70672371Y-55277068D02*
X70700942Y-55362782D01*
X70700942Y-55362782D02*
X70758085Y-55419925D01*
X70758085Y-55419925D02*
X70815228Y-55448496D01*
X70815228Y-55448496D02*
X70929514Y-55477068D01*
X70929514Y-55477068D02*
X71015228Y-55477068D01*
X71015228Y-55477068D02*
X71129514Y-55448496D01*
X71129514Y-55448496D02*
X71186657Y-55419925D01*
X71186657Y-55419925D02*
X71243800Y-55362782D01*
X71243800Y-55362782D02*
X71272371Y-55277068D01*
X71272371Y-55277068D02*
X71272371Y-55219925D01*
X71272371Y-55219925D02*
X71243800Y-55134211D01*
X71243800Y-55134211D02*
X71215228Y-55105639D01*
X71215228Y-55105639D02*
X71015228Y-55105639D01*
X71015228Y-55105639D02*
X71015228Y-55219925D01*
X29586704Y-63743734D02*
X29586704Y-63267544D01*
X29872419Y-63838972D02*
X28872419Y-63505639D01*
X28872419Y-63505639D02*
X29872419Y-63172306D01*
X29872419Y-62838972D02*
X29205752Y-62838972D01*
X29396228Y-62838972D02*
X29300990Y-62791353D01*
X29300990Y-62791353D02*
X29253371Y-62743734D01*
X29253371Y-62743734D02*
X29205752Y-62648496D01*
X29205752Y-62648496D02*
X29205752Y-62553258D01*
X29872419Y-61791353D02*
X28872419Y-61791353D01*
X29824800Y-61791353D02*
X29872419Y-61886591D01*
X29872419Y-61886591D02*
X29872419Y-62077067D01*
X29872419Y-62077067D02*
X29824800Y-62172305D01*
X29824800Y-62172305D02*
X29777180Y-62219924D01*
X29777180Y-62219924D02*
X29681942Y-62267543D01*
X29681942Y-62267543D02*
X29396228Y-62267543D01*
X29396228Y-62267543D02*
X29300990Y-62219924D01*
X29300990Y-62219924D02*
X29253371Y-62172305D01*
X29253371Y-62172305D02*
X29205752Y-62077067D01*
X29205752Y-62077067D02*
X29205752Y-61886591D01*
X29205752Y-61886591D02*
X29253371Y-61791353D01*
X29205752Y-60886591D02*
X29872419Y-60886591D01*
X29205752Y-61315162D02*
X29729561Y-61315162D01*
X29729561Y-61315162D02*
X29824800Y-61267543D01*
X29824800Y-61267543D02*
X29872419Y-61172305D01*
X29872419Y-61172305D02*
X29872419Y-61029448D01*
X29872419Y-61029448D02*
X29824800Y-60934210D01*
X29824800Y-60934210D02*
X29777180Y-60886591D01*
X29872419Y-60410400D02*
X29205752Y-60410400D01*
X28872419Y-60410400D02*
X28920038Y-60458019D01*
X28920038Y-60458019D02*
X28967657Y-60410400D01*
X28967657Y-60410400D02*
X28920038Y-60362781D01*
X28920038Y-60362781D02*
X28872419Y-60410400D01*
X28872419Y-60410400D02*
X28967657Y-60410400D01*
X29205752Y-59934210D02*
X29872419Y-59934210D01*
X29300990Y-59934210D02*
X29253371Y-59886591D01*
X29253371Y-59886591D02*
X29205752Y-59791353D01*
X29205752Y-59791353D02*
X29205752Y-59648496D01*
X29205752Y-59648496D02*
X29253371Y-59553258D01*
X29253371Y-59553258D02*
X29348609Y-59505639D01*
X29348609Y-59505639D02*
X29872419Y-59505639D01*
X29872419Y-58886591D02*
X29824800Y-58981829D01*
X29824800Y-58981829D02*
X29777180Y-59029448D01*
X29777180Y-59029448D02*
X29681942Y-59077067D01*
X29681942Y-59077067D02*
X29396228Y-59077067D01*
X29396228Y-59077067D02*
X29300990Y-59029448D01*
X29300990Y-59029448D02*
X29253371Y-58981829D01*
X29253371Y-58981829D02*
X29205752Y-58886591D01*
X29205752Y-58886591D02*
X29205752Y-58743734D01*
X29205752Y-58743734D02*
X29253371Y-58648496D01*
X29253371Y-58648496D02*
X29300990Y-58600877D01*
X29300990Y-58600877D02*
X29396228Y-58553258D01*
X29396228Y-58553258D02*
X29681942Y-58553258D01*
X29681942Y-58553258D02*
X29777180Y-58600877D01*
X29777180Y-58600877D02*
X29824800Y-58648496D01*
X29824800Y-58648496D02*
X29872419Y-58743734D01*
X29872419Y-58743734D02*
X29872419Y-58886591D01*
X29872419Y-57362781D02*
X28872419Y-57362781D01*
X28872419Y-57362781D02*
X29872419Y-56791353D01*
X29872419Y-56791353D02*
X28872419Y-56791353D01*
X29872419Y-55886591D02*
X29348609Y-55886591D01*
X29348609Y-55886591D02*
X29253371Y-55934210D01*
X29253371Y-55934210D02*
X29205752Y-56029448D01*
X29205752Y-56029448D02*
X29205752Y-56219924D01*
X29205752Y-56219924D02*
X29253371Y-56315162D01*
X29824800Y-55886591D02*
X29872419Y-55981829D01*
X29872419Y-55981829D02*
X29872419Y-56219924D01*
X29872419Y-56219924D02*
X29824800Y-56315162D01*
X29824800Y-56315162D02*
X29729561Y-56362781D01*
X29729561Y-56362781D02*
X29634323Y-56362781D01*
X29634323Y-56362781D02*
X29539085Y-56315162D01*
X29539085Y-56315162D02*
X29491466Y-56219924D01*
X29491466Y-56219924D02*
X29491466Y-55981829D01*
X29491466Y-55981829D02*
X29443847Y-55886591D01*
X29205752Y-55410400D02*
X29872419Y-55410400D01*
X29300990Y-55410400D02*
X29253371Y-55362781D01*
X29253371Y-55362781D02*
X29205752Y-55267543D01*
X29205752Y-55267543D02*
X29205752Y-55124686D01*
X29205752Y-55124686D02*
X29253371Y-55029448D01*
X29253371Y-55029448D02*
X29348609Y-54981829D01*
X29348609Y-54981829D02*
X29872419Y-54981829D01*
X29872419Y-54362781D02*
X29824800Y-54458019D01*
X29824800Y-54458019D02*
X29777180Y-54505638D01*
X29777180Y-54505638D02*
X29681942Y-54553257D01*
X29681942Y-54553257D02*
X29396228Y-54553257D01*
X29396228Y-54553257D02*
X29300990Y-54505638D01*
X29300990Y-54505638D02*
X29253371Y-54458019D01*
X29253371Y-54458019D02*
X29205752Y-54362781D01*
X29205752Y-54362781D02*
X29205752Y-54219924D01*
X29205752Y-54219924D02*
X29253371Y-54124686D01*
X29253371Y-54124686D02*
X29300990Y-54077067D01*
X29300990Y-54077067D02*
X29396228Y-54029448D01*
X29396228Y-54029448D02*
X29681942Y-54029448D01*
X29681942Y-54029448D02*
X29777180Y-54077067D01*
X29777180Y-54077067D02*
X29824800Y-54124686D01*
X29824800Y-54124686D02*
X29872419Y-54219924D01*
X29872419Y-54219924D02*
X29872419Y-54362781D01*
X29348609Y-52838971D02*
X29348609Y-52505638D01*
X29872419Y-52362781D02*
X29872419Y-52838971D01*
X29872419Y-52838971D02*
X28872419Y-52838971D01*
X28872419Y-52838971D02*
X28872419Y-52362781D01*
X29205752Y-52029447D02*
X29872419Y-51791352D01*
X29872419Y-51791352D02*
X29205752Y-51553257D01*
X29824800Y-50791352D02*
X29872419Y-50886590D01*
X29872419Y-50886590D02*
X29872419Y-51077066D01*
X29872419Y-51077066D02*
X29824800Y-51172304D01*
X29824800Y-51172304D02*
X29729561Y-51219923D01*
X29729561Y-51219923D02*
X29348609Y-51219923D01*
X29348609Y-51219923D02*
X29253371Y-51172304D01*
X29253371Y-51172304D02*
X29205752Y-51077066D01*
X29205752Y-51077066D02*
X29205752Y-50886590D01*
X29205752Y-50886590D02*
X29253371Y-50791352D01*
X29253371Y-50791352D02*
X29348609Y-50743733D01*
X29348609Y-50743733D02*
X29443847Y-50743733D01*
X29443847Y-50743733D02*
X29539085Y-51219923D01*
X29872419Y-50315161D02*
X29205752Y-50315161D01*
X29396228Y-50315161D02*
X29300990Y-50267542D01*
X29300990Y-50267542D02*
X29253371Y-50219923D01*
X29253371Y-50219923D02*
X29205752Y-50124685D01*
X29205752Y-50124685D02*
X29205752Y-50029447D01*
X29205752Y-49791351D02*
X29872419Y-49553256D01*
X29205752Y-49315161D02*
X29872419Y-49553256D01*
X29872419Y-49553256D02*
X30110514Y-49648494D01*
X30110514Y-49648494D02*
X30158133Y-49696113D01*
X30158133Y-49696113D02*
X30205752Y-49791351D01*
X75602990Y-70394360D02*
X75564895Y-70470550D01*
X75564895Y-70470550D02*
X75564895Y-70584836D01*
X75564895Y-70584836D02*
X75602990Y-70699122D01*
X75602990Y-70699122D02*
X75679180Y-70775312D01*
X75679180Y-70775312D02*
X75755371Y-70813407D01*
X75755371Y-70813407D02*
X75907752Y-70851503D01*
X75907752Y-70851503D02*
X76022038Y-70851503D01*
X76022038Y-70851503D02*
X76174419Y-70813407D01*
X76174419Y-70813407D02*
X76250609Y-70775312D01*
X76250609Y-70775312D02*
X76326800Y-70699122D01*
X76326800Y-70699122D02*
X76364895Y-70584836D01*
X76364895Y-70584836D02*
X76364895Y-70508645D01*
X76364895Y-70508645D02*
X76326800Y-70394360D01*
X76326800Y-70394360D02*
X76288704Y-70356264D01*
X76288704Y-70356264D02*
X76022038Y-70356264D01*
X76022038Y-70356264D02*
X76022038Y-70508645D01*
X76364895Y-70013407D02*
X75564895Y-70013407D01*
X75564895Y-70013407D02*
X76364895Y-69556264D01*
X76364895Y-69556264D02*
X75564895Y-69556264D01*
X76364895Y-69175312D02*
X75564895Y-69175312D01*
X75564895Y-69175312D02*
X75564895Y-68984836D01*
X75564895Y-68984836D02*
X75602990Y-68870550D01*
X75602990Y-68870550D02*
X75679180Y-68794360D01*
X75679180Y-68794360D02*
X75755371Y-68756265D01*
X75755371Y-68756265D02*
X75907752Y-68718169D01*
X75907752Y-68718169D02*
X76022038Y-68718169D01*
X76022038Y-68718169D02*
X76174419Y-68756265D01*
X76174419Y-68756265D02*
X76250609Y-68794360D01*
X76250609Y-68794360D02*
X76326800Y-68870550D01*
X76326800Y-68870550D02*
X76364895Y-68984836D01*
X76364895Y-68984836D02*
X76364895Y-69175312D01*
X55347619Y-61596895D02*
X54966667Y-61596895D01*
X54966667Y-61596895D02*
X54928571Y-61977847D01*
X54928571Y-61977847D02*
X54966667Y-61939752D01*
X54966667Y-61939752D02*
X55042857Y-61901657D01*
X55042857Y-61901657D02*
X55233333Y-61901657D01*
X55233333Y-61901657D02*
X55309524Y-61939752D01*
X55309524Y-61939752D02*
X55347619Y-61977847D01*
X55347619Y-61977847D02*
X55385714Y-62054038D01*
X55385714Y-62054038D02*
X55385714Y-62244514D01*
X55385714Y-62244514D02*
X55347619Y-62320704D01*
X55347619Y-62320704D02*
X55309524Y-62358800D01*
X55309524Y-62358800D02*
X55233333Y-62396895D01*
X55233333Y-62396895D02*
X55042857Y-62396895D01*
X55042857Y-62396895D02*
X54966667Y-62358800D01*
X54966667Y-62358800D02*
X54928571Y-62320704D01*
X55614286Y-61596895D02*
X55880953Y-62396895D01*
X55880953Y-62396895D02*
X56147619Y-61596895D01*
X52390476Y-61634990D02*
X52314286Y-61596895D01*
X52314286Y-61596895D02*
X52200000Y-61596895D01*
X52200000Y-61596895D02*
X52085714Y-61634990D01*
X52085714Y-61634990D02*
X52009524Y-61711180D01*
X52009524Y-61711180D02*
X51971429Y-61787371D01*
X51971429Y-61787371D02*
X51933333Y-61939752D01*
X51933333Y-61939752D02*
X51933333Y-62054038D01*
X51933333Y-62054038D02*
X51971429Y-62206419D01*
X51971429Y-62206419D02*
X52009524Y-62282609D01*
X52009524Y-62282609D02*
X52085714Y-62358800D01*
X52085714Y-62358800D02*
X52200000Y-62396895D01*
X52200000Y-62396895D02*
X52276191Y-62396895D01*
X52276191Y-62396895D02*
X52390476Y-62358800D01*
X52390476Y-62358800D02*
X52428572Y-62320704D01*
X52428572Y-62320704D02*
X52428572Y-62054038D01*
X52428572Y-62054038D02*
X52276191Y-62054038D01*
X52771429Y-62396895D02*
X52771429Y-61596895D01*
X52771429Y-61596895D02*
X53228572Y-62396895D01*
X53228572Y-62396895D02*
X53228572Y-61596895D01*
X53609524Y-62396895D02*
X53609524Y-61596895D01*
X53609524Y-61596895D02*
X53800000Y-61596895D01*
X53800000Y-61596895D02*
X53914286Y-61634990D01*
X53914286Y-61634990D02*
X53990476Y-61711180D01*
X53990476Y-61711180D02*
X54028571Y-61787371D01*
X54028571Y-61787371D02*
X54066667Y-61939752D01*
X54066667Y-61939752D02*
X54066667Y-62054038D01*
X54066667Y-62054038D02*
X54028571Y-62206419D01*
X54028571Y-62206419D02*
X53990476Y-62282609D01*
X53990476Y-62282609D02*
X53914286Y-62358800D01*
X53914286Y-62358800D02*
X53800000Y-62396895D01*
X53800000Y-62396895D02*
X53609524Y-62396895D01*
X70672371Y-64377068D02*
X70672371Y-64034211D01*
X71272371Y-64205639D02*
X70672371Y-64205639D01*
X71272371Y-63491353D02*
X70986657Y-63691353D01*
X71272371Y-63834210D02*
X70672371Y-63834210D01*
X70672371Y-63834210D02*
X70672371Y-63605639D01*
X70672371Y-63605639D02*
X70700942Y-63548496D01*
X70700942Y-63548496D02*
X70729514Y-63519925D01*
X70729514Y-63519925D02*
X70786657Y-63491353D01*
X70786657Y-63491353D02*
X70872371Y-63491353D01*
X70872371Y-63491353D02*
X70929514Y-63519925D01*
X70929514Y-63519925D02*
X70958085Y-63548496D01*
X70958085Y-63548496D02*
X70986657Y-63605639D01*
X70986657Y-63605639D02*
X70986657Y-63834210D01*
X71272371Y-63234210D02*
X70672371Y-63234210D01*
X70700942Y-62634211D02*
X70672371Y-62691354D01*
X70672371Y-62691354D02*
X70672371Y-62777068D01*
X70672371Y-62777068D02*
X70700942Y-62862782D01*
X70700942Y-62862782D02*
X70758085Y-62919925D01*
X70758085Y-62919925D02*
X70815228Y-62948496D01*
X70815228Y-62948496D02*
X70929514Y-62977068D01*
X70929514Y-62977068D02*
X71015228Y-62977068D01*
X71015228Y-62977068D02*
X71129514Y-62948496D01*
X71129514Y-62948496D02*
X71186657Y-62919925D01*
X71186657Y-62919925D02*
X71243800Y-62862782D01*
X71243800Y-62862782D02*
X71272371Y-62777068D01*
X71272371Y-62777068D02*
X71272371Y-62719925D01*
X71272371Y-62719925D02*
X71243800Y-62634211D01*
X71243800Y-62634211D02*
X71215228Y-62605639D01*
X71215228Y-62605639D02*
X71015228Y-62605639D01*
X71015228Y-62605639D02*
X71015228Y-62719925D01*
X52390476Y-69134990D02*
X52314286Y-69096895D01*
X52314286Y-69096895D02*
X52200000Y-69096895D01*
X52200000Y-69096895D02*
X52085714Y-69134990D01*
X52085714Y-69134990D02*
X52009524Y-69211180D01*
X52009524Y-69211180D02*
X51971429Y-69287371D01*
X51971429Y-69287371D02*
X51933333Y-69439752D01*
X51933333Y-69439752D02*
X51933333Y-69554038D01*
X51933333Y-69554038D02*
X51971429Y-69706419D01*
X51971429Y-69706419D02*
X52009524Y-69782609D01*
X52009524Y-69782609D02*
X52085714Y-69858800D01*
X52085714Y-69858800D02*
X52200000Y-69896895D01*
X52200000Y-69896895D02*
X52276191Y-69896895D01*
X52276191Y-69896895D02*
X52390476Y-69858800D01*
X52390476Y-69858800D02*
X52428572Y-69820704D01*
X52428572Y-69820704D02*
X52428572Y-69554038D01*
X52428572Y-69554038D02*
X52276191Y-69554038D01*
X52771429Y-69896895D02*
X52771429Y-69096895D01*
X52771429Y-69096895D02*
X53228572Y-69896895D01*
X53228572Y-69896895D02*
X53228572Y-69096895D01*
X53609524Y-69896895D02*
X53609524Y-69096895D01*
X53609524Y-69096895D02*
X53800000Y-69096895D01*
X53800000Y-69096895D02*
X53914286Y-69134990D01*
X53914286Y-69134990D02*
X53990476Y-69211180D01*
X53990476Y-69211180D02*
X54028571Y-69287371D01*
X54028571Y-69287371D02*
X54066667Y-69439752D01*
X54066667Y-69439752D02*
X54066667Y-69554038D01*
X54066667Y-69554038D02*
X54028571Y-69706419D01*
X54028571Y-69706419D02*
X53990476Y-69782609D01*
X53990476Y-69782609D02*
X53914286Y-69858800D01*
X53914286Y-69858800D02*
X53800000Y-69896895D01*
X53800000Y-69896895D02*
X53609524Y-69896895D01*
X75602990Y-63824687D02*
X75564895Y-63900877D01*
X75564895Y-63900877D02*
X75564895Y-64015163D01*
X75564895Y-64015163D02*
X75602990Y-64129449D01*
X75602990Y-64129449D02*
X75679180Y-64205639D01*
X75679180Y-64205639D02*
X75755371Y-64243734D01*
X75755371Y-64243734D02*
X75907752Y-64281830D01*
X75907752Y-64281830D02*
X76022038Y-64281830D01*
X76022038Y-64281830D02*
X76174419Y-64243734D01*
X76174419Y-64243734D02*
X76250609Y-64205639D01*
X76250609Y-64205639D02*
X76326800Y-64129449D01*
X76326800Y-64129449D02*
X76364895Y-64015163D01*
X76364895Y-64015163D02*
X76364895Y-63938972D01*
X76364895Y-63938972D02*
X76326800Y-63824687D01*
X76326800Y-63824687D02*
X76288704Y-63786591D01*
X76288704Y-63786591D02*
X76022038Y-63786591D01*
X76022038Y-63786591D02*
X76022038Y-63938972D01*
X76364895Y-63443734D02*
X75564895Y-63443734D01*
X75564895Y-63443734D02*
X76364895Y-62986591D01*
X76364895Y-62986591D02*
X75564895Y-62986591D01*
X76364895Y-62605639D02*
X75564895Y-62605639D01*
X75564895Y-62605639D02*
X75564895Y-62415163D01*
X75564895Y-62415163D02*
X75602990Y-62300877D01*
X75602990Y-62300877D02*
X75679180Y-62224687D01*
X75679180Y-62224687D02*
X75755371Y-62186592D01*
X75755371Y-62186592D02*
X75907752Y-62148496D01*
X75907752Y-62148496D02*
X76022038Y-62148496D01*
X76022038Y-62148496D02*
X76174419Y-62186592D01*
X76174419Y-62186592D02*
X76250609Y-62224687D01*
X76250609Y-62224687D02*
X76326800Y-62300877D01*
X76326800Y-62300877D02*
X76364895Y-62415163D01*
X76364895Y-62415163D02*
X76364895Y-62605639D01*
X47028571Y-62358800D02*
X47142857Y-62396895D01*
X47142857Y-62396895D02*
X47333333Y-62396895D01*
X47333333Y-62396895D02*
X47409524Y-62358800D01*
X47409524Y-62358800D02*
X47447619Y-62320704D01*
X47447619Y-62320704D02*
X47485714Y-62244514D01*
X47485714Y-62244514D02*
X47485714Y-62168323D01*
X47485714Y-62168323D02*
X47447619Y-62092133D01*
X47447619Y-62092133D02*
X47409524Y-62054038D01*
X47409524Y-62054038D02*
X47333333Y-62015942D01*
X47333333Y-62015942D02*
X47180952Y-61977847D01*
X47180952Y-61977847D02*
X47104762Y-61939752D01*
X47104762Y-61939752D02*
X47066667Y-61901657D01*
X47066667Y-61901657D02*
X47028571Y-61825466D01*
X47028571Y-61825466D02*
X47028571Y-61749276D01*
X47028571Y-61749276D02*
X47066667Y-61673085D01*
X47066667Y-61673085D02*
X47104762Y-61634990D01*
X47104762Y-61634990D02*
X47180952Y-61596895D01*
X47180952Y-61596895D02*
X47371429Y-61596895D01*
X47371429Y-61596895D02*
X47485714Y-61634990D01*
X47828572Y-62396895D02*
X47828572Y-61596895D01*
X47828572Y-61596895D02*
X48019048Y-61596895D01*
X48019048Y-61596895D02*
X48133334Y-61634990D01*
X48133334Y-61634990D02*
X48209524Y-61711180D01*
X48209524Y-61711180D02*
X48247619Y-61787371D01*
X48247619Y-61787371D02*
X48285715Y-61939752D01*
X48285715Y-61939752D02*
X48285715Y-62054038D01*
X48285715Y-62054038D02*
X48247619Y-62206419D01*
X48247619Y-62206419D02*
X48209524Y-62282609D01*
X48209524Y-62282609D02*
X48133334Y-62358800D01*
X48133334Y-62358800D02*
X48019048Y-62396895D01*
X48019048Y-62396895D02*
X47828572Y-62396895D01*
X48590476Y-62168323D02*
X48971429Y-62168323D01*
X48514286Y-62396895D02*
X48780953Y-61596895D01*
X48780953Y-61596895D02*
X49047619Y-62396895D01*
X77872419Y-38547619D02*
X77872419Y-37976191D01*
X78872419Y-38261905D02*
X77872419Y-38261905D01*
X78872419Y-37500000D02*
X78824800Y-37595238D01*
X78824800Y-37595238D02*
X78777180Y-37642857D01*
X78777180Y-37642857D02*
X78681942Y-37690476D01*
X78681942Y-37690476D02*
X78396228Y-37690476D01*
X78396228Y-37690476D02*
X78300990Y-37642857D01*
X78300990Y-37642857D02*
X78253371Y-37595238D01*
X78253371Y-37595238D02*
X78205752Y-37500000D01*
X78205752Y-37500000D02*
X78205752Y-37357143D01*
X78205752Y-37357143D02*
X78253371Y-37261905D01*
X78253371Y-37261905D02*
X78300990Y-37214286D01*
X78300990Y-37214286D02*
X78396228Y-37166667D01*
X78396228Y-37166667D02*
X78681942Y-37166667D01*
X78681942Y-37166667D02*
X78777180Y-37214286D01*
X78777180Y-37214286D02*
X78824800Y-37261905D01*
X78824800Y-37261905D02*
X78872419Y-37357143D01*
X78872419Y-37357143D02*
X78872419Y-37500000D01*
X78205752Y-36738095D02*
X79205752Y-36738095D01*
X78253371Y-36738095D02*
X78205752Y-36642857D01*
X78205752Y-36642857D02*
X78205752Y-36452381D01*
X78205752Y-36452381D02*
X78253371Y-36357143D01*
X78253371Y-36357143D02*
X78300990Y-36309524D01*
X78300990Y-36309524D02*
X78396228Y-36261905D01*
X78396228Y-36261905D02*
X78681942Y-36261905D01*
X78681942Y-36261905D02*
X78777180Y-36309524D01*
X78777180Y-36309524D02*
X78824800Y-36357143D01*
X78824800Y-36357143D02*
X78872419Y-36452381D01*
X78872419Y-36452381D02*
X78872419Y-36642857D01*
X78872419Y-36642857D02*
X78824800Y-36738095D01*
X78872419Y-34595238D02*
X78872419Y-35071428D01*
X78872419Y-35071428D02*
X77872419Y-35071428D01*
X78872419Y-33833333D02*
X78348609Y-33833333D01*
X78348609Y-33833333D02*
X78253371Y-33880952D01*
X78253371Y-33880952D02*
X78205752Y-33976190D01*
X78205752Y-33976190D02*
X78205752Y-34166666D01*
X78205752Y-34166666D02*
X78253371Y-34261904D01*
X78824800Y-33833333D02*
X78872419Y-33928571D01*
X78872419Y-33928571D02*
X78872419Y-34166666D01*
X78872419Y-34166666D02*
X78824800Y-34261904D01*
X78824800Y-34261904D02*
X78729561Y-34309523D01*
X78729561Y-34309523D02*
X78634323Y-34309523D01*
X78634323Y-34309523D02*
X78539085Y-34261904D01*
X78539085Y-34261904D02*
X78491466Y-34166666D01*
X78491466Y-34166666D02*
X78491466Y-33928571D01*
X78491466Y-33928571D02*
X78443847Y-33833333D01*
X78205752Y-33452380D02*
X78872419Y-33214285D01*
X78205752Y-32976190D02*
X78872419Y-33214285D01*
X78872419Y-33214285D02*
X79110514Y-33309523D01*
X79110514Y-33309523D02*
X79158133Y-33357142D01*
X79158133Y-33357142D02*
X79205752Y-33452380D01*
X78824800Y-32214285D02*
X78872419Y-32309523D01*
X78872419Y-32309523D02*
X78872419Y-32499999D01*
X78872419Y-32499999D02*
X78824800Y-32595237D01*
X78824800Y-32595237D02*
X78729561Y-32642856D01*
X78729561Y-32642856D02*
X78348609Y-32642856D01*
X78348609Y-32642856D02*
X78253371Y-32595237D01*
X78253371Y-32595237D02*
X78205752Y-32499999D01*
X78205752Y-32499999D02*
X78205752Y-32309523D01*
X78205752Y-32309523D02*
X78253371Y-32214285D01*
X78253371Y-32214285D02*
X78348609Y-32166666D01*
X78348609Y-32166666D02*
X78443847Y-32166666D01*
X78443847Y-32166666D02*
X78539085Y-32642856D01*
X78872419Y-31738094D02*
X78205752Y-31738094D01*
X78396228Y-31738094D02*
X78300990Y-31690475D01*
X78300990Y-31690475D02*
X78253371Y-31642856D01*
X78253371Y-31642856D02*
X78205752Y-31547618D01*
X78205752Y-31547618D02*
X78205752Y-31452380D01*
X55347619Y-69096895D02*
X54966667Y-69096895D01*
X54966667Y-69096895D02*
X54928571Y-69477847D01*
X54928571Y-69477847D02*
X54966667Y-69439752D01*
X54966667Y-69439752D02*
X55042857Y-69401657D01*
X55042857Y-69401657D02*
X55233333Y-69401657D01*
X55233333Y-69401657D02*
X55309524Y-69439752D01*
X55309524Y-69439752D02*
X55347619Y-69477847D01*
X55347619Y-69477847D02*
X55385714Y-69554038D01*
X55385714Y-69554038D02*
X55385714Y-69744514D01*
X55385714Y-69744514D02*
X55347619Y-69820704D01*
X55347619Y-69820704D02*
X55309524Y-69858800D01*
X55309524Y-69858800D02*
X55233333Y-69896895D01*
X55233333Y-69896895D02*
X55042857Y-69896895D01*
X55042857Y-69896895D02*
X54966667Y-69858800D01*
X54966667Y-69858800D02*
X54928571Y-69820704D01*
X55614286Y-69096895D02*
X55880953Y-69896895D01*
X55880953Y-69896895D02*
X56147619Y-69096895D01*
X75412990Y-48659687D02*
X75374895Y-48735877D01*
X75374895Y-48735877D02*
X75374895Y-48850163D01*
X75374895Y-48850163D02*
X75412990Y-48964449D01*
X75412990Y-48964449D02*
X75489180Y-49040639D01*
X75489180Y-49040639D02*
X75565371Y-49078734D01*
X75565371Y-49078734D02*
X75717752Y-49116830D01*
X75717752Y-49116830D02*
X75832038Y-49116830D01*
X75832038Y-49116830D02*
X75984419Y-49078734D01*
X75984419Y-49078734D02*
X76060609Y-49040639D01*
X76060609Y-49040639D02*
X76136800Y-48964449D01*
X76136800Y-48964449D02*
X76174895Y-48850163D01*
X76174895Y-48850163D02*
X76174895Y-48773972D01*
X76174895Y-48773972D02*
X76136800Y-48659687D01*
X76136800Y-48659687D02*
X76098704Y-48621591D01*
X76098704Y-48621591D02*
X75832038Y-48621591D01*
X75832038Y-48621591D02*
X75832038Y-48773972D01*
X76174895Y-48278734D02*
X75374895Y-48278734D01*
X75374895Y-48278734D02*
X76174895Y-47821591D01*
X76174895Y-47821591D02*
X75374895Y-47821591D01*
X76174895Y-47440639D02*
X75374895Y-47440639D01*
X75374895Y-47440639D02*
X75374895Y-47250163D01*
X75374895Y-47250163D02*
X75412990Y-47135877D01*
X75412990Y-47135877D02*
X75489180Y-47059687D01*
X75489180Y-47059687D02*
X75565371Y-47021592D01*
X75565371Y-47021592D02*
X75717752Y-46983496D01*
X75717752Y-46983496D02*
X75832038Y-46983496D01*
X75832038Y-46983496D02*
X75984419Y-47021592D01*
X75984419Y-47021592D02*
X76060609Y-47059687D01*
X76060609Y-47059687D02*
X76136800Y-47135877D01*
X76136800Y-47135877D02*
X76174895Y-47250163D01*
X76174895Y-47250163D02*
X76174895Y-47440639D01*
X68064895Y-56362782D02*
X68064895Y-56743734D01*
X68064895Y-56743734D02*
X68445847Y-56781830D01*
X68445847Y-56781830D02*
X68407752Y-56743734D01*
X68407752Y-56743734D02*
X68369657Y-56667544D01*
X68369657Y-56667544D02*
X68369657Y-56477068D01*
X68369657Y-56477068D02*
X68407752Y-56400877D01*
X68407752Y-56400877D02*
X68445847Y-56362782D01*
X68445847Y-56362782D02*
X68522038Y-56324687D01*
X68522038Y-56324687D02*
X68712514Y-56324687D01*
X68712514Y-56324687D02*
X68788704Y-56362782D01*
X68788704Y-56362782D02*
X68826800Y-56400877D01*
X68826800Y-56400877D02*
X68864895Y-56477068D01*
X68864895Y-56477068D02*
X68864895Y-56667544D01*
X68864895Y-56667544D02*
X68826800Y-56743734D01*
X68826800Y-56743734D02*
X68788704Y-56781830D01*
X68064895Y-56096115D02*
X68864895Y-55829448D01*
X68864895Y-55829448D02*
X68064895Y-55562782D01*
X68064895Y-63862782D02*
X68064895Y-64243734D01*
X68064895Y-64243734D02*
X68445847Y-64281830D01*
X68445847Y-64281830D02*
X68407752Y-64243734D01*
X68407752Y-64243734D02*
X68369657Y-64167544D01*
X68369657Y-64167544D02*
X68369657Y-63977068D01*
X68369657Y-63977068D02*
X68407752Y-63900877D01*
X68407752Y-63900877D02*
X68445847Y-63862782D01*
X68445847Y-63862782D02*
X68522038Y-63824687D01*
X68522038Y-63824687D02*
X68712514Y-63824687D01*
X68712514Y-63824687D02*
X68788704Y-63862782D01*
X68788704Y-63862782D02*
X68826800Y-63900877D01*
X68826800Y-63900877D02*
X68864895Y-63977068D01*
X68864895Y-63977068D02*
X68864895Y-64167544D01*
X68864895Y-64167544D02*
X68826800Y-64243734D01*
X68826800Y-64243734D02*
X68788704Y-64281830D01*
X68064895Y-63596115D02*
X68864895Y-63329448D01*
X68864895Y-63329448D02*
X68064895Y-63062782D01*
X47047618Y-69858800D02*
X47161904Y-69896895D01*
X47161904Y-69896895D02*
X47352380Y-69896895D01*
X47352380Y-69896895D02*
X47428571Y-69858800D01*
X47428571Y-69858800D02*
X47466666Y-69820704D01*
X47466666Y-69820704D02*
X47504761Y-69744514D01*
X47504761Y-69744514D02*
X47504761Y-69668323D01*
X47504761Y-69668323D02*
X47466666Y-69592133D01*
X47466666Y-69592133D02*
X47428571Y-69554038D01*
X47428571Y-69554038D02*
X47352380Y-69515942D01*
X47352380Y-69515942D02*
X47199999Y-69477847D01*
X47199999Y-69477847D02*
X47123809Y-69439752D01*
X47123809Y-69439752D02*
X47085714Y-69401657D01*
X47085714Y-69401657D02*
X47047618Y-69325466D01*
X47047618Y-69325466D02*
X47047618Y-69249276D01*
X47047618Y-69249276D02*
X47085714Y-69173085D01*
X47085714Y-69173085D02*
X47123809Y-69134990D01*
X47123809Y-69134990D02*
X47199999Y-69096895D01*
X47199999Y-69096895D02*
X47390476Y-69096895D01*
X47390476Y-69096895D02*
X47504761Y-69134990D01*
X48304762Y-69820704D02*
X48266666Y-69858800D01*
X48266666Y-69858800D02*
X48152381Y-69896895D01*
X48152381Y-69896895D02*
X48076190Y-69896895D01*
X48076190Y-69896895D02*
X47961904Y-69858800D01*
X47961904Y-69858800D02*
X47885714Y-69782609D01*
X47885714Y-69782609D02*
X47847619Y-69706419D01*
X47847619Y-69706419D02*
X47809523Y-69554038D01*
X47809523Y-69554038D02*
X47809523Y-69439752D01*
X47809523Y-69439752D02*
X47847619Y-69287371D01*
X47847619Y-69287371D02*
X47885714Y-69211180D01*
X47885714Y-69211180D02*
X47961904Y-69134990D01*
X47961904Y-69134990D02*
X48076190Y-69096895D01*
X48076190Y-69096895D02*
X48152381Y-69096895D01*
X48152381Y-69096895D02*
X48266666Y-69134990D01*
X48266666Y-69134990D02*
X48304762Y-69173085D01*
X49028571Y-69896895D02*
X48647619Y-69896895D01*
X48647619Y-69896895D02*
X48647619Y-69096895D01*
X49547618Y-62358800D02*
X49661904Y-62396895D01*
X49661904Y-62396895D02*
X49852380Y-62396895D01*
X49852380Y-62396895D02*
X49928571Y-62358800D01*
X49928571Y-62358800D02*
X49966666Y-62320704D01*
X49966666Y-62320704D02*
X50004761Y-62244514D01*
X50004761Y-62244514D02*
X50004761Y-62168323D01*
X50004761Y-62168323D02*
X49966666Y-62092133D01*
X49966666Y-62092133D02*
X49928571Y-62054038D01*
X49928571Y-62054038D02*
X49852380Y-62015942D01*
X49852380Y-62015942D02*
X49699999Y-61977847D01*
X49699999Y-61977847D02*
X49623809Y-61939752D01*
X49623809Y-61939752D02*
X49585714Y-61901657D01*
X49585714Y-61901657D02*
X49547618Y-61825466D01*
X49547618Y-61825466D02*
X49547618Y-61749276D01*
X49547618Y-61749276D02*
X49585714Y-61673085D01*
X49585714Y-61673085D02*
X49623809Y-61634990D01*
X49623809Y-61634990D02*
X49699999Y-61596895D01*
X49699999Y-61596895D02*
X49890476Y-61596895D01*
X49890476Y-61596895D02*
X50004761Y-61634990D01*
X50804762Y-62320704D02*
X50766666Y-62358800D01*
X50766666Y-62358800D02*
X50652381Y-62396895D01*
X50652381Y-62396895D02*
X50576190Y-62396895D01*
X50576190Y-62396895D02*
X50461904Y-62358800D01*
X50461904Y-62358800D02*
X50385714Y-62282609D01*
X50385714Y-62282609D02*
X50347619Y-62206419D01*
X50347619Y-62206419D02*
X50309523Y-62054038D01*
X50309523Y-62054038D02*
X50309523Y-61939752D01*
X50309523Y-61939752D02*
X50347619Y-61787371D01*
X50347619Y-61787371D02*
X50385714Y-61711180D01*
X50385714Y-61711180D02*
X50461904Y-61634990D01*
X50461904Y-61634990D02*
X50576190Y-61596895D01*
X50576190Y-61596895D02*
X50652381Y-61596895D01*
X50652381Y-61596895D02*
X50766666Y-61634990D01*
X50766666Y-61634990D02*
X50804762Y-61673085D01*
X51528571Y-62396895D02*
X51147619Y-62396895D01*
X51147619Y-62396895D02*
X51147619Y-61596895D01*
X73268085Y-49126353D02*
X73268085Y-48926353D01*
X73582371Y-48840639D02*
X73582371Y-49126353D01*
X73582371Y-49126353D02*
X72982371Y-49126353D01*
X72982371Y-49126353D02*
X72982371Y-48840639D01*
X73525228Y-48240639D02*
X73553800Y-48269211D01*
X73553800Y-48269211D02*
X73582371Y-48354925D01*
X73582371Y-48354925D02*
X73582371Y-48412068D01*
X73582371Y-48412068D02*
X73553800Y-48497782D01*
X73553800Y-48497782D02*
X73496657Y-48554925D01*
X73496657Y-48554925D02*
X73439514Y-48583496D01*
X73439514Y-48583496D02*
X73325228Y-48612068D01*
X73325228Y-48612068D02*
X73239514Y-48612068D01*
X73239514Y-48612068D02*
X73125228Y-48583496D01*
X73125228Y-48583496D02*
X73068085Y-48554925D01*
X73068085Y-48554925D02*
X73010942Y-48497782D01*
X73010942Y-48497782D02*
X72982371Y-48412068D01*
X72982371Y-48412068D02*
X72982371Y-48354925D01*
X72982371Y-48354925D02*
X73010942Y-48269211D01*
X73010942Y-48269211D02*
X73039514Y-48240639D01*
X73582371Y-47983496D02*
X72982371Y-47983496D01*
X73268085Y-47983496D02*
X73268085Y-47640639D01*
X73582371Y-47640639D02*
X72982371Y-47640639D01*
X72982371Y-47240640D02*
X72982371Y-47126354D01*
X72982371Y-47126354D02*
X73010942Y-47069211D01*
X73010942Y-47069211D02*
X73068085Y-47012068D01*
X73068085Y-47012068D02*
X73182371Y-46983497D01*
X73182371Y-46983497D02*
X73382371Y-46983497D01*
X73382371Y-46983497D02*
X73496657Y-47012068D01*
X73496657Y-47012068D02*
X73553800Y-47069211D01*
X73553800Y-47069211D02*
X73582371Y-47126354D01*
X73582371Y-47126354D02*
X73582371Y-47240640D01*
X73582371Y-47240640D02*
X73553800Y-47297783D01*
X73553800Y-47297783D02*
X73496657Y-47354925D01*
X73496657Y-47354925D02*
X73382371Y-47383497D01*
X73382371Y-47383497D02*
X73182371Y-47383497D01*
X73182371Y-47383497D02*
X73068085Y-47354925D01*
X73068085Y-47354925D02*
X73010942Y-47297783D01*
X73010942Y-47297783D02*
X72982371Y-47240640D01*
X67874895Y-48697782D02*
X67874895Y-49078734D01*
X67874895Y-49078734D02*
X68255847Y-49116830D01*
X68255847Y-49116830D02*
X68217752Y-49078734D01*
X68217752Y-49078734D02*
X68179657Y-49002544D01*
X68179657Y-49002544D02*
X68179657Y-48812068D01*
X68179657Y-48812068D02*
X68217752Y-48735877D01*
X68217752Y-48735877D02*
X68255847Y-48697782D01*
X68255847Y-48697782D02*
X68332038Y-48659687D01*
X68332038Y-48659687D02*
X68522514Y-48659687D01*
X68522514Y-48659687D02*
X68598704Y-48697782D01*
X68598704Y-48697782D02*
X68636800Y-48735877D01*
X68636800Y-48735877D02*
X68674895Y-48812068D01*
X68674895Y-48812068D02*
X68674895Y-49002544D01*
X68674895Y-49002544D02*
X68636800Y-49078734D01*
X68636800Y-49078734D02*
X68598704Y-49116830D01*
X67874895Y-48431115D02*
X68674895Y-48164448D01*
X68674895Y-48164448D02*
X67874895Y-47897782D01*
X73458085Y-64291353D02*
X73458085Y-64091353D01*
X73772371Y-64005639D02*
X73772371Y-64291353D01*
X73772371Y-64291353D02*
X73172371Y-64291353D01*
X73172371Y-64291353D02*
X73172371Y-64005639D01*
X73715228Y-63405639D02*
X73743800Y-63434211D01*
X73743800Y-63434211D02*
X73772371Y-63519925D01*
X73772371Y-63519925D02*
X73772371Y-63577068D01*
X73772371Y-63577068D02*
X73743800Y-63662782D01*
X73743800Y-63662782D02*
X73686657Y-63719925D01*
X73686657Y-63719925D02*
X73629514Y-63748496D01*
X73629514Y-63748496D02*
X73515228Y-63777068D01*
X73515228Y-63777068D02*
X73429514Y-63777068D01*
X73429514Y-63777068D02*
X73315228Y-63748496D01*
X73315228Y-63748496D02*
X73258085Y-63719925D01*
X73258085Y-63719925D02*
X73200942Y-63662782D01*
X73200942Y-63662782D02*
X73172371Y-63577068D01*
X73172371Y-63577068D02*
X73172371Y-63519925D01*
X73172371Y-63519925D02*
X73200942Y-63434211D01*
X73200942Y-63434211D02*
X73229514Y-63405639D01*
X73772371Y-63148496D02*
X73172371Y-63148496D01*
X73458085Y-63148496D02*
X73458085Y-62805639D01*
X73772371Y-62805639D02*
X73172371Y-62805639D01*
X73172371Y-62405640D02*
X73172371Y-62291354D01*
X73172371Y-62291354D02*
X73200942Y-62234211D01*
X73200942Y-62234211D02*
X73258085Y-62177068D01*
X73258085Y-62177068D02*
X73372371Y-62148497D01*
X73372371Y-62148497D02*
X73572371Y-62148497D01*
X73572371Y-62148497D02*
X73686657Y-62177068D01*
X73686657Y-62177068D02*
X73743800Y-62234211D01*
X73743800Y-62234211D02*
X73772371Y-62291354D01*
X73772371Y-62291354D02*
X73772371Y-62405640D01*
X73772371Y-62405640D02*
X73743800Y-62462783D01*
X73743800Y-62462783D02*
X73686657Y-62519925D01*
X73686657Y-62519925D02*
X73572371Y-62548497D01*
X73572371Y-62548497D02*
X73372371Y-62548497D01*
X73372371Y-62548497D02*
X73258085Y-62519925D01*
X73258085Y-62519925D02*
X73200942Y-62462783D01*
X73200942Y-62462783D02*
X73172371Y-62405640D01*
D11*
X67881428Y-45559819D02*
X67881428Y-46369342D01*
X67881428Y-46369342D02*
X67929047Y-46464580D01*
X67929047Y-46464580D02*
X67976666Y-46512200D01*
X67976666Y-46512200D02*
X68071904Y-46559819D01*
X68071904Y-46559819D02*
X68262380Y-46559819D01*
X68262380Y-46559819D02*
X68357618Y-46512200D01*
X68357618Y-46512200D02*
X68405237Y-46464580D01*
X68405237Y-46464580D02*
X68452856Y-46369342D01*
X68452856Y-46369342D02*
X68452856Y-45559819D01*
X69071904Y-46559819D02*
X68976666Y-46512200D01*
X68976666Y-46512200D02*
X68929047Y-46416961D01*
X68929047Y-46416961D02*
X68929047Y-45559819D01*
X69310000Y-45893152D02*
X69690952Y-45893152D01*
X69452857Y-45559819D02*
X69452857Y-46416961D01*
X69452857Y-46416961D02*
X69500476Y-46512200D01*
X69500476Y-46512200D02*
X69595714Y-46559819D01*
X69595714Y-46559819D02*
X69690952Y-46559819D01*
X70024286Y-46559819D02*
X70024286Y-45893152D01*
X70024286Y-46083628D02*
X70071905Y-45988390D01*
X70071905Y-45988390D02*
X70119524Y-45940771D01*
X70119524Y-45940771D02*
X70214762Y-45893152D01*
X70214762Y-45893152D02*
X70310000Y-45893152D01*
X71071905Y-46559819D02*
X71071905Y-46036009D01*
X71071905Y-46036009D02*
X71024286Y-45940771D01*
X71024286Y-45940771D02*
X70929048Y-45893152D01*
X70929048Y-45893152D02*
X70738572Y-45893152D01*
X70738572Y-45893152D02*
X70643334Y-45940771D01*
X71071905Y-46512200D02*
X70976667Y-46559819D01*
X70976667Y-46559819D02*
X70738572Y-46559819D01*
X70738572Y-46559819D02*
X70643334Y-46512200D01*
X70643334Y-46512200D02*
X70595715Y-46416961D01*
X70595715Y-46416961D02*
X70595715Y-46321723D01*
X70595715Y-46321723D02*
X70643334Y-46226485D01*
X70643334Y-46226485D02*
X70738572Y-46178866D01*
X70738572Y-46178866D02*
X70976667Y-46178866D01*
X70976667Y-46178866D02*
X71071905Y-46131247D01*
X71500477Y-46512200D02*
X71595715Y-46559819D01*
X71595715Y-46559819D02*
X71786191Y-46559819D01*
X71786191Y-46559819D02*
X71881429Y-46512200D01*
X71881429Y-46512200D02*
X71929048Y-46416961D01*
X71929048Y-46416961D02*
X71929048Y-46369342D01*
X71929048Y-46369342D02*
X71881429Y-46274104D01*
X71881429Y-46274104D02*
X71786191Y-46226485D01*
X71786191Y-46226485D02*
X71643334Y-46226485D01*
X71643334Y-46226485D02*
X71548096Y-46178866D01*
X71548096Y-46178866D02*
X71500477Y-46083628D01*
X71500477Y-46083628D02*
X71500477Y-46036009D01*
X71500477Y-46036009D02*
X71548096Y-45940771D01*
X71548096Y-45940771D02*
X71643334Y-45893152D01*
X71643334Y-45893152D02*
X71786191Y-45893152D01*
X71786191Y-45893152D02*
X71881429Y-45940771D01*
X72500477Y-46559819D02*
X72405239Y-46512200D01*
X72405239Y-46512200D02*
X72357620Y-46464580D01*
X72357620Y-46464580D02*
X72310001Y-46369342D01*
X72310001Y-46369342D02*
X72310001Y-46083628D01*
X72310001Y-46083628D02*
X72357620Y-45988390D01*
X72357620Y-45988390D02*
X72405239Y-45940771D01*
X72405239Y-45940771D02*
X72500477Y-45893152D01*
X72500477Y-45893152D02*
X72643334Y-45893152D01*
X72643334Y-45893152D02*
X72738572Y-45940771D01*
X72738572Y-45940771D02*
X72786191Y-45988390D01*
X72786191Y-45988390D02*
X72833810Y-46083628D01*
X72833810Y-46083628D02*
X72833810Y-46369342D01*
X72833810Y-46369342D02*
X72786191Y-46464580D01*
X72786191Y-46464580D02*
X72738572Y-46512200D01*
X72738572Y-46512200D02*
X72643334Y-46559819D01*
X72643334Y-46559819D02*
X72500477Y-46559819D01*
X73262382Y-45893152D02*
X73262382Y-46559819D01*
X73262382Y-45988390D02*
X73310001Y-45940771D01*
X73310001Y-45940771D02*
X73405239Y-45893152D01*
X73405239Y-45893152D02*
X73548096Y-45893152D01*
X73548096Y-45893152D02*
X73643334Y-45940771D01*
X73643334Y-45940771D02*
X73690953Y-46036009D01*
X73690953Y-46036009D02*
X73690953Y-46559819D01*
X74167144Y-46559819D02*
X74167144Y-45893152D01*
X74167144Y-45559819D02*
X74119525Y-45607438D01*
X74119525Y-45607438D02*
X74167144Y-45655057D01*
X74167144Y-45655057D02*
X74214763Y-45607438D01*
X74214763Y-45607438D02*
X74167144Y-45559819D01*
X74167144Y-45559819D02*
X74167144Y-45655057D01*
X75071905Y-46512200D02*
X74976667Y-46559819D01*
X74976667Y-46559819D02*
X74786191Y-46559819D01*
X74786191Y-46559819D02*
X74690953Y-46512200D01*
X74690953Y-46512200D02*
X74643334Y-46464580D01*
X74643334Y-46464580D02*
X74595715Y-46369342D01*
X74595715Y-46369342D02*
X74595715Y-46083628D01*
X74595715Y-46083628D02*
X74643334Y-45988390D01*
X74643334Y-45988390D02*
X74690953Y-45940771D01*
X74690953Y-45940771D02*
X74786191Y-45893152D01*
X74786191Y-45893152D02*
X74976667Y-45893152D01*
X74976667Y-45893152D02*
X75071905Y-45940771D01*
X76167144Y-45559819D02*
X76786191Y-45559819D01*
X76786191Y-45559819D02*
X76452858Y-45940771D01*
X76452858Y-45940771D02*
X76595715Y-45940771D01*
X76595715Y-45940771D02*
X76690953Y-45988390D01*
X76690953Y-45988390D02*
X76738572Y-46036009D01*
X76738572Y-46036009D02*
X76786191Y-46131247D01*
X76786191Y-46131247D02*
X76786191Y-46369342D01*
X76786191Y-46369342D02*
X76738572Y-46464580D01*
X76738572Y-46464580D02*
X76690953Y-46512200D01*
X76690953Y-46512200D02*
X76595715Y-46559819D01*
X76595715Y-46559819D02*
X76310001Y-46559819D01*
X76310001Y-46559819D02*
X76214763Y-46512200D01*
X76214763Y-46512200D02*
X76167144Y-46464580D01*
X67881428Y-53184819D02*
X67881428Y-53994342D01*
X67881428Y-53994342D02*
X67929047Y-54089580D01*
X67929047Y-54089580D02*
X67976666Y-54137200D01*
X67976666Y-54137200D02*
X68071904Y-54184819D01*
X68071904Y-54184819D02*
X68262380Y-54184819D01*
X68262380Y-54184819D02*
X68357618Y-54137200D01*
X68357618Y-54137200D02*
X68405237Y-54089580D01*
X68405237Y-54089580D02*
X68452856Y-53994342D01*
X68452856Y-53994342D02*
X68452856Y-53184819D01*
X69071904Y-54184819D02*
X68976666Y-54137200D01*
X68976666Y-54137200D02*
X68929047Y-54041961D01*
X68929047Y-54041961D02*
X68929047Y-53184819D01*
X69310000Y-53518152D02*
X69690952Y-53518152D01*
X69452857Y-53184819D02*
X69452857Y-54041961D01*
X69452857Y-54041961D02*
X69500476Y-54137200D01*
X69500476Y-54137200D02*
X69595714Y-54184819D01*
X69595714Y-54184819D02*
X69690952Y-54184819D01*
X70024286Y-54184819D02*
X70024286Y-53518152D01*
X70024286Y-53708628D02*
X70071905Y-53613390D01*
X70071905Y-53613390D02*
X70119524Y-53565771D01*
X70119524Y-53565771D02*
X70214762Y-53518152D01*
X70214762Y-53518152D02*
X70310000Y-53518152D01*
X71071905Y-54184819D02*
X71071905Y-53661009D01*
X71071905Y-53661009D02*
X71024286Y-53565771D01*
X71024286Y-53565771D02*
X70929048Y-53518152D01*
X70929048Y-53518152D02*
X70738572Y-53518152D01*
X70738572Y-53518152D02*
X70643334Y-53565771D01*
X71071905Y-54137200D02*
X70976667Y-54184819D01*
X70976667Y-54184819D02*
X70738572Y-54184819D01*
X70738572Y-54184819D02*
X70643334Y-54137200D01*
X70643334Y-54137200D02*
X70595715Y-54041961D01*
X70595715Y-54041961D02*
X70595715Y-53946723D01*
X70595715Y-53946723D02*
X70643334Y-53851485D01*
X70643334Y-53851485D02*
X70738572Y-53803866D01*
X70738572Y-53803866D02*
X70976667Y-53803866D01*
X70976667Y-53803866D02*
X71071905Y-53756247D01*
X71500477Y-54137200D02*
X71595715Y-54184819D01*
X71595715Y-54184819D02*
X71786191Y-54184819D01*
X71786191Y-54184819D02*
X71881429Y-54137200D01*
X71881429Y-54137200D02*
X71929048Y-54041961D01*
X71929048Y-54041961D02*
X71929048Y-53994342D01*
X71929048Y-53994342D02*
X71881429Y-53899104D01*
X71881429Y-53899104D02*
X71786191Y-53851485D01*
X71786191Y-53851485D02*
X71643334Y-53851485D01*
X71643334Y-53851485D02*
X71548096Y-53803866D01*
X71548096Y-53803866D02*
X71500477Y-53708628D01*
X71500477Y-53708628D02*
X71500477Y-53661009D01*
X71500477Y-53661009D02*
X71548096Y-53565771D01*
X71548096Y-53565771D02*
X71643334Y-53518152D01*
X71643334Y-53518152D02*
X71786191Y-53518152D01*
X71786191Y-53518152D02*
X71881429Y-53565771D01*
X72500477Y-54184819D02*
X72405239Y-54137200D01*
X72405239Y-54137200D02*
X72357620Y-54089580D01*
X72357620Y-54089580D02*
X72310001Y-53994342D01*
X72310001Y-53994342D02*
X72310001Y-53708628D01*
X72310001Y-53708628D02*
X72357620Y-53613390D01*
X72357620Y-53613390D02*
X72405239Y-53565771D01*
X72405239Y-53565771D02*
X72500477Y-53518152D01*
X72500477Y-53518152D02*
X72643334Y-53518152D01*
X72643334Y-53518152D02*
X72738572Y-53565771D01*
X72738572Y-53565771D02*
X72786191Y-53613390D01*
X72786191Y-53613390D02*
X72833810Y-53708628D01*
X72833810Y-53708628D02*
X72833810Y-53994342D01*
X72833810Y-53994342D02*
X72786191Y-54089580D01*
X72786191Y-54089580D02*
X72738572Y-54137200D01*
X72738572Y-54137200D02*
X72643334Y-54184819D01*
X72643334Y-54184819D02*
X72500477Y-54184819D01*
X73262382Y-53518152D02*
X73262382Y-54184819D01*
X73262382Y-53613390D02*
X73310001Y-53565771D01*
X73310001Y-53565771D02*
X73405239Y-53518152D01*
X73405239Y-53518152D02*
X73548096Y-53518152D01*
X73548096Y-53518152D02*
X73643334Y-53565771D01*
X73643334Y-53565771D02*
X73690953Y-53661009D01*
X73690953Y-53661009D02*
X73690953Y-54184819D01*
X74167144Y-54184819D02*
X74167144Y-53518152D01*
X74167144Y-53184819D02*
X74119525Y-53232438D01*
X74119525Y-53232438D02*
X74167144Y-53280057D01*
X74167144Y-53280057D02*
X74214763Y-53232438D01*
X74214763Y-53232438D02*
X74167144Y-53184819D01*
X74167144Y-53184819D02*
X74167144Y-53280057D01*
X75071905Y-54137200D02*
X74976667Y-54184819D01*
X74976667Y-54184819D02*
X74786191Y-54184819D01*
X74786191Y-54184819D02*
X74690953Y-54137200D01*
X74690953Y-54137200D02*
X74643334Y-54089580D01*
X74643334Y-54089580D02*
X74595715Y-53994342D01*
X74595715Y-53994342D02*
X74595715Y-53708628D01*
X74595715Y-53708628D02*
X74643334Y-53613390D01*
X74643334Y-53613390D02*
X74690953Y-53565771D01*
X74690953Y-53565771D02*
X74786191Y-53518152D01*
X74786191Y-53518152D02*
X74976667Y-53518152D01*
X74976667Y-53518152D02*
X75071905Y-53565771D01*
X76214763Y-53280057D02*
X76262382Y-53232438D01*
X76262382Y-53232438D02*
X76357620Y-53184819D01*
X76357620Y-53184819D02*
X76595715Y-53184819D01*
X76595715Y-53184819D02*
X76690953Y-53232438D01*
X76690953Y-53232438D02*
X76738572Y-53280057D01*
X76738572Y-53280057D02*
X76786191Y-53375295D01*
X76786191Y-53375295D02*
X76786191Y-53470533D01*
X76786191Y-53470533D02*
X76738572Y-53613390D01*
X76738572Y-53613390D02*
X76167144Y-54184819D01*
X76167144Y-54184819D02*
X76786191Y-54184819D01*
X44713809Y-67637200D02*
X44856666Y-67684819D01*
X44856666Y-67684819D02*
X45094761Y-67684819D01*
X45094761Y-67684819D02*
X45189999Y-67637200D01*
X45189999Y-67637200D02*
X45237618Y-67589580D01*
X45237618Y-67589580D02*
X45285237Y-67494342D01*
X45285237Y-67494342D02*
X45285237Y-67399104D01*
X45285237Y-67399104D02*
X45237618Y-67303866D01*
X45237618Y-67303866D02*
X45189999Y-67256247D01*
X45189999Y-67256247D02*
X45094761Y-67208628D01*
X45094761Y-67208628D02*
X44904285Y-67161009D01*
X44904285Y-67161009D02*
X44809047Y-67113390D01*
X44809047Y-67113390D02*
X44761428Y-67065771D01*
X44761428Y-67065771D02*
X44713809Y-66970533D01*
X44713809Y-66970533D02*
X44713809Y-66875295D01*
X44713809Y-66875295D02*
X44761428Y-66780057D01*
X44761428Y-66780057D02*
X44809047Y-66732438D01*
X44809047Y-66732438D02*
X44904285Y-66684819D01*
X44904285Y-66684819D02*
X45142380Y-66684819D01*
X45142380Y-66684819D02*
X45285237Y-66732438D01*
X46237618Y-66732438D02*
X46142380Y-66684819D01*
X46142380Y-66684819D02*
X45999523Y-66684819D01*
X45999523Y-66684819D02*
X45856666Y-66732438D01*
X45856666Y-66732438D02*
X45761428Y-66827676D01*
X45761428Y-66827676D02*
X45713809Y-66922914D01*
X45713809Y-66922914D02*
X45666190Y-67113390D01*
X45666190Y-67113390D02*
X45666190Y-67256247D01*
X45666190Y-67256247D02*
X45713809Y-67446723D01*
X45713809Y-67446723D02*
X45761428Y-67541961D01*
X45761428Y-67541961D02*
X45856666Y-67637200D01*
X45856666Y-67637200D02*
X45999523Y-67684819D01*
X45999523Y-67684819D02*
X46094761Y-67684819D01*
X46094761Y-67684819D02*
X46237618Y-67637200D01*
X46237618Y-67637200D02*
X46285237Y-67589580D01*
X46285237Y-67589580D02*
X46285237Y-67256247D01*
X46285237Y-67256247D02*
X46094761Y-67256247D01*
X46713809Y-67684819D02*
X46713809Y-66684819D01*
X46713809Y-66684819D02*
X47094761Y-66684819D01*
X47094761Y-66684819D02*
X47189999Y-66732438D01*
X47189999Y-66732438D02*
X47237618Y-66780057D01*
X47237618Y-66780057D02*
X47285237Y-66875295D01*
X47285237Y-66875295D02*
X47285237Y-67018152D01*
X47285237Y-67018152D02*
X47237618Y-67113390D01*
X47237618Y-67113390D02*
X47189999Y-67161009D01*
X47189999Y-67161009D02*
X47094761Y-67208628D01*
X47094761Y-67208628D02*
X46713809Y-67208628D01*
X48142380Y-67018152D02*
X48142380Y-67684819D01*
X47904285Y-66637200D02*
X47666190Y-67351485D01*
X47666190Y-67351485D02*
X48285237Y-67351485D01*
X48856666Y-66684819D02*
X48951904Y-66684819D01*
X48951904Y-66684819D02*
X49047142Y-66732438D01*
X49047142Y-66732438D02*
X49094761Y-66780057D01*
X49094761Y-66780057D02*
X49142380Y-66875295D01*
X49142380Y-66875295D02*
X49189999Y-67065771D01*
X49189999Y-67065771D02*
X49189999Y-67303866D01*
X49189999Y-67303866D02*
X49142380Y-67494342D01*
X49142380Y-67494342D02*
X49094761Y-67589580D01*
X49094761Y-67589580D02*
X49047142Y-67637200D01*
X49047142Y-67637200D02*
X48951904Y-67684819D01*
X48951904Y-67684819D02*
X48856666Y-67684819D01*
X48856666Y-67684819D02*
X48761428Y-67637200D01*
X48761428Y-67637200D02*
X48713809Y-67589580D01*
X48713809Y-67589580D02*
X48666190Y-67494342D01*
X48666190Y-67494342D02*
X48618571Y-67303866D01*
X48618571Y-67303866D02*
X48618571Y-67065771D01*
X48618571Y-67065771D02*
X48666190Y-66875295D01*
X48666190Y-66875295D02*
X48713809Y-66780057D01*
X48713809Y-66780057D02*
X48761428Y-66732438D01*
X48761428Y-66732438D02*
X48856666Y-66684819D01*
X50237619Y-66684819D02*
X50570952Y-67684819D01*
X50570952Y-67684819D02*
X50904285Y-66684819D01*
X51428095Y-66684819D02*
X51618571Y-66684819D01*
X51618571Y-66684819D02*
X51713809Y-66732438D01*
X51713809Y-66732438D02*
X51809047Y-66827676D01*
X51809047Y-66827676D02*
X51856666Y-67018152D01*
X51856666Y-67018152D02*
X51856666Y-67351485D01*
X51856666Y-67351485D02*
X51809047Y-67541961D01*
X51809047Y-67541961D02*
X51713809Y-67637200D01*
X51713809Y-67637200D02*
X51618571Y-67684819D01*
X51618571Y-67684819D02*
X51428095Y-67684819D01*
X51428095Y-67684819D02*
X51332857Y-67637200D01*
X51332857Y-67637200D02*
X51237619Y-67541961D01*
X51237619Y-67541961D02*
X51190000Y-67351485D01*
X51190000Y-67351485D02*
X51190000Y-67018152D01*
X51190000Y-67018152D02*
X51237619Y-66827676D01*
X51237619Y-66827676D02*
X51332857Y-66732438D01*
X51332857Y-66732438D02*
X51428095Y-66684819D01*
X52856666Y-67589580D02*
X52809047Y-67637200D01*
X52809047Y-67637200D02*
X52666190Y-67684819D01*
X52666190Y-67684819D02*
X52570952Y-67684819D01*
X52570952Y-67684819D02*
X52428095Y-67637200D01*
X52428095Y-67637200D02*
X52332857Y-67541961D01*
X52332857Y-67541961D02*
X52285238Y-67446723D01*
X52285238Y-67446723D02*
X52237619Y-67256247D01*
X52237619Y-67256247D02*
X52237619Y-67113390D01*
X52237619Y-67113390D02*
X52285238Y-66922914D01*
X52285238Y-66922914D02*
X52332857Y-66827676D01*
X52332857Y-66827676D02*
X52428095Y-66732438D01*
X52428095Y-66732438D02*
X52570952Y-66684819D01*
X52570952Y-66684819D02*
X52666190Y-66684819D01*
X52666190Y-66684819D02*
X52809047Y-66732438D01*
X52809047Y-66732438D02*
X52856666Y-66780057D01*
X53999524Y-67637200D02*
X54142381Y-67684819D01*
X54142381Y-67684819D02*
X54380476Y-67684819D01*
X54380476Y-67684819D02*
X54475714Y-67637200D01*
X54475714Y-67637200D02*
X54523333Y-67589580D01*
X54523333Y-67589580D02*
X54570952Y-67494342D01*
X54570952Y-67494342D02*
X54570952Y-67399104D01*
X54570952Y-67399104D02*
X54523333Y-67303866D01*
X54523333Y-67303866D02*
X54475714Y-67256247D01*
X54475714Y-67256247D02*
X54380476Y-67208628D01*
X54380476Y-67208628D02*
X54190000Y-67161009D01*
X54190000Y-67161009D02*
X54094762Y-67113390D01*
X54094762Y-67113390D02*
X54047143Y-67065771D01*
X54047143Y-67065771D02*
X53999524Y-66970533D01*
X53999524Y-66970533D02*
X53999524Y-66875295D01*
X53999524Y-66875295D02*
X54047143Y-66780057D01*
X54047143Y-66780057D02*
X54094762Y-66732438D01*
X54094762Y-66732438D02*
X54190000Y-66684819D01*
X54190000Y-66684819D02*
X54428095Y-66684819D01*
X54428095Y-66684819D02*
X54570952Y-66732438D01*
X55380476Y-67637200D02*
X55285238Y-67684819D01*
X55285238Y-67684819D02*
X55094762Y-67684819D01*
X55094762Y-67684819D02*
X54999524Y-67637200D01*
X54999524Y-67637200D02*
X54951905Y-67541961D01*
X54951905Y-67541961D02*
X54951905Y-67161009D01*
X54951905Y-67161009D02*
X54999524Y-67065771D01*
X54999524Y-67065771D02*
X55094762Y-67018152D01*
X55094762Y-67018152D02*
X55285238Y-67018152D01*
X55285238Y-67018152D02*
X55380476Y-67065771D01*
X55380476Y-67065771D02*
X55428095Y-67161009D01*
X55428095Y-67161009D02*
X55428095Y-67256247D01*
X55428095Y-67256247D02*
X54951905Y-67351485D01*
X55856667Y-67018152D02*
X55856667Y-67684819D01*
X55856667Y-67113390D02*
X55904286Y-67065771D01*
X55904286Y-67065771D02*
X55999524Y-67018152D01*
X55999524Y-67018152D02*
X56142381Y-67018152D01*
X56142381Y-67018152D02*
X56237619Y-67065771D01*
X56237619Y-67065771D02*
X56285238Y-67161009D01*
X56285238Y-67161009D02*
X56285238Y-67684819D01*
X56713810Y-67637200D02*
X56809048Y-67684819D01*
X56809048Y-67684819D02*
X56999524Y-67684819D01*
X56999524Y-67684819D02*
X57094762Y-67637200D01*
X57094762Y-67637200D02*
X57142381Y-67541961D01*
X57142381Y-67541961D02*
X57142381Y-67494342D01*
X57142381Y-67494342D02*
X57094762Y-67399104D01*
X57094762Y-67399104D02*
X56999524Y-67351485D01*
X56999524Y-67351485D02*
X56856667Y-67351485D01*
X56856667Y-67351485D02*
X56761429Y-67303866D01*
X56761429Y-67303866D02*
X56713810Y-67208628D01*
X56713810Y-67208628D02*
X56713810Y-67161009D01*
X56713810Y-67161009D02*
X56761429Y-67065771D01*
X56761429Y-67065771D02*
X56856667Y-67018152D01*
X56856667Y-67018152D02*
X56999524Y-67018152D01*
X56999524Y-67018152D02*
X57094762Y-67065771D01*
X57713810Y-67684819D02*
X57618572Y-67637200D01*
X57618572Y-67637200D02*
X57570953Y-67589580D01*
X57570953Y-67589580D02*
X57523334Y-67494342D01*
X57523334Y-67494342D02*
X57523334Y-67208628D01*
X57523334Y-67208628D02*
X57570953Y-67113390D01*
X57570953Y-67113390D02*
X57618572Y-67065771D01*
X57618572Y-67065771D02*
X57713810Y-67018152D01*
X57713810Y-67018152D02*
X57856667Y-67018152D01*
X57856667Y-67018152D02*
X57951905Y-67065771D01*
X57951905Y-67065771D02*
X57999524Y-67113390D01*
X57999524Y-67113390D02*
X58047143Y-67208628D01*
X58047143Y-67208628D02*
X58047143Y-67494342D01*
X58047143Y-67494342D02*
X57999524Y-67589580D01*
X57999524Y-67589580D02*
X57951905Y-67637200D01*
X57951905Y-67637200D02*
X57856667Y-67684819D01*
X57856667Y-67684819D02*
X57713810Y-67684819D01*
X58475715Y-67684819D02*
X58475715Y-67018152D01*
X58475715Y-67208628D02*
X58523334Y-67113390D01*
X58523334Y-67113390D02*
X58570953Y-67065771D01*
X58570953Y-67065771D02*
X58666191Y-67018152D01*
X58666191Y-67018152D02*
X58761429Y-67018152D01*
X32626009Y-29471429D02*
X32673628Y-29328572D01*
X32673628Y-29328572D02*
X32721247Y-29280953D01*
X32721247Y-29280953D02*
X32816485Y-29233334D01*
X32816485Y-29233334D02*
X32959342Y-29233334D01*
X32959342Y-29233334D02*
X33054580Y-29280953D01*
X33054580Y-29280953D02*
X33102200Y-29328572D01*
X33102200Y-29328572D02*
X33149819Y-29423810D01*
X33149819Y-29423810D02*
X33149819Y-29804762D01*
X33149819Y-29804762D02*
X32149819Y-29804762D01*
X32149819Y-29804762D02*
X32149819Y-29471429D01*
X32149819Y-29471429D02*
X32197438Y-29376191D01*
X32197438Y-29376191D02*
X32245057Y-29328572D01*
X32245057Y-29328572D02*
X32340295Y-29280953D01*
X32340295Y-29280953D02*
X32435533Y-29280953D01*
X32435533Y-29280953D02*
X32530771Y-29328572D01*
X32530771Y-29328572D02*
X32578390Y-29376191D01*
X32578390Y-29376191D02*
X32626009Y-29471429D01*
X32626009Y-29471429D02*
X32626009Y-29804762D01*
X33149819Y-28376191D02*
X32626009Y-28376191D01*
X32626009Y-28376191D02*
X32530771Y-28423810D01*
X32530771Y-28423810D02*
X32483152Y-28519048D01*
X32483152Y-28519048D02*
X32483152Y-28709524D01*
X32483152Y-28709524D02*
X32530771Y-28804762D01*
X33102200Y-28376191D02*
X33149819Y-28471429D01*
X33149819Y-28471429D02*
X33149819Y-28709524D01*
X33149819Y-28709524D02*
X33102200Y-28804762D01*
X33102200Y-28804762D02*
X33006961Y-28852381D01*
X33006961Y-28852381D02*
X32911723Y-28852381D01*
X32911723Y-28852381D02*
X32816485Y-28804762D01*
X32816485Y-28804762D02*
X32768866Y-28709524D01*
X32768866Y-28709524D02*
X32768866Y-28471429D01*
X32768866Y-28471429D02*
X32721247Y-28376191D01*
X32483152Y-28042857D02*
X32483152Y-27661905D01*
X32149819Y-27900000D02*
X33006961Y-27900000D01*
X33006961Y-27900000D02*
X33102200Y-27852381D01*
X33102200Y-27852381D02*
X33149819Y-27757143D01*
X33149819Y-27757143D02*
X33149819Y-27661905D01*
X32483152Y-27471428D02*
X32483152Y-27090476D01*
X32149819Y-27328571D02*
X33006961Y-27328571D01*
X33006961Y-27328571D02*
X33102200Y-27280952D01*
X33102200Y-27280952D02*
X33149819Y-27185714D01*
X33149819Y-27185714D02*
X33149819Y-27090476D01*
X33102200Y-26376190D02*
X33149819Y-26471428D01*
X33149819Y-26471428D02*
X33149819Y-26661904D01*
X33149819Y-26661904D02*
X33102200Y-26757142D01*
X33102200Y-26757142D02*
X33006961Y-26804761D01*
X33006961Y-26804761D02*
X32626009Y-26804761D01*
X32626009Y-26804761D02*
X32530771Y-26757142D01*
X32530771Y-26757142D02*
X32483152Y-26661904D01*
X32483152Y-26661904D02*
X32483152Y-26471428D01*
X32483152Y-26471428D02*
X32530771Y-26376190D01*
X32530771Y-26376190D02*
X32626009Y-26328571D01*
X32626009Y-26328571D02*
X32721247Y-26328571D01*
X32721247Y-26328571D02*
X32816485Y-26804761D01*
X33149819Y-25899999D02*
X32483152Y-25899999D01*
X32673628Y-25899999D02*
X32578390Y-25852380D01*
X32578390Y-25852380D02*
X32530771Y-25804761D01*
X32530771Y-25804761D02*
X32483152Y-25709523D01*
X32483152Y-25709523D02*
X32483152Y-25614285D01*
X32483152Y-25376189D02*
X33149819Y-25138094D01*
X32483152Y-24899999D02*
X33149819Y-25138094D01*
X33149819Y-25138094D02*
X33387914Y-25233332D01*
X33387914Y-25233332D02*
X33435533Y-25280951D01*
X33435533Y-25280951D02*
X33483152Y-25376189D01*
D10*
X30272300Y-26701428D02*
X30272300Y-25558571D01*
X30272300Y-29241428D02*
X30272300Y-28098571D01*
X30843728Y-28669999D02*
X29700871Y-28669999D01*
D11*
X60333333Y-31592800D02*
X60190476Y-31545180D01*
X60190476Y-31545180D02*
X59952381Y-31545180D01*
X59952381Y-31545180D02*
X59857143Y-31592800D01*
X59857143Y-31592800D02*
X59809524Y-31640419D01*
X59809524Y-31640419D02*
X59761905Y-31735657D01*
X59761905Y-31735657D02*
X59761905Y-31830895D01*
X59761905Y-31830895D02*
X59809524Y-31926133D01*
X59809524Y-31926133D02*
X59857143Y-31973752D01*
X59857143Y-31973752D02*
X59952381Y-32021371D01*
X59952381Y-32021371D02*
X60142857Y-32068990D01*
X60142857Y-32068990D02*
X60238095Y-32116609D01*
X60238095Y-32116609D02*
X60285714Y-32164228D01*
X60285714Y-32164228D02*
X60333333Y-32259466D01*
X60333333Y-32259466D02*
X60333333Y-32354704D01*
X60333333Y-32354704D02*
X60285714Y-32449942D01*
X60285714Y-32449942D02*
X60238095Y-32497561D01*
X60238095Y-32497561D02*
X60142857Y-32545180D01*
X60142857Y-32545180D02*
X59904762Y-32545180D01*
X59904762Y-32545180D02*
X59761905Y-32497561D01*
X59333333Y-31545180D02*
X59333333Y-32545180D01*
X59333333Y-32545180D02*
X59095238Y-32545180D01*
X59095238Y-32545180D02*
X58952381Y-32497561D01*
X58952381Y-32497561D02*
X58857143Y-32402323D01*
X58857143Y-32402323D02*
X58809524Y-32307085D01*
X58809524Y-32307085D02*
X58761905Y-32116609D01*
X58761905Y-32116609D02*
X58761905Y-31973752D01*
X58761905Y-31973752D02*
X58809524Y-31783276D01*
X58809524Y-31783276D02*
X58857143Y-31688038D01*
X58857143Y-31688038D02*
X58952381Y-31592800D01*
X58952381Y-31592800D02*
X59095238Y-31545180D01*
X59095238Y-31545180D02*
X59333333Y-31545180D01*
X57000000Y-31640419D02*
X57047619Y-31592800D01*
X57047619Y-31592800D02*
X57190476Y-31545180D01*
X57190476Y-31545180D02*
X57285714Y-31545180D01*
X57285714Y-31545180D02*
X57428571Y-31592800D01*
X57428571Y-31592800D02*
X57523809Y-31688038D01*
X57523809Y-31688038D02*
X57571428Y-31783276D01*
X57571428Y-31783276D02*
X57619047Y-31973752D01*
X57619047Y-31973752D02*
X57619047Y-32116609D01*
X57619047Y-32116609D02*
X57571428Y-32307085D01*
X57571428Y-32307085D02*
X57523809Y-32402323D01*
X57523809Y-32402323D02*
X57428571Y-32497561D01*
X57428571Y-32497561D02*
X57285714Y-32545180D01*
X57285714Y-32545180D02*
X57190476Y-32545180D01*
X57190476Y-32545180D02*
X57047619Y-32497561D01*
X57047619Y-32497561D02*
X57000000Y-32449942D01*
X56142857Y-31545180D02*
X56142857Y-32068990D01*
X56142857Y-32068990D02*
X56190476Y-32164228D01*
X56190476Y-32164228D02*
X56285714Y-32211847D01*
X56285714Y-32211847D02*
X56476190Y-32211847D01*
X56476190Y-32211847D02*
X56571428Y-32164228D01*
X56142857Y-31592800D02*
X56238095Y-31545180D01*
X56238095Y-31545180D02*
X56476190Y-31545180D01*
X56476190Y-31545180D02*
X56571428Y-31592800D01*
X56571428Y-31592800D02*
X56619047Y-31688038D01*
X56619047Y-31688038D02*
X56619047Y-31783276D01*
X56619047Y-31783276D02*
X56571428Y-31878514D01*
X56571428Y-31878514D02*
X56476190Y-31926133D01*
X56476190Y-31926133D02*
X56238095Y-31926133D01*
X56238095Y-31926133D02*
X56142857Y-31973752D01*
X55666666Y-31545180D02*
X55666666Y-32211847D01*
X55666666Y-32021371D02*
X55619047Y-32116609D01*
X55619047Y-32116609D02*
X55571428Y-32164228D01*
X55571428Y-32164228D02*
X55476190Y-32211847D01*
X55476190Y-32211847D02*
X55380952Y-32211847D01*
X54619047Y-31545180D02*
X54619047Y-32545180D01*
X54619047Y-31592800D02*
X54714285Y-31545180D01*
X54714285Y-31545180D02*
X54904761Y-31545180D01*
X54904761Y-31545180D02*
X54999999Y-31592800D01*
X54999999Y-31592800D02*
X55047618Y-31640419D01*
X55047618Y-31640419D02*
X55095237Y-31735657D01*
X55095237Y-31735657D02*
X55095237Y-32021371D01*
X55095237Y-32021371D02*
X55047618Y-32116609D01*
X55047618Y-32116609D02*
X54999999Y-32164228D01*
X54999999Y-32164228D02*
X54904761Y-32211847D01*
X54904761Y-32211847D02*
X54714285Y-32211847D01*
X54714285Y-32211847D02*
X54619047Y-32164228D01*
X52809523Y-31545180D02*
X53142856Y-32021371D01*
X53380951Y-31545180D02*
X53380951Y-32545180D01*
X53380951Y-32545180D02*
X52999999Y-32545180D01*
X52999999Y-32545180D02*
X52904761Y-32497561D01*
X52904761Y-32497561D02*
X52857142Y-32449942D01*
X52857142Y-32449942D02*
X52809523Y-32354704D01*
X52809523Y-32354704D02*
X52809523Y-32211847D01*
X52809523Y-32211847D02*
X52857142Y-32116609D01*
X52857142Y-32116609D02*
X52904761Y-32068990D01*
X52904761Y-32068990D02*
X52999999Y-32021371D01*
X52999999Y-32021371D02*
X53380951Y-32021371D01*
X51999999Y-31592800D02*
X52095237Y-31545180D01*
X52095237Y-31545180D02*
X52285713Y-31545180D01*
X52285713Y-31545180D02*
X52380951Y-31592800D01*
X52380951Y-31592800D02*
X52428570Y-31688038D01*
X52428570Y-31688038D02*
X52428570Y-32068990D01*
X52428570Y-32068990D02*
X52380951Y-32164228D01*
X52380951Y-32164228D02*
X52285713Y-32211847D01*
X52285713Y-32211847D02*
X52095237Y-32211847D01*
X52095237Y-32211847D02*
X51999999Y-32164228D01*
X51999999Y-32164228D02*
X51952380Y-32068990D01*
X51952380Y-32068990D02*
X51952380Y-31973752D01*
X51952380Y-31973752D02*
X52428570Y-31878514D01*
X51095237Y-31545180D02*
X51095237Y-32068990D01*
X51095237Y-32068990D02*
X51142856Y-32164228D01*
X51142856Y-32164228D02*
X51238094Y-32211847D01*
X51238094Y-32211847D02*
X51428570Y-32211847D01*
X51428570Y-32211847D02*
X51523808Y-32164228D01*
X51095237Y-31592800D02*
X51190475Y-31545180D01*
X51190475Y-31545180D02*
X51428570Y-31545180D01*
X51428570Y-31545180D02*
X51523808Y-31592800D01*
X51523808Y-31592800D02*
X51571427Y-31688038D01*
X51571427Y-31688038D02*
X51571427Y-31783276D01*
X51571427Y-31783276D02*
X51523808Y-31878514D01*
X51523808Y-31878514D02*
X51428570Y-31926133D01*
X51428570Y-31926133D02*
X51190475Y-31926133D01*
X51190475Y-31926133D02*
X51095237Y-31973752D01*
X50190475Y-31545180D02*
X50190475Y-32545180D01*
X50190475Y-31592800D02*
X50285713Y-31545180D01*
X50285713Y-31545180D02*
X50476189Y-31545180D01*
X50476189Y-31545180D02*
X50571427Y-31592800D01*
X50571427Y-31592800D02*
X50619046Y-31640419D01*
X50619046Y-31640419D02*
X50666665Y-31735657D01*
X50666665Y-31735657D02*
X50666665Y-32021371D01*
X50666665Y-32021371D02*
X50619046Y-32116609D01*
X50619046Y-32116609D02*
X50571427Y-32164228D01*
X50571427Y-32164228D02*
X50476189Y-32211847D01*
X50476189Y-32211847D02*
X50285713Y-32211847D01*
X50285713Y-32211847D02*
X50190475Y-32164228D01*
X49333332Y-31592800D02*
X49428570Y-31545180D01*
X49428570Y-31545180D02*
X49619046Y-31545180D01*
X49619046Y-31545180D02*
X49714284Y-31592800D01*
X49714284Y-31592800D02*
X49761903Y-31688038D01*
X49761903Y-31688038D02*
X49761903Y-32068990D01*
X49761903Y-32068990D02*
X49714284Y-32164228D01*
X49714284Y-32164228D02*
X49619046Y-32211847D01*
X49619046Y-32211847D02*
X49428570Y-32211847D01*
X49428570Y-32211847D02*
X49333332Y-32164228D01*
X49333332Y-32164228D02*
X49285713Y-32068990D01*
X49285713Y-32068990D02*
X49285713Y-31973752D01*
X49285713Y-31973752D02*
X49761903Y-31878514D01*
X48857141Y-31545180D02*
X48857141Y-32211847D01*
X48857141Y-32021371D02*
X48809522Y-32116609D01*
X48809522Y-32116609D02*
X48761903Y-32164228D01*
X48761903Y-32164228D02*
X48666665Y-32211847D01*
X48666665Y-32211847D02*
X48571427Y-32211847D01*
D10*
X43103883Y-36352580D02*
X43103883Y-37352580D01*
X43103883Y-37352580D02*
X42865788Y-37352580D01*
X42865788Y-37352580D02*
X42722931Y-37304961D01*
X42722931Y-37304961D02*
X42627693Y-37209723D01*
X42627693Y-37209723D02*
X42580074Y-37114485D01*
X42580074Y-37114485D02*
X42532455Y-36924009D01*
X42532455Y-36924009D02*
X42532455Y-36781152D01*
X42532455Y-36781152D02*
X42580074Y-36590676D01*
X42580074Y-36590676D02*
X42627693Y-36495438D01*
X42627693Y-36495438D02*
X42722931Y-36400200D01*
X42722931Y-36400200D02*
X42865788Y-36352580D01*
X42865788Y-36352580D02*
X43103883Y-36352580D01*
X42103883Y-36352580D02*
X42103883Y-37352580D01*
X44151503Y-29684961D02*
X44246741Y-29732580D01*
X44246741Y-29732580D02*
X44389598Y-29732580D01*
X44389598Y-29732580D02*
X44532455Y-29684961D01*
X44532455Y-29684961D02*
X44627693Y-29589723D01*
X44627693Y-29589723D02*
X44675312Y-29494485D01*
X44675312Y-29494485D02*
X44722931Y-29304009D01*
X44722931Y-29304009D02*
X44722931Y-29161152D01*
X44722931Y-29161152D02*
X44675312Y-28970676D01*
X44675312Y-28970676D02*
X44627693Y-28875438D01*
X44627693Y-28875438D02*
X44532455Y-28780200D01*
X44532455Y-28780200D02*
X44389598Y-28732580D01*
X44389598Y-28732580D02*
X44294360Y-28732580D01*
X44294360Y-28732580D02*
X44151503Y-28780200D01*
X44151503Y-28780200D02*
X44103884Y-28827819D01*
X44103884Y-28827819D02*
X44103884Y-29161152D01*
X44103884Y-29161152D02*
X44294360Y-29161152D01*
X43675312Y-28732580D02*
X43675312Y-29732580D01*
X43675312Y-29732580D02*
X43103884Y-28732580D01*
X43103884Y-28732580D02*
X43103884Y-29732580D01*
X42627693Y-28732580D02*
X42627693Y-29732580D01*
X42627693Y-29732580D02*
X42389598Y-29732580D01*
X42389598Y-29732580D02*
X42246741Y-29684961D01*
X42246741Y-29684961D02*
X42151503Y-29589723D01*
X42151503Y-29589723D02*
X42103884Y-29494485D01*
X42103884Y-29494485D02*
X42056265Y-29304009D01*
X42056265Y-29304009D02*
X42056265Y-29161152D01*
X42056265Y-29161152D02*
X42103884Y-28970676D01*
X42103884Y-28970676D02*
X42151503Y-28875438D01*
X42151503Y-28875438D02*
X42246741Y-28780200D01*
X42246741Y-28780200D02*
X42389598Y-28732580D01*
X42389598Y-28732580D02*
X42627693Y-28732580D01*
X42961027Y-24652580D02*
X43437217Y-24652580D01*
X43437217Y-24652580D02*
X43484836Y-24176390D01*
X43484836Y-24176390D02*
X43437217Y-24224009D01*
X43437217Y-24224009D02*
X43341979Y-24271628D01*
X43341979Y-24271628D02*
X43103884Y-24271628D01*
X43103884Y-24271628D02*
X43008646Y-24224009D01*
X43008646Y-24224009D02*
X42961027Y-24176390D01*
X42961027Y-24176390D02*
X42913408Y-24081152D01*
X42913408Y-24081152D02*
X42913408Y-23843057D01*
X42913408Y-23843057D02*
X42961027Y-23747819D01*
X42961027Y-23747819D02*
X43008646Y-23700200D01*
X43008646Y-23700200D02*
X43103884Y-23652580D01*
X43103884Y-23652580D02*
X43341979Y-23652580D01*
X43341979Y-23652580D02*
X43437217Y-23700200D01*
X43437217Y-23700200D02*
X43484836Y-23747819D01*
X42627693Y-24652580D02*
X42294360Y-23652580D01*
X42294360Y-23652580D02*
X41961027Y-24652580D01*
X43532455Y-27192580D02*
X42913408Y-27192580D01*
X42913408Y-27192580D02*
X43246741Y-26811628D01*
X43246741Y-26811628D02*
X43103884Y-26811628D01*
X43103884Y-26811628D02*
X43008646Y-26764009D01*
X43008646Y-26764009D02*
X42961027Y-26716390D01*
X42961027Y-26716390D02*
X42913408Y-26621152D01*
X42913408Y-26621152D02*
X42913408Y-26383057D01*
X42913408Y-26383057D02*
X42961027Y-26287819D01*
X42961027Y-26287819D02*
X43008646Y-26240200D01*
X43008646Y-26240200D02*
X43103884Y-26192580D01*
X43103884Y-26192580D02*
X43389598Y-26192580D01*
X43389598Y-26192580D02*
X43484836Y-26240200D01*
X43484836Y-26240200D02*
X43532455Y-26287819D01*
X42627693Y-27192580D02*
X42294360Y-26192580D01*
X42294360Y-26192580D02*
X41961027Y-27192580D01*
X43008646Y-38987819D02*
X43056265Y-38940200D01*
X43056265Y-38940200D02*
X43199122Y-38892580D01*
X43199122Y-38892580D02*
X43294360Y-38892580D01*
X43294360Y-38892580D02*
X43437217Y-38940200D01*
X43437217Y-38940200D02*
X43532455Y-39035438D01*
X43532455Y-39035438D02*
X43580074Y-39130676D01*
X43580074Y-39130676D02*
X43627693Y-39321152D01*
X43627693Y-39321152D02*
X43627693Y-39464009D01*
X43627693Y-39464009D02*
X43580074Y-39654485D01*
X43580074Y-39654485D02*
X43532455Y-39749723D01*
X43532455Y-39749723D02*
X43437217Y-39844961D01*
X43437217Y-39844961D02*
X43294360Y-39892580D01*
X43294360Y-39892580D02*
X43199122Y-39892580D01*
X43199122Y-39892580D02*
X43056265Y-39844961D01*
X43056265Y-39844961D02*
X43008646Y-39797342D01*
X42627693Y-38940200D02*
X42484836Y-38892580D01*
X42484836Y-38892580D02*
X42246741Y-38892580D01*
X42246741Y-38892580D02*
X42151503Y-38940200D01*
X42151503Y-38940200D02*
X42103884Y-38987819D01*
X42103884Y-38987819D02*
X42056265Y-39083057D01*
X42056265Y-39083057D02*
X42056265Y-39178295D01*
X42056265Y-39178295D02*
X42103884Y-39273533D01*
X42103884Y-39273533D02*
X42151503Y-39321152D01*
X42151503Y-39321152D02*
X42246741Y-39368771D01*
X42246741Y-39368771D02*
X42437217Y-39416390D01*
X42437217Y-39416390D02*
X42532455Y-39464009D01*
X42532455Y-39464009D02*
X42580074Y-39511628D01*
X42580074Y-39511628D02*
X42627693Y-39606866D01*
X42627693Y-39606866D02*
X42627693Y-39702104D01*
X42627693Y-39702104D02*
X42580074Y-39797342D01*
X42580074Y-39797342D02*
X42532455Y-39844961D01*
X42532455Y-39844961D02*
X42437217Y-39892580D01*
X42437217Y-39892580D02*
X42199122Y-39892580D01*
X42199122Y-39892580D02*
X42056265Y-39844961D01*
X43675312Y-33812580D02*
X43675312Y-34812580D01*
X43675312Y-34812580D02*
X43437217Y-34812580D01*
X43437217Y-34812580D02*
X43294360Y-34764961D01*
X43294360Y-34764961D02*
X43199122Y-34669723D01*
X43199122Y-34669723D02*
X43151503Y-34574485D01*
X43151503Y-34574485D02*
X43103884Y-34384009D01*
X43103884Y-34384009D02*
X43103884Y-34241152D01*
X43103884Y-34241152D02*
X43151503Y-34050676D01*
X43151503Y-34050676D02*
X43199122Y-33955438D01*
X43199122Y-33955438D02*
X43294360Y-33860200D01*
X43294360Y-33860200D02*
X43437217Y-33812580D01*
X43437217Y-33812580D02*
X43675312Y-33812580D01*
X42484836Y-34812580D02*
X42294360Y-34812580D01*
X42294360Y-34812580D02*
X42199122Y-34764961D01*
X42199122Y-34764961D02*
X42103884Y-34669723D01*
X42103884Y-34669723D02*
X42056265Y-34479247D01*
X42056265Y-34479247D02*
X42056265Y-34145914D01*
X42056265Y-34145914D02*
X42103884Y-33955438D01*
X42103884Y-33955438D02*
X42199122Y-33860200D01*
X42199122Y-33860200D02*
X42294360Y-33812580D01*
X42294360Y-33812580D02*
X42484836Y-33812580D01*
X42484836Y-33812580D02*
X42580074Y-33860200D01*
X42580074Y-33860200D02*
X42675312Y-33955438D01*
X42675312Y-33955438D02*
X42722931Y-34145914D01*
X42722931Y-34145914D02*
X42722931Y-34479247D01*
X42722931Y-34479247D02*
X42675312Y-34669723D01*
X42675312Y-34669723D02*
X42580074Y-34764961D01*
X42580074Y-34764961D02*
X42484836Y-34812580D01*
X43056265Y-41527819D02*
X43103884Y-41480200D01*
X43103884Y-41480200D02*
X43246741Y-41432580D01*
X43246741Y-41432580D02*
X43341979Y-41432580D01*
X43341979Y-41432580D02*
X43484836Y-41480200D01*
X43484836Y-41480200D02*
X43580074Y-41575438D01*
X43580074Y-41575438D02*
X43627693Y-41670676D01*
X43627693Y-41670676D02*
X43675312Y-41861152D01*
X43675312Y-41861152D02*
X43675312Y-42004009D01*
X43675312Y-42004009D02*
X43627693Y-42194485D01*
X43627693Y-42194485D02*
X43580074Y-42289723D01*
X43580074Y-42289723D02*
X43484836Y-42384961D01*
X43484836Y-42384961D02*
X43341979Y-42432580D01*
X43341979Y-42432580D02*
X43246741Y-42432580D01*
X43246741Y-42432580D02*
X43103884Y-42384961D01*
X43103884Y-42384961D02*
X43056265Y-42337342D01*
X42627693Y-41432580D02*
X42627693Y-42432580D01*
X42627693Y-42432580D02*
X42389598Y-42432580D01*
X42389598Y-42432580D02*
X42246741Y-42384961D01*
X42246741Y-42384961D02*
X42151503Y-42289723D01*
X42151503Y-42289723D02*
X42103884Y-42194485D01*
X42103884Y-42194485D02*
X42056265Y-42004009D01*
X42056265Y-42004009D02*
X42056265Y-41861152D01*
X42056265Y-41861152D02*
X42103884Y-41670676D01*
X42103884Y-41670676D02*
X42151503Y-41575438D01*
X42151503Y-41575438D02*
X42246741Y-41480200D01*
X42246741Y-41480200D02*
X42389598Y-41432580D01*
X42389598Y-41432580D02*
X42627693Y-41432580D01*
X43865789Y-31367819D02*
X43913408Y-31320200D01*
X43913408Y-31320200D02*
X44056265Y-31272580D01*
X44056265Y-31272580D02*
X44151503Y-31272580D01*
X44151503Y-31272580D02*
X44294360Y-31320200D01*
X44294360Y-31320200D02*
X44389598Y-31415438D01*
X44389598Y-31415438D02*
X44437217Y-31510676D01*
X44437217Y-31510676D02*
X44484836Y-31701152D01*
X44484836Y-31701152D02*
X44484836Y-31844009D01*
X44484836Y-31844009D02*
X44437217Y-32034485D01*
X44437217Y-32034485D02*
X44389598Y-32129723D01*
X44389598Y-32129723D02*
X44294360Y-32224961D01*
X44294360Y-32224961D02*
X44151503Y-32272580D01*
X44151503Y-32272580D02*
X44056265Y-32272580D01*
X44056265Y-32272580D02*
X43913408Y-32224961D01*
X43913408Y-32224961D02*
X43865789Y-32177342D01*
X42961027Y-31272580D02*
X43437217Y-31272580D01*
X43437217Y-31272580D02*
X43437217Y-32272580D01*
X42627693Y-31272580D02*
X42627693Y-32272580D01*
X42056265Y-31272580D02*
X42484836Y-31844009D01*
X42056265Y-32272580D02*
X42627693Y-31701152D01*
D11*
X67881428Y-60809819D02*
X67881428Y-61619342D01*
X67881428Y-61619342D02*
X67929047Y-61714580D01*
X67929047Y-61714580D02*
X67976666Y-61762200D01*
X67976666Y-61762200D02*
X68071904Y-61809819D01*
X68071904Y-61809819D02*
X68262380Y-61809819D01*
X68262380Y-61809819D02*
X68357618Y-61762200D01*
X68357618Y-61762200D02*
X68405237Y-61714580D01*
X68405237Y-61714580D02*
X68452856Y-61619342D01*
X68452856Y-61619342D02*
X68452856Y-60809819D01*
X69071904Y-61809819D02*
X68976666Y-61762200D01*
X68976666Y-61762200D02*
X68929047Y-61666961D01*
X68929047Y-61666961D02*
X68929047Y-60809819D01*
X69310000Y-61143152D02*
X69690952Y-61143152D01*
X69452857Y-60809819D02*
X69452857Y-61666961D01*
X69452857Y-61666961D02*
X69500476Y-61762200D01*
X69500476Y-61762200D02*
X69595714Y-61809819D01*
X69595714Y-61809819D02*
X69690952Y-61809819D01*
X70024286Y-61809819D02*
X70024286Y-61143152D01*
X70024286Y-61333628D02*
X70071905Y-61238390D01*
X70071905Y-61238390D02*
X70119524Y-61190771D01*
X70119524Y-61190771D02*
X70214762Y-61143152D01*
X70214762Y-61143152D02*
X70310000Y-61143152D01*
X71071905Y-61809819D02*
X71071905Y-61286009D01*
X71071905Y-61286009D02*
X71024286Y-61190771D01*
X71024286Y-61190771D02*
X70929048Y-61143152D01*
X70929048Y-61143152D02*
X70738572Y-61143152D01*
X70738572Y-61143152D02*
X70643334Y-61190771D01*
X71071905Y-61762200D02*
X70976667Y-61809819D01*
X70976667Y-61809819D02*
X70738572Y-61809819D01*
X70738572Y-61809819D02*
X70643334Y-61762200D01*
X70643334Y-61762200D02*
X70595715Y-61666961D01*
X70595715Y-61666961D02*
X70595715Y-61571723D01*
X70595715Y-61571723D02*
X70643334Y-61476485D01*
X70643334Y-61476485D02*
X70738572Y-61428866D01*
X70738572Y-61428866D02*
X70976667Y-61428866D01*
X70976667Y-61428866D02*
X71071905Y-61381247D01*
X71500477Y-61762200D02*
X71595715Y-61809819D01*
X71595715Y-61809819D02*
X71786191Y-61809819D01*
X71786191Y-61809819D02*
X71881429Y-61762200D01*
X71881429Y-61762200D02*
X71929048Y-61666961D01*
X71929048Y-61666961D02*
X71929048Y-61619342D01*
X71929048Y-61619342D02*
X71881429Y-61524104D01*
X71881429Y-61524104D02*
X71786191Y-61476485D01*
X71786191Y-61476485D02*
X71643334Y-61476485D01*
X71643334Y-61476485D02*
X71548096Y-61428866D01*
X71548096Y-61428866D02*
X71500477Y-61333628D01*
X71500477Y-61333628D02*
X71500477Y-61286009D01*
X71500477Y-61286009D02*
X71548096Y-61190771D01*
X71548096Y-61190771D02*
X71643334Y-61143152D01*
X71643334Y-61143152D02*
X71786191Y-61143152D01*
X71786191Y-61143152D02*
X71881429Y-61190771D01*
X72500477Y-61809819D02*
X72405239Y-61762200D01*
X72405239Y-61762200D02*
X72357620Y-61714580D01*
X72357620Y-61714580D02*
X72310001Y-61619342D01*
X72310001Y-61619342D02*
X72310001Y-61333628D01*
X72310001Y-61333628D02*
X72357620Y-61238390D01*
X72357620Y-61238390D02*
X72405239Y-61190771D01*
X72405239Y-61190771D02*
X72500477Y-61143152D01*
X72500477Y-61143152D02*
X72643334Y-61143152D01*
X72643334Y-61143152D02*
X72738572Y-61190771D01*
X72738572Y-61190771D02*
X72786191Y-61238390D01*
X72786191Y-61238390D02*
X72833810Y-61333628D01*
X72833810Y-61333628D02*
X72833810Y-61619342D01*
X72833810Y-61619342D02*
X72786191Y-61714580D01*
X72786191Y-61714580D02*
X72738572Y-61762200D01*
X72738572Y-61762200D02*
X72643334Y-61809819D01*
X72643334Y-61809819D02*
X72500477Y-61809819D01*
X73262382Y-61143152D02*
X73262382Y-61809819D01*
X73262382Y-61238390D02*
X73310001Y-61190771D01*
X73310001Y-61190771D02*
X73405239Y-61143152D01*
X73405239Y-61143152D02*
X73548096Y-61143152D01*
X73548096Y-61143152D02*
X73643334Y-61190771D01*
X73643334Y-61190771D02*
X73690953Y-61286009D01*
X73690953Y-61286009D02*
X73690953Y-61809819D01*
X74167144Y-61809819D02*
X74167144Y-61143152D01*
X74167144Y-60809819D02*
X74119525Y-60857438D01*
X74119525Y-60857438D02*
X74167144Y-60905057D01*
X74167144Y-60905057D02*
X74214763Y-60857438D01*
X74214763Y-60857438D02*
X74167144Y-60809819D01*
X74167144Y-60809819D02*
X74167144Y-60905057D01*
X75071905Y-61762200D02*
X74976667Y-61809819D01*
X74976667Y-61809819D02*
X74786191Y-61809819D01*
X74786191Y-61809819D02*
X74690953Y-61762200D01*
X74690953Y-61762200D02*
X74643334Y-61714580D01*
X74643334Y-61714580D02*
X74595715Y-61619342D01*
X74595715Y-61619342D02*
X74595715Y-61333628D01*
X74595715Y-61333628D02*
X74643334Y-61238390D01*
X74643334Y-61238390D02*
X74690953Y-61190771D01*
X74690953Y-61190771D02*
X74786191Y-61143152D01*
X74786191Y-61143152D02*
X74976667Y-61143152D01*
X74976667Y-61143152D02*
X75071905Y-61190771D01*
X76786191Y-61809819D02*
X76214763Y-61809819D01*
X76500477Y-61809819D02*
X76500477Y-60809819D01*
X76500477Y-60809819D02*
X76405239Y-60952676D01*
X76405239Y-60952676D02*
X76310001Y-61047914D01*
X76310001Y-61047914D02*
X76214763Y-61095533D01*
X46951904Y-59059819D02*
X47142380Y-59059819D01*
X47142380Y-59059819D02*
X47237618Y-59107438D01*
X47237618Y-59107438D02*
X47332856Y-59202676D01*
X47332856Y-59202676D02*
X47380475Y-59393152D01*
X47380475Y-59393152D02*
X47380475Y-59726485D01*
X47380475Y-59726485D02*
X47332856Y-59916961D01*
X47332856Y-59916961D02*
X47237618Y-60012200D01*
X47237618Y-60012200D02*
X47142380Y-60059819D01*
X47142380Y-60059819D02*
X46951904Y-60059819D01*
X46951904Y-60059819D02*
X46856666Y-60012200D01*
X46856666Y-60012200D02*
X46761428Y-59916961D01*
X46761428Y-59916961D02*
X46713809Y-59726485D01*
X46713809Y-59726485D02*
X46713809Y-59393152D01*
X46713809Y-59393152D02*
X46761428Y-59202676D01*
X46761428Y-59202676D02*
X46856666Y-59107438D01*
X46856666Y-59107438D02*
X46951904Y-59059819D01*
X47713809Y-59393152D02*
X48237618Y-59393152D01*
X48237618Y-59393152D02*
X47713809Y-60059819D01*
X47713809Y-60059819D02*
X48237618Y-60059819D01*
X48761428Y-60059819D02*
X48666190Y-60012200D01*
X48666190Y-60012200D02*
X48618571Y-59964580D01*
X48618571Y-59964580D02*
X48570952Y-59869342D01*
X48570952Y-59869342D02*
X48570952Y-59583628D01*
X48570952Y-59583628D02*
X48618571Y-59488390D01*
X48618571Y-59488390D02*
X48666190Y-59440771D01*
X48666190Y-59440771D02*
X48761428Y-59393152D01*
X48761428Y-59393152D02*
X48904285Y-59393152D01*
X48904285Y-59393152D02*
X48999523Y-59440771D01*
X48999523Y-59440771D02*
X49047142Y-59488390D01*
X49047142Y-59488390D02*
X49094761Y-59583628D01*
X49094761Y-59583628D02*
X49094761Y-59869342D01*
X49094761Y-59869342D02*
X49047142Y-59964580D01*
X49047142Y-59964580D02*
X48999523Y-60012200D01*
X48999523Y-60012200D02*
X48904285Y-60059819D01*
X48904285Y-60059819D02*
X48761428Y-60059819D01*
X49523333Y-59393152D02*
X49523333Y-60059819D01*
X49523333Y-59488390D02*
X49570952Y-59440771D01*
X49570952Y-59440771D02*
X49666190Y-59393152D01*
X49666190Y-59393152D02*
X49809047Y-59393152D01*
X49809047Y-59393152D02*
X49904285Y-59440771D01*
X49904285Y-59440771D02*
X49951904Y-59536009D01*
X49951904Y-59536009D02*
X49951904Y-60059819D01*
X50809047Y-60012200D02*
X50713809Y-60059819D01*
X50713809Y-60059819D02*
X50523333Y-60059819D01*
X50523333Y-60059819D02*
X50428095Y-60012200D01*
X50428095Y-60012200D02*
X50380476Y-59916961D01*
X50380476Y-59916961D02*
X50380476Y-59536009D01*
X50380476Y-59536009D02*
X50428095Y-59440771D01*
X50428095Y-59440771D02*
X50523333Y-59393152D01*
X50523333Y-59393152D02*
X50713809Y-59393152D01*
X50713809Y-59393152D02*
X50809047Y-59440771D01*
X50809047Y-59440771D02*
X50856666Y-59536009D01*
X50856666Y-59536009D02*
X50856666Y-59631247D01*
X50856666Y-59631247D02*
X50380476Y-59726485D01*
X51999524Y-60012200D02*
X52142381Y-60059819D01*
X52142381Y-60059819D02*
X52380476Y-60059819D01*
X52380476Y-60059819D02*
X52475714Y-60012200D01*
X52475714Y-60012200D02*
X52523333Y-59964580D01*
X52523333Y-59964580D02*
X52570952Y-59869342D01*
X52570952Y-59869342D02*
X52570952Y-59774104D01*
X52570952Y-59774104D02*
X52523333Y-59678866D01*
X52523333Y-59678866D02*
X52475714Y-59631247D01*
X52475714Y-59631247D02*
X52380476Y-59583628D01*
X52380476Y-59583628D02*
X52190000Y-59536009D01*
X52190000Y-59536009D02*
X52094762Y-59488390D01*
X52094762Y-59488390D02*
X52047143Y-59440771D01*
X52047143Y-59440771D02*
X51999524Y-59345533D01*
X51999524Y-59345533D02*
X51999524Y-59250295D01*
X51999524Y-59250295D02*
X52047143Y-59155057D01*
X52047143Y-59155057D02*
X52094762Y-59107438D01*
X52094762Y-59107438D02*
X52190000Y-59059819D01*
X52190000Y-59059819D02*
X52428095Y-59059819D01*
X52428095Y-59059819D02*
X52570952Y-59107438D01*
X53380476Y-60012200D02*
X53285238Y-60059819D01*
X53285238Y-60059819D02*
X53094762Y-60059819D01*
X53094762Y-60059819D02*
X52999524Y-60012200D01*
X52999524Y-60012200D02*
X52951905Y-59916961D01*
X52951905Y-59916961D02*
X52951905Y-59536009D01*
X52951905Y-59536009D02*
X52999524Y-59440771D01*
X52999524Y-59440771D02*
X53094762Y-59393152D01*
X53094762Y-59393152D02*
X53285238Y-59393152D01*
X53285238Y-59393152D02*
X53380476Y-59440771D01*
X53380476Y-59440771D02*
X53428095Y-59536009D01*
X53428095Y-59536009D02*
X53428095Y-59631247D01*
X53428095Y-59631247D02*
X52951905Y-59726485D01*
X53856667Y-59393152D02*
X53856667Y-60059819D01*
X53856667Y-59488390D02*
X53904286Y-59440771D01*
X53904286Y-59440771D02*
X53999524Y-59393152D01*
X53999524Y-59393152D02*
X54142381Y-59393152D01*
X54142381Y-59393152D02*
X54237619Y-59440771D01*
X54237619Y-59440771D02*
X54285238Y-59536009D01*
X54285238Y-59536009D02*
X54285238Y-60059819D01*
X54713810Y-60012200D02*
X54809048Y-60059819D01*
X54809048Y-60059819D02*
X54999524Y-60059819D01*
X54999524Y-60059819D02*
X55094762Y-60012200D01*
X55094762Y-60012200D02*
X55142381Y-59916961D01*
X55142381Y-59916961D02*
X55142381Y-59869342D01*
X55142381Y-59869342D02*
X55094762Y-59774104D01*
X55094762Y-59774104D02*
X54999524Y-59726485D01*
X54999524Y-59726485D02*
X54856667Y-59726485D01*
X54856667Y-59726485D02*
X54761429Y-59678866D01*
X54761429Y-59678866D02*
X54713810Y-59583628D01*
X54713810Y-59583628D02*
X54713810Y-59536009D01*
X54713810Y-59536009D02*
X54761429Y-59440771D01*
X54761429Y-59440771D02*
X54856667Y-59393152D01*
X54856667Y-59393152D02*
X54999524Y-59393152D01*
X54999524Y-59393152D02*
X55094762Y-59440771D01*
X55713810Y-60059819D02*
X55618572Y-60012200D01*
X55618572Y-60012200D02*
X55570953Y-59964580D01*
X55570953Y-59964580D02*
X55523334Y-59869342D01*
X55523334Y-59869342D02*
X55523334Y-59583628D01*
X55523334Y-59583628D02*
X55570953Y-59488390D01*
X55570953Y-59488390D02*
X55618572Y-59440771D01*
X55618572Y-59440771D02*
X55713810Y-59393152D01*
X55713810Y-59393152D02*
X55856667Y-59393152D01*
X55856667Y-59393152D02*
X55951905Y-59440771D01*
X55951905Y-59440771D02*
X55999524Y-59488390D01*
X55999524Y-59488390D02*
X56047143Y-59583628D01*
X56047143Y-59583628D02*
X56047143Y-59869342D01*
X56047143Y-59869342D02*
X55999524Y-59964580D01*
X55999524Y-59964580D02*
X55951905Y-60012200D01*
X55951905Y-60012200D02*
X55856667Y-60059819D01*
X55856667Y-60059819D02*
X55713810Y-60059819D01*
X56475715Y-60059819D02*
X56475715Y-59393152D01*
X56475715Y-59583628D02*
X56523334Y-59488390D01*
X56523334Y-59488390D02*
X56570953Y-59440771D01*
X56570953Y-59440771D02*
X56666191Y-59393152D01*
X56666191Y-59393152D02*
X56761429Y-59393152D01*
X28665714Y-32609104D02*
X29141904Y-32609104D01*
X28570476Y-32894819D02*
X28903809Y-31894819D01*
X28903809Y-31894819D02*
X29237142Y-32894819D01*
X30094285Y-32894819D02*
X29522857Y-32894819D01*
X29808571Y-32894819D02*
X29808571Y-31894819D01*
X29808571Y-31894819D02*
X29713333Y-32037676D01*
X29713333Y-32037676D02*
X29618095Y-32132914D01*
X29618095Y-32132914D02*
X29522857Y-32180533D01*
X28118095Y-72534819D02*
X28118095Y-73344342D01*
X28118095Y-73344342D02*
X28165714Y-73439580D01*
X28165714Y-73439580D02*
X28213333Y-73487200D01*
X28213333Y-73487200D02*
X28308571Y-73534819D01*
X28308571Y-73534819D02*
X28499047Y-73534819D01*
X28499047Y-73534819D02*
X28594285Y-73487200D01*
X28594285Y-73487200D02*
X28641904Y-73439580D01*
X28641904Y-73439580D02*
X28689523Y-73344342D01*
X28689523Y-73344342D02*
X28689523Y-72534819D01*
X29118095Y-73487200D02*
X29260952Y-73534819D01*
X29260952Y-73534819D02*
X29499047Y-73534819D01*
X29499047Y-73534819D02*
X29594285Y-73487200D01*
X29594285Y-73487200D02*
X29641904Y-73439580D01*
X29641904Y-73439580D02*
X29689523Y-73344342D01*
X29689523Y-73344342D02*
X29689523Y-73249104D01*
X29689523Y-73249104D02*
X29641904Y-73153866D01*
X29641904Y-73153866D02*
X29594285Y-73106247D01*
X29594285Y-73106247D02*
X29499047Y-73058628D01*
X29499047Y-73058628D02*
X29308571Y-73011009D01*
X29308571Y-73011009D02*
X29213333Y-72963390D01*
X29213333Y-72963390D02*
X29165714Y-72915771D01*
X29165714Y-72915771D02*
X29118095Y-72820533D01*
X29118095Y-72820533D02*
X29118095Y-72725295D01*
X29118095Y-72725295D02*
X29165714Y-72630057D01*
X29165714Y-72630057D02*
X29213333Y-72582438D01*
X29213333Y-72582438D02*
X29308571Y-72534819D01*
X29308571Y-72534819D02*
X29546666Y-72534819D01*
X29546666Y-72534819D02*
X29689523Y-72582438D01*
X30451428Y-73011009D02*
X30594285Y-73058628D01*
X30594285Y-73058628D02*
X30641904Y-73106247D01*
X30641904Y-73106247D02*
X30689523Y-73201485D01*
X30689523Y-73201485D02*
X30689523Y-73344342D01*
X30689523Y-73344342D02*
X30641904Y-73439580D01*
X30641904Y-73439580D02*
X30594285Y-73487200D01*
X30594285Y-73487200D02*
X30499047Y-73534819D01*
X30499047Y-73534819D02*
X30118095Y-73534819D01*
X30118095Y-73534819D02*
X30118095Y-72534819D01*
X30118095Y-72534819D02*
X30451428Y-72534819D01*
X30451428Y-72534819D02*
X30546666Y-72582438D01*
X30546666Y-72582438D02*
X30594285Y-72630057D01*
X30594285Y-72630057D02*
X30641904Y-72725295D01*
X30641904Y-72725295D02*
X30641904Y-72820533D01*
X30641904Y-72820533D02*
X30594285Y-72915771D01*
X30594285Y-72915771D02*
X30546666Y-72963390D01*
X30546666Y-72963390D02*
X30451428Y-73011009D01*
X30451428Y-73011009D02*
X30118095Y-73011009D01*
%TO.C,J8*%
D12*
X65960000Y-46690000D02*
X78660000Y-46690000D01*
X78660000Y-53040000D01*
X65960000Y-53040000D01*
X65960000Y-46690000D01*
%TO.C,J7*%
X65960000Y-54315000D02*
X78660000Y-54315000D01*
X78660000Y-60665000D01*
X65960000Y-60665000D01*
X65960000Y-54315000D01*
%TO.C,J3*%
X45340000Y-67815000D02*
X58040000Y-67815000D01*
X58040000Y-74165000D01*
X45340000Y-74165000D01*
X45340000Y-67815000D01*
%TO.C,J9*%
D10*
X31425000Y-31210000D02*
X37775000Y-31210000D01*
X37775000Y-23590000D01*
X31425000Y-23590000D01*
X31425000Y-31210000D01*
D13*
%TO.C,J1*%
X38625000Y-20300000D02*
X70375000Y-20300000D01*
X38625000Y-45700000D02*
X38625000Y-20300000D01*
X70375000Y-20300000D02*
X70375000Y-45700000D01*
X70375000Y-45700000D02*
X38625000Y-45700000D01*
D10*
%TO.C,J10*%
X60540000Y-52500000D02*
X60539903Y-52522165D01*
X60539903Y-52522165D02*
X60539613Y-52544329D01*
X60539613Y-52544329D02*
X60539130Y-52566489D01*
X60539130Y-52566489D02*
X60538453Y-52588645D01*
X60538453Y-52588645D02*
X60537582Y-52610793D01*
X60537582Y-52610793D02*
X60536519Y-52632933D01*
X60536519Y-52632933D02*
X60535262Y-52655063D01*
X60535262Y-52655063D02*
X60533813Y-52677181D01*
X60533813Y-52677181D02*
X60532170Y-52699286D01*
X60532170Y-52699286D02*
X60530335Y-52721376D01*
X60530335Y-52721376D02*
X60528306Y-52743448D01*
X60528306Y-52743448D02*
X60526086Y-52765502D01*
X60526086Y-52765502D02*
X60523673Y-52787536D01*
X60523673Y-52787536D02*
X60521067Y-52809548D01*
X60521067Y-52809548D02*
X60518270Y-52831537D01*
X60518270Y-52831537D02*
X60515281Y-52853500D01*
X60515281Y-52853500D02*
X60512100Y-52875436D01*
X60512100Y-52875436D02*
X60508728Y-52897344D01*
X60508728Y-52897344D02*
X60505165Y-52919221D01*
X60505165Y-52919221D02*
X60501412Y-52941066D01*
X60501412Y-52941066D02*
X60497467Y-52962878D01*
X60497467Y-52962878D02*
X60493333Y-52984655D01*
X60493333Y-52984655D02*
X60489009Y-53006395D01*
X60489009Y-53006395D02*
X60484495Y-53028096D01*
X60484495Y-53028096D02*
X60479792Y-53049757D01*
X60479792Y-53049757D02*
X60474900Y-53071376D01*
X60474900Y-53071376D02*
X60469820Y-53092951D01*
X60469820Y-53092951D02*
X60464551Y-53114482D01*
X60464551Y-53114482D02*
X60459095Y-53135965D01*
X60459095Y-53135965D02*
X60453452Y-53157400D01*
X60453452Y-53157400D02*
X60447621Y-53178785D01*
X60447621Y-53178785D02*
X60441605Y-53200119D01*
X60441605Y-53200119D02*
X60435402Y-53221399D01*
X60435402Y-53221399D02*
X60429014Y-53242624D01*
X60429014Y-53242624D02*
X60422441Y-53263793D01*
X60422441Y-53263793D02*
X60415684Y-53284903D01*
X60415684Y-53284903D02*
X60408742Y-53305954D01*
X60408742Y-53305954D02*
X60401617Y-53326943D01*
X60401617Y-53326943D02*
X60394309Y-53347869D01*
X60394309Y-53347869D02*
X60386819Y-53368731D01*
X60386819Y-53368731D02*
X60379147Y-53389527D01*
X60379147Y-53389527D02*
X60371294Y-53410255D01*
X60371294Y-53410255D02*
X60363261Y-53430913D01*
X60363261Y-53430913D02*
X60355047Y-53451501D01*
X60355047Y-53451501D02*
X60346654Y-53472016D01*
X60346654Y-53472016D02*
X60338082Y-53492457D01*
X60338082Y-53492457D02*
X60329333Y-53512823D01*
X60329333Y-53512823D02*
X60320405Y-53533111D01*
X60320405Y-53533111D02*
X60311302Y-53553321D01*
X60311302Y-53553321D02*
X60305511Y-53565937D01*
X60109810Y-53914320D02*
X60098608Y-53930889D01*
X59848233Y-54242308D02*
X59832958Y-54258370D01*
X59832958Y-54258370D02*
X59817544Y-54274298D01*
X59817544Y-54274298D02*
X59801991Y-54290092D01*
X59801991Y-54290092D02*
X59786301Y-54305749D01*
X59786301Y-54305749D02*
X59770475Y-54321268D01*
X59770475Y-54321268D02*
X59754515Y-54336649D01*
X59754515Y-54336649D02*
X59738420Y-54351890D01*
X59738420Y-54351890D02*
X59722193Y-54366990D01*
X59722193Y-54366990D02*
X59705835Y-54381947D01*
X59705835Y-54381947D02*
X59689348Y-54396762D01*
X59689348Y-54396762D02*
X59672731Y-54411432D01*
X59672731Y-54411432D02*
X59655987Y-54425956D01*
X59655987Y-54425956D02*
X59639117Y-54440334D01*
X59639117Y-54440334D02*
X59622122Y-54454564D01*
X59622122Y-54454564D02*
X59605004Y-54468645D01*
X59605004Y-54468645D02*
X59587764Y-54482576D01*
X59587764Y-54482576D02*
X59570402Y-54496356D01*
X59570402Y-54496356D02*
X59552921Y-54509984D01*
X59552921Y-54509984D02*
X59535322Y-54523459D01*
X59535322Y-54523459D02*
X59517605Y-54536780D01*
X59517605Y-54536780D02*
X59499774Y-54549946D01*
X59499774Y-54549946D02*
X59481828Y-54562956D01*
X59481828Y-54562956D02*
X59463769Y-54575809D01*
X59463769Y-54575809D02*
X59445598Y-54588503D01*
X59445598Y-54588503D02*
X59427318Y-54601039D01*
X59427318Y-54601039D02*
X59408929Y-54613414D01*
X59408929Y-54613414D02*
X59390432Y-54625629D01*
X59390432Y-54625629D02*
X59371830Y-54637682D01*
X59371830Y-54637682D02*
X59353123Y-54649571D01*
X59353123Y-54649571D02*
X59334313Y-54661298D01*
X59334313Y-54661298D02*
X59315402Y-54672859D01*
X59315402Y-54672859D02*
X59296390Y-54684255D01*
X59296390Y-54684255D02*
X59277280Y-54695485D01*
X59277280Y-54695485D02*
X59258072Y-54706548D01*
X59258072Y-54706548D02*
X59238769Y-54717443D01*
X59238769Y-54717443D02*
X59219371Y-54728168D01*
X59219371Y-54728168D02*
X59199881Y-54738724D01*
X59199881Y-54738724D02*
X59180299Y-54749110D01*
X59180299Y-54749110D02*
X59160627Y-54759324D01*
X59160627Y-54759324D02*
X59140866Y-54769366D01*
X59140866Y-54769366D02*
X59121019Y-54779236D01*
X59121019Y-54779236D02*
X59101087Y-54788932D01*
X59101087Y-54788932D02*
X59081070Y-54798453D01*
X59081070Y-54798453D02*
X59060972Y-54807800D01*
X59060972Y-54807800D02*
X59040792Y-54816970D01*
X59040792Y-54816970D02*
X59020533Y-54825965D01*
X59020533Y-54825965D02*
X59000197Y-54834782D01*
X59000197Y-54834782D02*
X58979784Y-54843421D01*
X58979784Y-54843421D02*
X58959297Y-54851882D01*
X58959297Y-54851882D02*
X58946429Y-54857090D01*
X58565055Y-54976351D02*
X58545539Y-54980723D01*
X58149736Y-55035583D02*
X58127603Y-55036793D01*
X58127603Y-55036793D02*
X58105461Y-55037810D01*
X58105461Y-55037810D02*
X58083311Y-55038633D01*
X58083311Y-55038633D02*
X58061154Y-55039264D01*
X58061154Y-55039264D02*
X58038993Y-55039701D01*
X58038993Y-55039701D02*
X58016828Y-55039944D01*
X58016828Y-55039944D02*
X57994663Y-55039994D01*
X57994663Y-55039994D02*
X57972498Y-55039851D01*
X57972498Y-55039851D02*
X57950335Y-55039514D01*
X57950335Y-55039514D02*
X57928175Y-55038984D01*
X57928175Y-55038984D02*
X57906022Y-55038261D01*
X57906022Y-55038261D02*
X57883875Y-55037344D01*
X57883875Y-55037344D02*
X57861737Y-55036234D01*
X57861737Y-55036234D02*
X57839610Y-55034931D01*
X57839610Y-55034931D02*
X57817495Y-55033435D01*
X57817495Y-55033435D02*
X57795394Y-55031746D01*
X57795394Y-55031746D02*
X57773308Y-55029864D01*
X57773308Y-55029864D02*
X57751240Y-55027789D01*
X57751240Y-55027789D02*
X57729190Y-55025522D01*
X57729190Y-55025522D02*
X57707162Y-55023063D01*
X57707162Y-55023063D02*
X57685155Y-55020411D01*
X57685155Y-55020411D02*
X57663173Y-55017568D01*
X57663173Y-55017568D02*
X57641216Y-55014533D01*
X57641216Y-55014533D02*
X57619286Y-55011306D01*
X57619286Y-55011306D02*
X57597386Y-55007888D01*
X57597386Y-55007888D02*
X57575516Y-55004279D01*
X57575516Y-55004279D02*
X57553679Y-55000479D01*
X57553679Y-55000479D02*
X57531875Y-54996489D01*
X57531875Y-54996489D02*
X57510107Y-54992309D01*
X57510107Y-54992309D02*
X57488377Y-54987939D01*
X57488377Y-54987939D02*
X57466685Y-54983380D01*
X57466685Y-54983380D02*
X57445034Y-54978631D01*
X57445034Y-54978631D02*
X57423425Y-54973694D01*
X57423425Y-54973694D02*
X57401860Y-54968568D01*
X57401860Y-54968568D02*
X57380341Y-54963255D01*
X57380341Y-54963255D02*
X57358869Y-54957753D01*
X57358869Y-54957753D02*
X57337446Y-54952065D01*
X57337446Y-54952065D02*
X57316073Y-54946190D01*
X57316073Y-54946190D02*
X57294752Y-54940128D01*
X57294752Y-54940128D02*
X57273485Y-54933881D01*
X57273485Y-54933881D02*
X57252274Y-54927448D01*
X57252274Y-54927448D02*
X57231119Y-54920831D01*
X57231119Y-54920831D02*
X57210023Y-54914029D01*
X57210023Y-54914029D02*
X57188987Y-54907043D01*
X57188987Y-54907043D02*
X57168012Y-54899874D01*
X57168012Y-54899874D02*
X57147101Y-54892523D01*
X57147101Y-54892523D02*
X57126256Y-54884989D01*
X57126256Y-54884989D02*
X57105476Y-54877273D01*
X57105476Y-54877273D02*
X57084765Y-54869376D01*
X57084765Y-54869376D02*
X57071829Y-54864339D01*
X56712515Y-54689517D02*
X56695315Y-54679311D01*
X56369678Y-54447729D02*
X56352743Y-54433428D01*
X56352743Y-54433428D02*
X56335934Y-54418980D01*
X56335934Y-54418980D02*
X56319251Y-54404385D01*
X56319251Y-54404385D02*
X56302696Y-54389646D01*
X56302696Y-54389646D02*
X56286271Y-54374762D01*
X56286271Y-54374762D02*
X56269976Y-54359736D01*
X56269976Y-54359736D02*
X56253813Y-54344568D01*
X56253813Y-54344568D02*
X56237783Y-54329259D01*
X56237783Y-54329259D02*
X56221887Y-54313812D01*
X56221887Y-54313812D02*
X56206126Y-54298226D01*
X56206126Y-54298226D02*
X56190502Y-54282503D01*
X56190502Y-54282503D02*
X56175016Y-54266645D01*
X56175016Y-54266645D02*
X56159669Y-54250651D01*
X56159669Y-54250651D02*
X56144462Y-54234525D01*
X56144462Y-54234525D02*
X56129396Y-54218267D01*
X56129396Y-54218267D02*
X56114473Y-54201877D01*
X56114473Y-54201877D02*
X56099693Y-54185358D01*
X56099693Y-54185358D02*
X56085058Y-54168711D01*
X56085058Y-54168711D02*
X56070569Y-54151937D01*
X56070569Y-54151937D02*
X56056227Y-54135037D01*
X56056227Y-54135037D02*
X56042032Y-54118012D01*
X56042032Y-54118012D02*
X56027987Y-54100864D01*
X56027987Y-54100864D02*
X56014092Y-54083594D01*
X56014092Y-54083594D02*
X56000349Y-54066204D01*
X56000349Y-54066204D02*
X55986757Y-54048694D01*
X55986757Y-54048694D02*
X55973319Y-54031067D01*
X55973319Y-54031067D02*
X55960035Y-54013322D01*
X55960035Y-54013322D02*
X55946907Y-53995463D01*
X55946907Y-53995463D02*
X55933935Y-53977490D01*
X55933935Y-53977490D02*
X55921120Y-53959404D01*
X55921120Y-53959404D02*
X55908464Y-53941207D01*
X55908464Y-53941207D02*
X55895967Y-53922900D01*
X55895967Y-53922900D02*
X55883630Y-53904485D01*
X55883630Y-53904485D02*
X55871454Y-53885963D01*
X55871454Y-53885963D02*
X55859441Y-53867335D01*
X55859441Y-53867335D02*
X55847590Y-53848604D01*
X55847590Y-53848604D02*
X55835903Y-53829769D01*
X55835903Y-53829769D02*
X55824382Y-53810833D01*
X55824382Y-53810833D02*
X55813025Y-53791798D01*
X55813025Y-53791798D02*
X55801836Y-53772664D01*
X55801836Y-53772664D02*
X55790813Y-53753433D01*
X55790813Y-53753433D02*
X55779959Y-53734107D01*
X55779959Y-53734107D02*
X55769274Y-53714687D01*
X55769274Y-53714687D02*
X55758759Y-53695174D01*
X55758759Y-53695174D02*
X55748415Y-53675570D01*
X55748415Y-53675570D02*
X55738242Y-53655877D01*
X55738242Y-53655877D02*
X55728241Y-53636095D01*
X55728241Y-53636095D02*
X55718414Y-53616228D01*
X55718414Y-53616228D02*
X55708760Y-53596275D01*
X55708760Y-53596275D02*
X55702803Y-53583736D01*
X55561267Y-53210056D02*
X55555751Y-53190831D01*
X55477654Y-52798951D02*
X55475141Y-52776928D01*
X55475141Y-52776928D02*
X55472821Y-52754884D01*
X55472821Y-52754884D02*
X55470693Y-52732821D01*
X55470693Y-52732821D02*
X55468757Y-52710740D01*
X55468757Y-52710740D02*
X55467015Y-52688643D01*
X55467015Y-52688643D02*
X55465465Y-52666532D01*
X55465465Y-52666532D02*
X55464108Y-52644408D01*
X55464108Y-52644408D02*
X55462945Y-52622273D01*
X55462945Y-52622273D02*
X55461974Y-52600128D01*
X55461974Y-52600128D02*
X55461197Y-52577976D01*
X55461197Y-52577976D02*
X55460613Y-52555818D01*
X55460613Y-52555818D02*
X55460223Y-52533656D01*
X55460223Y-52533656D02*
X55460026Y-52511491D01*
X55460026Y-52511491D02*
X55460022Y-52489326D01*
X55460022Y-52489326D02*
X55460212Y-52467161D01*
X55460212Y-52467161D02*
X55460596Y-52444999D01*
X55460596Y-52444999D02*
X55461172Y-52422841D01*
X55461172Y-52422841D02*
X55461942Y-52400688D01*
X55461942Y-52400688D02*
X55462906Y-52378544D01*
X55462906Y-52378544D02*
X55464062Y-52356408D01*
X55464062Y-52356408D02*
X55465412Y-52334284D01*
X55465412Y-52334284D02*
X55466954Y-52312172D01*
X55466954Y-52312172D02*
X55468690Y-52290074D01*
X55468690Y-52290074D02*
X55470618Y-52267993D01*
X55470618Y-52267993D02*
X55472739Y-52245929D01*
X55472739Y-52245929D02*
X55475052Y-52223884D01*
X55475052Y-52223884D02*
X55477558Y-52201861D01*
X55477558Y-52201861D02*
X55480256Y-52179860D01*
X55480256Y-52179860D02*
X55483146Y-52157884D01*
X55483146Y-52157884D02*
X55486227Y-52135933D01*
X55486227Y-52135933D02*
X55489500Y-52114010D01*
X55489500Y-52114010D02*
X55492964Y-52092117D01*
X55492964Y-52092117D02*
X55496618Y-52070255D01*
X55496618Y-52070255D02*
X55500464Y-52048426D01*
X55500464Y-52048426D02*
X55504500Y-52026630D01*
X55504500Y-52026630D02*
X55508726Y-52004871D01*
X55508726Y-52004871D02*
X55513141Y-51983150D01*
X55513141Y-51983150D02*
X55517746Y-51961468D01*
X55517746Y-51961468D02*
X55522540Y-51939827D01*
X55522540Y-51939827D02*
X55527523Y-51918229D01*
X55527523Y-51918229D02*
X55532694Y-51896675D01*
X55532694Y-51896675D02*
X55538053Y-51875167D01*
X55538053Y-51875167D02*
X55543599Y-51853706D01*
X55543599Y-51853706D02*
X55549333Y-51832295D01*
X55549333Y-51832295D02*
X55555253Y-51810935D01*
X55555253Y-51810935D02*
X55561359Y-51789627D01*
X55561359Y-51789627D02*
X55567651Y-51768373D01*
X55567651Y-51768373D02*
X55574128Y-51747175D01*
X55574128Y-51747175D02*
X55580790Y-51726034D01*
X55580790Y-51726034D02*
X55585056Y-51712824D01*
X55738393Y-51343829D02*
X55747566Y-51326057D01*
X55959549Y-50987334D02*
X55972827Y-50969586D01*
X55972827Y-50969586D02*
X55986259Y-50951954D01*
X55986259Y-50951954D02*
X55999845Y-50934440D01*
X55999845Y-50934440D02*
X56013583Y-50917045D01*
X56013583Y-50917045D02*
X56027472Y-50899771D01*
X56027472Y-50899771D02*
X56041512Y-50882618D01*
X56041512Y-50882618D02*
X56055701Y-50865589D01*
X56055701Y-50865589D02*
X56070037Y-50848684D01*
X56070037Y-50848684D02*
X56084521Y-50831905D01*
X56084521Y-50831905D02*
X56099151Y-50815253D01*
X56099151Y-50815253D02*
X56113925Y-50798729D01*
X56113925Y-50798729D02*
X56128843Y-50782335D01*
X56128843Y-50782335D02*
X56143904Y-50766072D01*
X56143904Y-50766072D02*
X56159105Y-50749941D01*
X56159105Y-50749941D02*
X56174447Y-50733943D01*
X56174447Y-50733943D02*
X56189929Y-50718079D01*
X56189929Y-50718079D02*
X56205547Y-50702351D01*
X56205547Y-50702351D02*
X56221303Y-50686761D01*
X56221303Y-50686761D02*
X56237194Y-50671308D01*
X56237194Y-50671308D02*
X56253219Y-50655994D01*
X56253219Y-50655994D02*
X56269378Y-50640821D01*
X56269378Y-50640821D02*
X56285668Y-50625790D01*
X56285668Y-50625790D02*
X56302088Y-50610901D01*
X56302088Y-50610901D02*
X56318638Y-50596156D01*
X56318638Y-50596156D02*
X56335316Y-50581556D01*
X56335316Y-50581556D02*
X56352121Y-50567102D01*
X56352121Y-50567102D02*
X56369051Y-50552795D01*
X56369051Y-50552795D02*
X56386106Y-50538637D01*
X56386106Y-50538637D02*
X56403283Y-50524628D01*
X56403283Y-50524628D02*
X56420582Y-50510769D01*
X56420582Y-50510769D02*
X56438001Y-50497062D01*
X56438001Y-50497062D02*
X56455539Y-50483508D01*
X56455539Y-50483508D02*
X56473195Y-50470107D01*
X56473195Y-50470107D02*
X56490967Y-50456860D01*
X56490967Y-50456860D02*
X56508854Y-50443769D01*
X56508854Y-50443769D02*
X56526855Y-50430835D01*
X56526855Y-50430835D02*
X56544968Y-50418058D01*
X56544968Y-50418058D02*
X56563191Y-50405440D01*
X56563191Y-50405440D02*
X56581524Y-50392982D01*
X56581524Y-50392982D02*
X56599965Y-50380684D01*
X56599965Y-50380684D02*
X56618513Y-50368547D01*
X56618513Y-50368547D02*
X56637166Y-50356572D01*
X56637166Y-50356572D02*
X56655922Y-50344761D01*
X56655922Y-50344761D02*
X56674781Y-50333114D01*
X56674781Y-50333114D02*
X56693741Y-50321632D01*
X56693741Y-50321632D02*
X56712800Y-50310316D01*
X56712800Y-50310316D02*
X56731958Y-50299166D01*
X56731958Y-50299166D02*
X56751212Y-50288185D01*
X56751212Y-50288185D02*
X56770561Y-50277371D01*
X56770561Y-50277371D02*
X56782726Y-50270685D01*
X57147413Y-50107366D02*
X57166279Y-50100727D01*
X57552874Y-49999664D02*
X57574710Y-49995858D01*
X57574710Y-49995858D02*
X57596579Y-49992242D01*
X57596579Y-49992242D02*
X57618478Y-49988817D01*
X57618478Y-49988817D02*
X57640407Y-49985583D01*
X57640407Y-49985583D02*
X57662363Y-49982541D01*
X57662363Y-49982541D02*
X57684344Y-49979690D01*
X57684344Y-49979690D02*
X57706350Y-49977032D01*
X57706350Y-49977032D02*
X57728378Y-49974565D01*
X57728378Y-49974565D02*
X57750426Y-49972291D01*
X57750426Y-49972291D02*
X57772494Y-49970209D01*
X57772494Y-49970209D02*
X57794579Y-49968320D01*
X57794579Y-49968320D02*
X57816680Y-49966624D01*
X57816680Y-49966624D02*
X57838794Y-49965121D01*
X57838794Y-49965121D02*
X57860921Y-49963811D01*
X57860921Y-49963811D02*
X57883059Y-49962693D01*
X57883059Y-49962693D02*
X57905205Y-49961770D01*
X57905205Y-49961770D02*
X57927358Y-49961039D01*
X57927358Y-49961039D02*
X57949518Y-49960502D01*
X57949518Y-49960502D02*
X57971681Y-49960158D01*
X57971681Y-49960158D02*
X57993846Y-49960007D01*
X57993846Y-49960007D02*
X58016011Y-49960050D01*
X58016011Y-49960050D02*
X58038176Y-49960287D01*
X58038176Y-49960287D02*
X58060337Y-49960717D01*
X58060337Y-49960717D02*
X58082494Y-49961340D01*
X58082494Y-49961340D02*
X58104644Y-49962157D01*
X58104644Y-49962157D02*
X58126787Y-49963166D01*
X58126787Y-49963166D02*
X58148920Y-49964369D01*
X58148920Y-49964369D02*
X58171042Y-49965765D01*
X58171042Y-49965765D02*
X58193150Y-49967355D01*
X58193150Y-49967355D02*
X58215244Y-49969137D01*
X58215244Y-49969137D02*
X58237321Y-49971111D01*
X58237321Y-49971111D02*
X58259381Y-49973278D01*
X58259381Y-49973278D02*
X58281421Y-49975638D01*
X58281421Y-49975638D02*
X58303439Y-49978190D01*
X58303439Y-49978190D02*
X58325434Y-49980934D01*
X58325434Y-49980934D02*
X58347404Y-49983870D01*
X58347404Y-49983870D02*
X58369348Y-49986997D01*
X58369348Y-49986997D02*
X58391264Y-49990316D01*
X58391264Y-49990316D02*
X58413150Y-49993826D01*
X58413150Y-49993826D02*
X58435004Y-49997527D01*
X58435004Y-49997527D02*
X58456826Y-50001418D01*
X58456826Y-50001418D02*
X58478612Y-50005500D01*
X58478612Y-50005500D02*
X58500362Y-50009772D01*
X58500362Y-50009772D02*
X58522074Y-50014233D01*
X58522074Y-50014233D02*
X58543747Y-50018883D01*
X58543747Y-50018883D02*
X58565377Y-50023723D01*
X58565377Y-50023723D02*
X58586965Y-50028751D01*
X58586965Y-50028751D02*
X58608508Y-50033967D01*
X58608508Y-50033967D02*
X58630005Y-50039371D01*
X58630005Y-50039371D02*
X58643443Y-50042851D01*
X59020836Y-50174168D02*
X59039118Y-50182278D01*
X59389748Y-50373924D02*
X59408249Y-50386133D01*
X59408249Y-50386133D02*
X59426642Y-50398502D01*
X59426642Y-50398502D02*
X59444926Y-50411032D01*
X59444926Y-50411032D02*
X59463101Y-50423721D01*
X59463101Y-50423721D02*
X59481164Y-50436567D01*
X59481164Y-50436567D02*
X59499114Y-50449571D01*
X59499114Y-50449571D02*
X59516950Y-50462732D01*
X59516950Y-50462732D02*
X59534671Y-50476047D01*
X59534671Y-50476047D02*
X59552274Y-50489516D01*
X59552274Y-50489516D02*
X59569760Y-50503139D01*
X59569760Y-50503139D02*
X59587126Y-50516913D01*
X59587126Y-50516913D02*
X59604371Y-50530839D01*
X59604371Y-50530839D02*
X59621493Y-50544915D01*
X59621493Y-50544915D02*
X59638493Y-50559139D01*
X59638493Y-50559139D02*
X59655367Y-50573511D01*
X59655367Y-50573511D02*
X59672116Y-50588030D01*
X59672116Y-50588030D02*
X59688737Y-50602695D01*
X59688737Y-50602695D02*
X59705230Y-50617504D01*
X59705230Y-50617504D02*
X59721593Y-50632456D01*
X59721593Y-50632456D02*
X59737824Y-50647551D01*
X59737824Y-50647551D02*
X59753923Y-50662787D01*
X59753923Y-50662787D02*
X59769889Y-50678162D01*
X59769889Y-50678162D02*
X59785720Y-50693677D01*
X59785720Y-50693677D02*
X59801415Y-50709329D01*
X59801415Y-50709329D02*
X59816973Y-50725117D01*
X59816973Y-50725117D02*
X59832392Y-50741040D01*
X59832392Y-50741040D02*
X59847672Y-50757098D01*
X59847672Y-50757098D02*
X59862811Y-50773288D01*
X59862811Y-50773288D02*
X59877809Y-50789610D01*
X59877809Y-50789610D02*
X59892663Y-50806062D01*
X59892663Y-50806062D02*
X59907373Y-50822642D01*
X59907373Y-50822642D02*
X59921938Y-50839351D01*
X59921938Y-50839351D02*
X59936356Y-50856186D01*
X59936356Y-50856186D02*
X59950627Y-50873146D01*
X59950627Y-50873146D02*
X59964750Y-50890231D01*
X59964750Y-50890231D02*
X59978723Y-50907437D01*
X59978723Y-50907437D02*
X59992545Y-50924765D01*
X59992545Y-50924765D02*
X60006216Y-50942213D01*
X60006216Y-50942213D02*
X60019733Y-50959780D01*
X60019733Y-50959780D02*
X60033097Y-50977464D01*
X60033097Y-50977464D02*
X60046306Y-50995264D01*
X60046306Y-50995264D02*
X60059359Y-51013178D01*
X60059359Y-51013178D02*
X60072256Y-51031206D01*
X60072256Y-51031206D02*
X60084994Y-51049345D01*
X60084994Y-51049345D02*
X60097574Y-51067595D01*
X60097574Y-51067595D02*
X60109994Y-51085955D01*
X60109994Y-51085955D02*
X60122254Y-51104421D01*
X60122254Y-51104421D02*
X60134351Y-51122994D01*
X60134351Y-51122994D02*
X60146287Y-51141672D01*
X60146287Y-51141672D02*
X60153678Y-51153422D01*
X60338212Y-51507847D02*
X60345951Y-51526289D01*
X60469629Y-51906254D02*
X60474716Y-51927828D01*
X60474716Y-51927828D02*
X60479615Y-51949446D01*
X60479615Y-51949446D02*
X60484325Y-51971105D01*
X60484325Y-51971105D02*
X60488846Y-51992805D01*
X60488846Y-51992805D02*
X60493177Y-52014543D01*
X60493177Y-52014543D02*
X60497318Y-52036318D01*
X60497318Y-52036318D02*
X60501270Y-52058129D01*
X60501270Y-52058129D02*
X60505030Y-52079973D01*
X60505030Y-52079973D02*
X60508600Y-52101849D01*
X60508600Y-52101849D02*
X60511979Y-52123756D01*
X60511979Y-52123756D02*
X60515167Y-52145691D01*
X60515167Y-52145691D02*
X60518163Y-52167653D01*
X60518163Y-52167653D02*
X60520967Y-52189641D01*
X60520967Y-52189641D02*
X60523580Y-52211652D01*
X60523580Y-52211652D02*
X60526000Y-52233685D01*
X60526000Y-52233685D02*
X60528228Y-52255738D01*
X60528228Y-52255738D02*
X60530263Y-52277810D01*
X60530263Y-52277810D02*
X60532106Y-52299899D01*
X60532106Y-52299899D02*
X60533756Y-52322003D01*
X60533756Y-52322003D02*
X60535212Y-52344121D01*
X60535212Y-52344121D02*
X60536476Y-52366251D01*
X60536476Y-52366251D02*
X60537547Y-52388390D01*
X60537547Y-52388390D02*
X60538424Y-52410539D01*
X60538424Y-52410539D02*
X60539108Y-52432694D01*
X60539108Y-52432694D02*
X60539599Y-52454854D01*
X60539599Y-52454854D02*
X60539896Y-52477017D01*
X60539896Y-52477017D02*
X60540000Y-52499183D01*
X60540000Y-52499183D02*
X60540000Y-52500000D01*
%TO.C,J6*%
D12*
X65960000Y-61940000D02*
X78660000Y-61940000D01*
X78660000Y-68290000D01*
X65960000Y-68290000D01*
X65960000Y-61940000D01*
%TO.C,J2*%
X45340000Y-60190000D02*
X58040000Y-60190000D01*
X58040000Y-66540000D01*
X45340000Y-66540000D01*
X45340000Y-60190000D01*
D14*
%TO.C,A1*%
X20360000Y-33580000D02*
X20360000Y-36250000D01*
X20360000Y-38790000D02*
X20360000Y-77020000D01*
X20360000Y-77020000D02*
X25440000Y-77020000D01*
X23030000Y-36250000D02*
X20360000Y-36250000D01*
X23030000Y-38790000D02*
X20360000Y-38790000D01*
X23030000Y-38790000D02*
X23030000Y-36250000D01*
X23030000Y-38790000D02*
X23030000Y-74350000D01*
X23030000Y-74350000D02*
X20360000Y-74350000D01*
X25440000Y-69140000D02*
X33320000Y-69140000D01*
X25440000Y-79560000D02*
X25440000Y-69140000D01*
X33320000Y-69140000D02*
X33320000Y-79560000D01*
X33320000Y-79560000D02*
X25440000Y-79560000D01*
X35730000Y-36250000D02*
X35730000Y-74350000D01*
X35730000Y-36250000D02*
X38400000Y-36250000D01*
X35730000Y-74350000D02*
X38400000Y-74350000D01*
X38400000Y-33580000D02*
X20360000Y-33580000D01*
X38400000Y-77020000D02*
X33320000Y-77020000D01*
X38400000Y-77020000D02*
X38400000Y-33580000D01*
%TD*%
M02*
