%TF.GenerationSoftware,KiCad,Pcbnew,9.0.5*%
%TF.CreationDate,2026-03-22T13:32:08-07:00*%
%TF.ProjectId,Payload_2026_PCB_v1,5061796c-6f61-4645-9f32-3032365f5043,rev?*%
%TF.SameCoordinates,Original*%
%TF.FileFunction,Profile,NP*%
%FSLAX46Y46*%
G04 Gerber Fmt 4.6, Leading zero omitted, Abs format (unit mm)*
G04 Created by KiCad (PCBNEW 9.0.5) date 2026-03-22 13:32:08*
%MOMM*%
%LPD*%
G01*
G04 APERTURE LIST*
%TA.AperFunction,Profile*%
%ADD10C,0.050000*%
%TD*%
G04 APERTURE END LIST*
D10*
X53810000Y-50000000D02*
G75*
G02*
X46190000Y-50000000I-3810000J0D01*
G01*
X46190000Y-50000000D02*
G75*
G02*
X53810000Y-50000000I3810000J0D01*
G01*
X27151000Y-25500000D02*
G75*
G02*
X23849000Y-25500000I-1651000J0D01*
G01*
X23849000Y-25500000D02*
G75*
G02*
X27151000Y-25500000I1651000J0D01*
G01*
X76151000Y-25000000D02*
G75*
G02*
X72849000Y-25000000I-1651000J0D01*
G01*
X72849000Y-25000000D02*
G75*
G02*
X76151000Y-25000000I1651000J0D01*
G01*
X20000000Y-20000000D02*
X80000000Y-20000000D01*
X80000000Y-80000000D01*
X20000000Y-80000000D01*
X20000000Y-20000000D01*
X76651000Y-75000000D02*
G75*
G02*
X73349000Y-75000000I-1651000J0D01*
G01*
X73349000Y-75000000D02*
G75*
G02*
X76651000Y-75000000I1651000J0D01*
G01*
%TO.C,J11*%
X39471663Y-39803774D02*
G75*
G02*
X38471663Y-39803774I-500000J0D01*
G01*
X38471663Y-39803774D02*
G75*
G02*
X39471663Y-39803774I500000J0D01*
G01*
X45551663Y-39803774D02*
G75*
G02*
X44551663Y-39803774I-500000J0D01*
G01*
X44551663Y-39803774D02*
G75*
G02*
X45551663Y-39803774I500000J0D01*
G01*
%TO.C,J1*%
X48785000Y-22840000D02*
G75*
G02*
X46245000Y-22840000I-1270000J0D01*
G01*
X46245000Y-22840000D02*
G75*
G02*
X48785000Y-22840000I1270000J0D01*
G01*
X48785000Y-43160000D02*
G75*
G02*
X46245000Y-43160000I-1270000J0D01*
G01*
X46245000Y-43160000D02*
G75*
G02*
X48785000Y-43160000I1270000J0D01*
G01*
X69105000Y-22840000D02*
G75*
G02*
X66565000Y-22840000I-1270000J0D01*
G01*
X66565000Y-22840000D02*
G75*
G02*
X69105000Y-22840000I1270000J0D01*
G01*
X69105000Y-43160000D02*
G75*
G02*
X66565000Y-43160000I-1270000J0D01*
G01*
X66565000Y-43160000D02*
G75*
G02*
X69105000Y-43160000I1270000J0D01*
G01*
%TO.C,J10*%
X55460000Y-42340000D02*
G75*
G02*
X54460000Y-42340000I-500000J0D01*
G01*
X54460000Y-42340000D02*
G75*
G02*
X55460000Y-42340000I500000J0D01*
G01*
X61540000Y-42340000D02*
G75*
G02*
X60540000Y-42340000I-500000J0D01*
G01*
X60540000Y-42340000D02*
G75*
G02*
X61540000Y-42340000I500000J0D01*
G01*
%TD*%
M02*
